%TF.GenerationSoftware,KiCad,Pcbnew,(5.1.9-0-10_14)*%
%TF.CreationDate,2021-03-05T15:55:50-05:00*%
%TF.ProjectId,Apple1_2layer,4170706c-6531-45f3-926c-617965722e6b,rev?*%
%TF.SameCoordinates,Original*%
%TF.FileFunction,Soldermask,Bot*%
%TF.FilePolarity,Negative*%
%FSLAX46Y46*%
G04 Gerber Fmt 4.6, Leading zero omitted, Abs format (unit mm)*
G04 Created by KiCad (PCBNEW (5.1.9-0-10_14)) date 2021-03-05 15:55:50*
%MOMM*%
%LPD*%
G01*
G04 APERTURE LIST*
%ADD10C,1.802000*%
%ADD11C,1.302000*%
%ADD12C,2.097000*%
%ADD13C,1.510000*%
%ADD14C,3.418000*%
%ADD15C,2.102000*%
%ADD16C,2.157000*%
%ADD17C,5.277000*%
%ADD18O,1.702000X1.702000*%
%ADD19C,1.702000*%
%ADD20O,1.902000X1.902000*%
%ADD21C,1.902000*%
%ADD22C,2.702000*%
%ADD23O,4.302000X2.202000*%
%ADD24O,1.652000X3.202000*%
%ADD25C,1.402000*%
%ADD26C,1.812000*%
%ADD27O,2.007000X2.102000*%
G04 APERTURE END LIST*
D10*
%TO.C,U9*%
X215264000Y-51435000D03*
D11*
X148464000Y-51435000D03*
%TD*%
D12*
%TO.C,J9*%
X183018000Y-35312000D03*
X168518000Y-35312000D03*
X183643000Y-30412000D03*
X167893000Y-30412000D03*
%TD*%
D13*
%TO.C,J6*%
X156337000Y-39624000D03*
X153837000Y-39624000D03*
X151837000Y-39624000D03*
G36*
G01*
X150092000Y-38920000D02*
X150092000Y-40328000D01*
G75*
G02*
X150041000Y-40379000I-51000J0D01*
G01*
X148633000Y-40379000D01*
G75*
G02*
X148582000Y-40328000I0J51000D01*
G01*
X148582000Y-38920000D01*
G75*
G02*
X148633000Y-38869000I51000J0D01*
G01*
X150041000Y-38869000D01*
G75*
G02*
X150092000Y-38920000I0J-51000D01*
G01*
G37*
D14*
X157837000Y-36954000D03*
X147837000Y-36954000D03*
%TD*%
D15*
%TO.C,SW2*%
X201676000Y-94289000D03*
X201676000Y-89789000D03*
X208176000Y-94289000D03*
X208176000Y-89789000D03*
%TD*%
D16*
%TO.C,J3*%
X244246400Y-131470400D03*
X239166400Y-131470400D03*
X244246400Y-127510400D03*
X239166400Y-127510400D03*
X244246400Y-123550400D03*
X239166400Y-123550400D03*
X244246400Y-119590400D03*
X239166400Y-119590400D03*
X244246400Y-115630400D03*
X239166400Y-115630400D03*
X244246400Y-111670400D03*
X239166400Y-111670400D03*
X244246400Y-107710400D03*
X239166400Y-107710400D03*
X244246400Y-103750400D03*
X239166400Y-103750400D03*
X244246400Y-99790400D03*
X239166400Y-99790400D03*
X244246400Y-95830400D03*
X239166400Y-95830400D03*
X244246400Y-91870400D03*
X239166400Y-91870400D03*
X244246400Y-87910400D03*
X239166400Y-87910400D03*
X244246400Y-83950400D03*
X239166400Y-83950400D03*
X244246400Y-79990400D03*
X239166400Y-79990400D03*
X244246400Y-76030400D03*
X239166400Y-76030400D03*
X244246400Y-72070400D03*
X239166400Y-72070400D03*
X244246400Y-68110400D03*
X239166400Y-68110400D03*
X244246400Y-64150400D03*
X239166400Y-64150400D03*
X244246400Y-60190400D03*
X239166400Y-60190400D03*
X244246400Y-56230400D03*
X239166400Y-56230400D03*
X244246400Y-52270400D03*
X239166400Y-52270400D03*
X244246400Y-48310400D03*
X239166400Y-48310400D03*
D17*
X241706400Y-141045400D03*
X241706400Y-38735400D03*
%TD*%
D18*
%TO.C,U6*%
X199567800Y-133070600D03*
X151307800Y-117830600D03*
X197027800Y-133070600D03*
X153847800Y-117830600D03*
X194487800Y-133070600D03*
X156387800Y-117830600D03*
X191947800Y-133070600D03*
X158927800Y-117830600D03*
X189407800Y-133070600D03*
X161467800Y-117830600D03*
X186867800Y-133070600D03*
X164007800Y-117830600D03*
X184327800Y-133070600D03*
X166547800Y-117830600D03*
X181787800Y-133070600D03*
X169087800Y-117830600D03*
X179247800Y-133070600D03*
X171627800Y-117830600D03*
X176707800Y-133070600D03*
X174167800Y-117830600D03*
X174167800Y-133070600D03*
X176707800Y-117830600D03*
X171627800Y-133070600D03*
X179247800Y-117830600D03*
X169087800Y-133070600D03*
X181787800Y-117830600D03*
X166547800Y-133070600D03*
X184327800Y-117830600D03*
X164007800Y-133070600D03*
X186867800Y-117830600D03*
X161467800Y-133070600D03*
X189407800Y-117830600D03*
X158927800Y-133070600D03*
X191947800Y-117830600D03*
X156387800Y-133070600D03*
X194487800Y-117830600D03*
X153847800Y-133070600D03*
X197027800Y-117830600D03*
X151307800Y-133070600D03*
G36*
G01*
X198767800Y-116979600D02*
X200367800Y-116979600D01*
G75*
G02*
X200418800Y-117030600I0J-51000D01*
G01*
X200418800Y-118630600D01*
G75*
G02*
X200367800Y-118681600I-51000J0D01*
G01*
X198767800Y-118681600D01*
G75*
G02*
X198716800Y-118630600I0J51000D01*
G01*
X198716800Y-117030600D01*
G75*
G02*
X198767800Y-116979600I51000J0D01*
G01*
G37*
%TD*%
D19*
%TO.C,C4*%
X151387800Y-110718600D03*
X156387800Y-110718600D03*
%TD*%
%TO.C,C5*%
X111506000Y-66040000D03*
X106506000Y-66040000D03*
%TD*%
%TO.C,C6*%
X169418000Y-96981000D03*
X169418000Y-101981000D03*
%TD*%
%TO.C,C7*%
X131191000Y-66167000D03*
X126191000Y-66167000D03*
%TD*%
%TO.C,C8*%
X151434800Y-114147600D03*
X156434800Y-114147600D03*
%TD*%
%TO.C,C9*%
X169418000Y-84408000D03*
X169418000Y-89408000D03*
%TD*%
%TO.C,D1*%
G36*
G01*
X118426000Y-41264000D02*
X118426000Y-43064000D01*
G75*
G02*
X118375000Y-43115000I-51000J0D01*
G01*
X116575000Y-43115000D01*
G75*
G02*
X116524000Y-43064000I0J51000D01*
G01*
X116524000Y-41264000D01*
G75*
G02*
X116575000Y-41213000I51000J0D01*
G01*
X118375000Y-41213000D01*
G75*
G02*
X118426000Y-41264000I0J-51000D01*
G01*
G37*
D20*
X107315000Y-42164000D03*
%TD*%
%TO.C,D2*%
G36*
G01*
X92902000Y-53732000D02*
X92902000Y-51932000D01*
G75*
G02*
X92953000Y-51881000I51000J0D01*
G01*
X94753000Y-51881000D01*
G75*
G02*
X94804000Y-51932000I0J-51000D01*
G01*
X94804000Y-53732000D01*
G75*
G02*
X94753000Y-53783000I-51000J0D01*
G01*
X92953000Y-53783000D01*
G75*
G02*
X92902000Y-53732000I0J51000D01*
G01*
G37*
D21*
X96393000Y-52832000D03*
%TD*%
D18*
%TO.C,R1*%
X137566400Y-107391200D03*
D19*
X137566400Y-115011200D03*
%TD*%
%TO.C,R2*%
X134010400Y-115011200D03*
D18*
X134010400Y-107391200D03*
%TD*%
D19*
%TO.C,R3*%
X130454400Y-115011200D03*
D18*
X130454400Y-107391200D03*
%TD*%
%TO.C,R4*%
X158800800Y-107442000D03*
D19*
X151180800Y-107442000D03*
%TD*%
%TO.C,R5*%
X101346000Y-58166000D03*
D18*
X93726000Y-58166000D03*
%TD*%
D19*
%TO.C,C10*%
X126949200Y-114858800D03*
X126949200Y-109858800D03*
%TD*%
%TO.C,J1*%
G36*
G01*
X93553000Y-39086000D02*
X93553000Y-41686000D01*
G75*
G02*
X93502000Y-41737000I-51000J0D01*
G01*
X90902000Y-41737000D01*
G75*
G02*
X90851000Y-41686000I0J51000D01*
G01*
X90851000Y-39086000D01*
G75*
G02*
X90902000Y-39035000I51000J0D01*
G01*
X93502000Y-39035000D01*
G75*
G02*
X93553000Y-39086000I0J-51000D01*
G01*
G37*
D22*
X92202000Y-34386000D03*
X87502000Y-37386000D03*
%TD*%
%TO.C,J2*%
G36*
G01*
X258801601Y-132801400D02*
X250671599Y-132801400D01*
G75*
G02*
X250620600Y-132750401I0J50999D01*
G01*
X250620600Y-130190399D01*
G75*
G02*
X250671599Y-130139400I50999J0D01*
G01*
X258801601Y-130139400D01*
G75*
G02*
X258852600Y-130190399I0J-50999D01*
G01*
X258852600Y-132750401D01*
G75*
G02*
X258801601Y-132801400I-50999J0D01*
G01*
G37*
G36*
G01*
X258801601Y-128839000D02*
X250671599Y-128839000D01*
G75*
G02*
X250620600Y-128788001I0J50999D01*
G01*
X250620600Y-126227999D01*
G75*
G02*
X250671599Y-126177000I50999J0D01*
G01*
X258801601Y-126177000D01*
G75*
G02*
X258852600Y-126227999I0J-50999D01*
G01*
X258852600Y-128788001D01*
G75*
G02*
X258801601Y-128839000I-50999J0D01*
G01*
G37*
G36*
G01*
X258801601Y-120914200D02*
X250671599Y-120914200D01*
G75*
G02*
X250620600Y-120863201I0J50999D01*
G01*
X250620600Y-118303199D01*
G75*
G02*
X250671599Y-118252200I50999J0D01*
G01*
X258801601Y-118252200D01*
G75*
G02*
X258852600Y-118303199I0J-50999D01*
G01*
X258852600Y-120863201D01*
G75*
G02*
X258801601Y-120914200I-50999J0D01*
G01*
G37*
G36*
G01*
X258801601Y-124851200D02*
X250671599Y-124851200D01*
G75*
G02*
X250620600Y-124800201I0J50999D01*
G01*
X250620600Y-122240199D01*
G75*
G02*
X250671599Y-122189200I50999J0D01*
G01*
X258801601Y-122189200D01*
G75*
G02*
X258852600Y-122240199I0J-50999D01*
G01*
X258852600Y-124800201D01*
G75*
G02*
X258801601Y-124851200I-50999J0D01*
G01*
G37*
G36*
G01*
X258801601Y-112964000D02*
X250671599Y-112964000D01*
G75*
G02*
X250620600Y-112913001I0J50999D01*
G01*
X250620600Y-110352999D01*
G75*
G02*
X250671599Y-110302000I50999J0D01*
G01*
X258801601Y-110302000D01*
G75*
G02*
X258852600Y-110352999I0J-50999D01*
G01*
X258852600Y-112913001D01*
G75*
G02*
X258801601Y-112964000I-50999J0D01*
G01*
G37*
G36*
G01*
X258801601Y-109027000D02*
X250671599Y-109027000D01*
G75*
G02*
X250620600Y-108976001I0J50999D01*
G01*
X250620600Y-106415999D01*
G75*
G02*
X250671599Y-106365000I50999J0D01*
G01*
X258801601Y-106365000D01*
G75*
G02*
X258852600Y-106415999I0J-50999D01*
G01*
X258852600Y-108976001D01*
G75*
G02*
X258801601Y-109027000I-50999J0D01*
G01*
G37*
G36*
G01*
X258801601Y-116951800D02*
X250671599Y-116951800D01*
G75*
G02*
X250620600Y-116900801I0J50999D01*
G01*
X250620600Y-114340799D01*
G75*
G02*
X250671599Y-114289800I50999J0D01*
G01*
X258801601Y-114289800D01*
G75*
G02*
X258852600Y-114340799I0J-50999D01*
G01*
X258852600Y-116900801D01*
G75*
G02*
X258801601Y-116951800I-50999J0D01*
G01*
G37*
G36*
G01*
X258801601Y-105064600D02*
X250671599Y-105064600D01*
G75*
G02*
X250620600Y-105013601I0J50999D01*
G01*
X250620600Y-102453599D01*
G75*
G02*
X250671599Y-102402600I50999J0D01*
G01*
X258801601Y-102402600D01*
G75*
G02*
X258852600Y-102453599I0J-50999D01*
G01*
X258852600Y-105013601D01*
G75*
G02*
X258801601Y-105064600I-50999J0D01*
G01*
G37*
G36*
G01*
X258776201Y-97139800D02*
X250646199Y-97139800D01*
G75*
G02*
X250595200Y-97088801I0J50999D01*
G01*
X250595200Y-94528799D01*
G75*
G02*
X250646199Y-94477800I50999J0D01*
G01*
X258776201Y-94477800D01*
G75*
G02*
X258827200Y-94528799I0J-50999D01*
G01*
X258827200Y-97088801D01*
G75*
G02*
X258776201Y-97139800I-50999J0D01*
G01*
G37*
G36*
G01*
X258776201Y-101076800D02*
X250646199Y-101076800D01*
G75*
G02*
X250595200Y-101025801I0J50999D01*
G01*
X250595200Y-98465799D01*
G75*
G02*
X250646199Y-98414800I50999J0D01*
G01*
X258776201Y-98414800D01*
G75*
G02*
X258827200Y-98465799I0J-50999D01*
G01*
X258827200Y-101025801D01*
G75*
G02*
X258776201Y-101076800I-50999J0D01*
G01*
G37*
G36*
G01*
X258776201Y-81290200D02*
X250646199Y-81290200D01*
G75*
G02*
X250595200Y-81239201I0J50999D01*
G01*
X250595200Y-78679199D01*
G75*
G02*
X250646199Y-78628200I50999J0D01*
G01*
X258776201Y-78628200D01*
G75*
G02*
X258827200Y-78679199I0J-50999D01*
G01*
X258827200Y-81239201D01*
G75*
G02*
X258776201Y-81290200I-50999J0D01*
G01*
G37*
G36*
G01*
X258750801Y-73365400D02*
X250620799Y-73365400D01*
G75*
G02*
X250569800Y-73314401I0J50999D01*
G01*
X250569800Y-70754399D01*
G75*
G02*
X250620799Y-70703400I50999J0D01*
G01*
X258750801Y-70703400D01*
G75*
G02*
X258801800Y-70754399I0J-50999D01*
G01*
X258801800Y-73314401D01*
G75*
G02*
X258750801Y-73365400I-50999J0D01*
G01*
G37*
G36*
G01*
X258750801Y-77302400D02*
X250620799Y-77302400D01*
G75*
G02*
X250569800Y-77251401I0J50999D01*
G01*
X250569800Y-74691399D01*
G75*
G02*
X250620799Y-74640400I50999J0D01*
G01*
X258750801Y-74640400D01*
G75*
G02*
X258801800Y-74691399I0J-50999D01*
G01*
X258801800Y-77251401D01*
G75*
G02*
X258750801Y-77302400I-50999J0D01*
G01*
G37*
G36*
G01*
X258776201Y-89189600D02*
X250646199Y-89189600D01*
G75*
G02*
X250595200Y-89138601I0J50999D01*
G01*
X250595200Y-86578599D01*
G75*
G02*
X250646199Y-86527600I50999J0D01*
G01*
X258776201Y-86527600D01*
G75*
G02*
X258827200Y-86578599I0J-50999D01*
G01*
X258827200Y-89138601D01*
G75*
G02*
X258776201Y-89189600I-50999J0D01*
G01*
G37*
G36*
G01*
X258776201Y-85252600D02*
X250646199Y-85252600D01*
G75*
G02*
X250595200Y-85201601I0J50999D01*
G01*
X250595200Y-82641599D01*
G75*
G02*
X250646199Y-82590600I50999J0D01*
G01*
X258776201Y-82590600D01*
G75*
G02*
X258827200Y-82641599I0J-50999D01*
G01*
X258827200Y-85201601D01*
G75*
G02*
X258776201Y-85252600I-50999J0D01*
G01*
G37*
G36*
G01*
X258750801Y-65415200D02*
X250620799Y-65415200D01*
G75*
G02*
X250569800Y-65364201I0J50999D01*
G01*
X250569800Y-62804199D01*
G75*
G02*
X250620799Y-62753200I50999J0D01*
G01*
X258750801Y-62753200D01*
G75*
G02*
X258801800Y-62804199I0J-50999D01*
G01*
X258801800Y-65364201D01*
G75*
G02*
X258750801Y-65415200I-50999J0D01*
G01*
G37*
G36*
G01*
X258750801Y-61478200D02*
X250620799Y-61478200D01*
G75*
G02*
X250569800Y-61427201I0J50999D01*
G01*
X250569800Y-58867199D01*
G75*
G02*
X250620799Y-58816200I50999J0D01*
G01*
X258750801Y-58816200D01*
G75*
G02*
X258801800Y-58867199I0J-50999D01*
G01*
X258801800Y-61427201D01*
G75*
G02*
X258750801Y-61478200I-50999J0D01*
G01*
G37*
G36*
G01*
X258750801Y-69403000D02*
X250620799Y-69403000D01*
G75*
G02*
X250569800Y-69352001I0J50999D01*
G01*
X250569800Y-66791999D01*
G75*
G02*
X250620799Y-66741000I50999J0D01*
G01*
X258750801Y-66741000D01*
G75*
G02*
X258801800Y-66791999I0J-50999D01*
G01*
X258801800Y-69352001D01*
G75*
G02*
X258750801Y-69403000I-50999J0D01*
G01*
G37*
G36*
G01*
X258776201Y-93177400D02*
X250646199Y-93177400D01*
G75*
G02*
X250595200Y-93126401I0J50999D01*
G01*
X250595200Y-90566399D01*
G75*
G02*
X250646199Y-90515400I50999J0D01*
G01*
X258776201Y-90515400D01*
G75*
G02*
X258827200Y-90566399I0J-50999D01*
G01*
X258827200Y-93126401D01*
G75*
G02*
X258776201Y-93177400I-50999J0D01*
G01*
G37*
G36*
G01*
X258750801Y-57515800D02*
X250620799Y-57515800D01*
G75*
G02*
X250569800Y-57464801I0J50999D01*
G01*
X250569800Y-54904799D01*
G75*
G02*
X250620799Y-54853800I50999J0D01*
G01*
X258750801Y-54853800D01*
G75*
G02*
X258801800Y-54904799I0J-50999D01*
G01*
X258801800Y-57464801D01*
G75*
G02*
X258750801Y-57515800I-50999J0D01*
G01*
G37*
G36*
G01*
X258725401Y-49591000D02*
X250595399Y-49591000D01*
G75*
G02*
X250544400Y-49540001I0J50999D01*
G01*
X250544400Y-46979999D01*
G75*
G02*
X250595399Y-46929000I50999J0D01*
G01*
X258725401Y-46929000D01*
G75*
G02*
X258776400Y-46979999I0J-50999D01*
G01*
X258776400Y-49540001D01*
G75*
G02*
X258725401Y-49591000I-50999J0D01*
G01*
G37*
G36*
G01*
X258750801Y-53528000D02*
X250620799Y-53528000D01*
G75*
G02*
X250569800Y-53477001I0J50999D01*
G01*
X250569800Y-50916999D01*
G75*
G02*
X250620799Y-50866000I50999J0D01*
G01*
X258750801Y-50866000D01*
G75*
G02*
X258801800Y-50916999I0J-50999D01*
G01*
X258801800Y-53477001D01*
G75*
G02*
X258750801Y-53528000I-50999J0D01*
G01*
G37*
%TD*%
%TO.C,J4*%
G36*
G01*
X232752200Y-47359200D02*
X232752200Y-49059200D01*
G75*
G02*
X232701200Y-49110200I-51000J0D01*
G01*
X231001200Y-49110200D01*
G75*
G02*
X230950200Y-49059200I0J51000D01*
G01*
X230950200Y-47359200D01*
G75*
G02*
X231001200Y-47308200I51000J0D01*
G01*
X232701200Y-47308200D01*
G75*
G02*
X232752200Y-47359200I0J-51000D01*
G01*
G37*
%TD*%
%TO.C,J5*%
G36*
G01*
X232803000Y-54420400D02*
X232803000Y-56120400D01*
G75*
G02*
X232752000Y-56171400I-51000J0D01*
G01*
X231052000Y-56171400D01*
G75*
G02*
X231001000Y-56120400I0J51000D01*
G01*
X231001000Y-54420400D01*
G75*
G02*
X231052000Y-54369400I51000J0D01*
G01*
X232752000Y-54369400D01*
G75*
G02*
X232803000Y-54420400I0J-51000D01*
G01*
G37*
%TD*%
D23*
%TO.C,J7*%
X200660000Y-34480000D03*
D24*
X200660000Y-38980000D03*
%TD*%
D25*
%TO.C,SW1*%
X110109000Y-34544000D03*
X106109000Y-34544000D03*
X102109000Y-34544000D03*
D26*
X112109000Y-30294000D03*
X112109000Y-36294000D03*
X100109000Y-36294000D03*
X100109000Y-30294000D03*
%TD*%
D15*
%TO.C,SW3*%
X223647000Y-89734000D03*
X223647000Y-94234000D03*
X217147000Y-89734000D03*
X217147000Y-94234000D03*
%TD*%
%TO.C,U1*%
G36*
G01*
X164096800Y-81038600D02*
X165696800Y-81038600D01*
G75*
G02*
X165747800Y-81089600I0J-51000D01*
G01*
X165747800Y-82689600D01*
G75*
G02*
X165696800Y-82740600I-51000J0D01*
G01*
X164096800Y-82740600D01*
G75*
G02*
X164045800Y-82689600I0J51000D01*
G01*
X164045800Y-81089600D01*
G75*
G02*
X164096800Y-81038600I51000J0D01*
G01*
G37*
D18*
X147116800Y-89509600D03*
X162356800Y-81889600D03*
X149656800Y-89509600D03*
X159816800Y-81889600D03*
X152196800Y-89509600D03*
X157276800Y-81889600D03*
X154736800Y-89509600D03*
X154736800Y-81889600D03*
X157276800Y-89509600D03*
X152196800Y-81889600D03*
X159816800Y-89509600D03*
X149656800Y-81889600D03*
X162356800Y-89509600D03*
X147116800Y-81889600D03*
X164896800Y-89509600D03*
%TD*%
%TO.C,U2*%
G36*
G01*
X115227000Y-70904000D02*
X115227000Y-69304000D01*
G75*
G02*
X115278000Y-69253000I51000J0D01*
G01*
X116878000Y-69253000D01*
G75*
G02*
X116929000Y-69304000I0J-51000D01*
G01*
X116929000Y-70904000D01*
G75*
G02*
X116878000Y-70955000I-51000J0D01*
G01*
X115278000Y-70955000D01*
G75*
G02*
X115227000Y-70904000I0J51000D01*
G01*
G37*
X131318000Y-103124000D03*
X116078000Y-72644000D03*
X131318000Y-100584000D03*
X116078000Y-75184000D03*
X131318000Y-98044000D03*
X116078000Y-77724000D03*
X131318000Y-95504000D03*
X116078000Y-80264000D03*
X131318000Y-92964000D03*
X116078000Y-82804000D03*
X131318000Y-90424000D03*
X116078000Y-85344000D03*
X131318000Y-87884000D03*
X116078000Y-87884000D03*
X131318000Y-85344000D03*
X116078000Y-90424000D03*
X131318000Y-82804000D03*
X116078000Y-92964000D03*
X131318000Y-80264000D03*
X116078000Y-95504000D03*
X131318000Y-77724000D03*
X116078000Y-98044000D03*
X131318000Y-75184000D03*
X116078000Y-100584000D03*
X131318000Y-72644000D03*
X116078000Y-103124000D03*
X131318000Y-70104000D03*
%TD*%
%TO.C,U3*%
G36*
G01*
X143903800Y-116979600D02*
X145503800Y-116979600D01*
G75*
G02*
X145554800Y-117030600I0J-51000D01*
G01*
X145554800Y-118630600D01*
G75*
G02*
X145503800Y-118681600I-51000J0D01*
G01*
X143903800Y-118681600D01*
G75*
G02*
X143852800Y-118630600I0J51000D01*
G01*
X143852800Y-117030600D01*
G75*
G02*
X143903800Y-116979600I51000J0D01*
G01*
G37*
X96443800Y-133070600D03*
X142163800Y-117830600D03*
X98983800Y-133070600D03*
X139623800Y-117830600D03*
X101523800Y-133070600D03*
X137083800Y-117830600D03*
X104063800Y-133070600D03*
X134543800Y-117830600D03*
X106603800Y-133070600D03*
X132003800Y-117830600D03*
X109143800Y-133070600D03*
X129463800Y-117830600D03*
X111683800Y-133070600D03*
X126923800Y-117830600D03*
X114223800Y-133070600D03*
X124383800Y-117830600D03*
X116763800Y-133070600D03*
X121843800Y-117830600D03*
X119303800Y-133070600D03*
X119303800Y-117830600D03*
X121843800Y-133070600D03*
X116763800Y-117830600D03*
X124383800Y-133070600D03*
X114223800Y-117830600D03*
X126923800Y-133070600D03*
X111683800Y-117830600D03*
X129463800Y-133070600D03*
X109143800Y-117830600D03*
X132003800Y-133070600D03*
X106603800Y-117830600D03*
X134543800Y-133070600D03*
X104063800Y-117830600D03*
X137083800Y-133070600D03*
X101523800Y-117830600D03*
X139623800Y-133070600D03*
X98983800Y-117830600D03*
X142163800Y-133070600D03*
X96443800Y-117830600D03*
X144703800Y-133070600D03*
%TD*%
%TO.C,U4*%
G36*
G01*
X164096800Y-93535400D02*
X165696800Y-93535400D01*
G75*
G02*
X165747800Y-93586400I0J-51000D01*
G01*
X165747800Y-95186400D01*
G75*
G02*
X165696800Y-95237400I-51000J0D01*
G01*
X164096800Y-95237400D01*
G75*
G02*
X164045800Y-95186400I0J51000D01*
G01*
X164045800Y-93586400D01*
G75*
G02*
X164096800Y-93535400I51000J0D01*
G01*
G37*
X149656800Y-102006400D03*
X162356800Y-94386400D03*
X152196800Y-102006400D03*
X159816800Y-94386400D03*
X154736800Y-102006400D03*
X157276800Y-94386400D03*
X157276800Y-102006400D03*
X154736800Y-94386400D03*
X159816800Y-102006400D03*
X152196800Y-94386400D03*
X162356800Y-102006400D03*
X149656800Y-94386400D03*
X164896800Y-102006400D03*
%TD*%
D27*
%TO.C,U7*%
X122555000Y-34036000D03*
X120015000Y-34036000D03*
G36*
G01*
X116471500Y-35036000D02*
X116471500Y-33036000D01*
G75*
G02*
X116522500Y-32985000I51000J0D01*
G01*
X118427500Y-32985000D01*
G75*
G02*
X118478500Y-33036000I0J-51000D01*
G01*
X118478500Y-35036000D01*
G75*
G02*
X118427500Y-35087000I-51000J0D01*
G01*
X116522500Y-35087000D01*
G75*
G02*
X116471500Y-35036000I0J51000D01*
G01*
G37*
%TD*%
D18*
%TO.C,U8*%
X111658400Y-70104000D03*
X96418400Y-103124000D03*
X111658400Y-72644000D03*
X96418400Y-100584000D03*
X111658400Y-75184000D03*
X96418400Y-98044000D03*
X111658400Y-77724000D03*
X96418400Y-95504000D03*
X111658400Y-80264000D03*
X96418400Y-92964000D03*
X111658400Y-82804000D03*
X96418400Y-90424000D03*
X111658400Y-85344000D03*
X96418400Y-87884000D03*
X111658400Y-87884000D03*
X96418400Y-85344000D03*
X111658400Y-90424000D03*
X96418400Y-82804000D03*
X111658400Y-92964000D03*
X96418400Y-80264000D03*
X111658400Y-95504000D03*
X96418400Y-77724000D03*
X111658400Y-98044000D03*
X96418400Y-75184000D03*
X111658400Y-100584000D03*
X96418400Y-72644000D03*
X111658400Y-103124000D03*
G36*
G01*
X95567400Y-70904000D02*
X95567400Y-69304000D01*
G75*
G02*
X95618400Y-69253000I51000J0D01*
G01*
X97218400Y-69253000D01*
G75*
G02*
X97269400Y-69304000I0J-51000D01*
G01*
X97269400Y-70904000D01*
G75*
G02*
X97218400Y-70955000I-51000J0D01*
G01*
X95618400Y-70955000D01*
G75*
G02*
X95567400Y-70904000I0J51000D01*
G01*
G37*
%TD*%
M02*
