%TF.GenerationSoftware,KiCad,Pcbnew,(5.1.5-0-10_14)*%
%TF.CreationDate,2020-10-14T14:06:32-04:00*%
%TF.ProjectId,Apple1,4170706c-6531-42e6-9b69-6361645f7063,rev?*%
%TF.SameCoordinates,Original*%
%TF.FileFunction,Plated,1,2,PTH,Mixed*%
%TF.FilePolarity,Positive*%
%FSLAX46Y46*%
G04 Gerber Fmt 4.6, Leading zero omitted, Abs format (unit mm)*
G04 Created by KiCad (PCBNEW (5.1.5-0-10_14)) date 2020-10-14 14:06:32*
%MOMM*%
%LPD*%
G04 APERTURE LIST*
%TA.AperFunction,ComponentDrill*%
%ADD10C,0.700000*%
%TD*%
%TA.AperFunction,ComponentDrill*%
%ADD11C,0.800000*%
%TD*%
%TA.AperFunction,ViaDrill*%
%ADD12C,0.900000*%
%TD*%
%TA.AperFunction,ComponentDrill*%
%ADD13C,0.900000*%
%TD*%
%TA.AperFunction,ComponentDrill*%
%ADD14C,1.000000*%
%TD*%
G04 aperture for slot hole*
%TA.AperFunction,ComponentDrill*%
%ADD15C,1.000000*%
%TD*%
%TA.AperFunction,ComponentDrill*%
%ADD16C,1.100000*%
%TD*%
G04 aperture for slot hole*
%TA.AperFunction,ComponentDrill*%
%ADD17C,1.300000*%
%TD*%
%TA.AperFunction,ComponentDrill*%
%ADD18C,3.450000*%
%TD*%
G04 APERTURE END LIST*
D10*
%TO.C,J5*%
X159893000Y-62293500D03*
X159893000Y-63563500D03*
X161163000Y-62293500D03*
X161163000Y-63563500D03*
X162433000Y-62293500D03*
X162433000Y-63563500D03*
X163703000Y-62293500D03*
X163703000Y-63563500D03*
X164973000Y-62293500D03*
X164973000Y-63563500D03*
D11*
%TO.C,R5*%
X154495500Y-76327000D03*
X154495500Y-83947000D03*
%TO.C,R19*%
X51816000Y-43307000D03*
X59436000Y-43307000D03*
%TO.C,R12*%
X142748000Y-65532000D03*
X150368000Y-65532000D03*
%TO.C,C3*%
X96854000Y-103886000D03*
X101854000Y-103886000D03*
%TO.C,R24*%
X132905500Y-46545500D03*
X140525500Y-46545500D03*
%TO.C,C9*%
X178879500Y-49657000D03*
X178879500Y-54657000D03*
%TO.C,R3*%
X73406000Y-101854000D03*
X81026000Y-101854000D03*
%TO.C,R22*%
X132905500Y-68770500D03*
X140525500Y-68770500D03*
%TO.C,C5*%
X79883000Y-56261000D03*
X79883000Y-61261000D03*
%TO.C,R1*%
X73406000Y-95123000D03*
X81026000Y-95123000D03*
%TO.C,R11*%
X142748000Y-62357000D03*
X150368000Y-62357000D03*
%TO.C,R20*%
X132905500Y-62420500D03*
X140525500Y-62420500D03*
%TO.C,U5*%
X41338500Y-56959500D03*
X41338500Y-59499500D03*
X41338500Y-62039500D03*
X41338500Y-64579500D03*
X41338500Y-67119500D03*
X41338500Y-69659500D03*
X41338500Y-72199500D03*
X41338500Y-74739500D03*
X41338500Y-77279500D03*
X41338500Y-79819500D03*
X41338500Y-82359500D03*
X41338500Y-84899500D03*
X41338500Y-87439500D03*
X41338500Y-89979500D03*
X56578500Y-56959500D03*
X56578500Y-59499500D03*
X56578500Y-62039500D03*
X56578500Y-64579500D03*
X56578500Y-67119500D03*
X56578500Y-69659500D03*
X56578500Y-72199500D03*
X56578500Y-74739500D03*
X56578500Y-77279500D03*
X56578500Y-79819500D03*
X56578500Y-82359500D03*
X56578500Y-84899500D03*
X56578500Y-87439500D03*
X56578500Y-89979500D03*
%TO.C,R9*%
X142748000Y-56007000D03*
X150368000Y-56007000D03*
%TO.C,R17*%
X132905500Y-56070500D03*
X140525500Y-56070500D03*
%TO.C,R27*%
X162179000Y-37528500D03*
X162179000Y-45148500D03*
%TO.C,C10*%
X74930000Y-27686000D03*
X74930000Y-30186000D03*
%TO.C,R7*%
X142748000Y-49657000D03*
X150368000Y-49657000D03*
%TO.C,C8*%
X174053500Y-49657000D03*
X174053500Y-54657000D03*
%TO.C,U1*%
X41402000Y-108712000D03*
X41402000Y-123952000D03*
X43942000Y-108712000D03*
X43942000Y-123952000D03*
X46482000Y-108712000D03*
X46482000Y-123952000D03*
X49022000Y-108712000D03*
X49022000Y-123952000D03*
X51562000Y-108712000D03*
X51562000Y-123952000D03*
X54102000Y-108712000D03*
X54102000Y-123952000D03*
X56642000Y-108712000D03*
X56642000Y-123952000D03*
X59182000Y-108712000D03*
X59182000Y-123952000D03*
X61722000Y-108712000D03*
X61722000Y-123952000D03*
X64262000Y-108712000D03*
X64262000Y-123952000D03*
X66802000Y-108712000D03*
X66802000Y-123952000D03*
X69342000Y-108712000D03*
X69342000Y-123952000D03*
X71882000Y-108712000D03*
X71882000Y-123952000D03*
X74422000Y-108712000D03*
X74422000Y-123952000D03*
X76962000Y-108712000D03*
X76962000Y-123952000D03*
X79502000Y-108712000D03*
X79502000Y-123952000D03*
X82042000Y-108712000D03*
X82042000Y-123952000D03*
X84582000Y-108712000D03*
X84582000Y-123952000D03*
X87122000Y-108712000D03*
X87122000Y-123952000D03*
X89662000Y-108712000D03*
X89662000Y-123952000D03*
%TO.C,R6*%
X142748000Y-46482000D03*
X150368000Y-46482000D03*
%TO.C,R15*%
X132837501Y-49720500D03*
X140457501Y-49720500D03*
%TO.C,R13*%
X142748000Y-68707000D03*
X150368000Y-68707000D03*
%TO.C,R25*%
X168529000Y-37528500D03*
X168529000Y-45148500D03*
%TO.C,U6*%
X61341000Y-56515000D03*
X61341000Y-59055000D03*
X61341000Y-61595000D03*
X61341000Y-64135000D03*
X61341000Y-66675000D03*
X61341000Y-69215000D03*
X61341000Y-71755000D03*
X61341000Y-74295000D03*
X61341000Y-76835000D03*
X61341000Y-79375000D03*
X61341000Y-81915000D03*
X61341000Y-84455000D03*
X61341000Y-86995000D03*
X61341000Y-89535000D03*
X76581000Y-56515000D03*
X76581000Y-59055000D03*
X76581000Y-61595000D03*
X76581000Y-64135000D03*
X76581000Y-66675000D03*
X76581000Y-69215000D03*
X76581000Y-71755000D03*
X76581000Y-74295000D03*
X76581000Y-76835000D03*
X76581000Y-79375000D03*
X76581000Y-81915000D03*
X76581000Y-84455000D03*
X76581000Y-86995000D03*
X76581000Y-89535000D03*
%TO.C,R4*%
X121602500Y-78486000D03*
X121602500Y-86106000D03*
%TO.C,R23*%
X132905500Y-71945500D03*
X140525500Y-71945500D03*
%TO.C,C7*%
X115443000Y-76153000D03*
X115443000Y-81153000D03*
%TO.C,R2*%
X73406000Y-98552000D03*
X81026000Y-98552000D03*
%TO.C,U7*%
X96647000Y-73533000D03*
X96647000Y-81153000D03*
X99187000Y-73533000D03*
X99187000Y-81153000D03*
X101727000Y-73533000D03*
X101727000Y-81153000D03*
X104267000Y-73533000D03*
X104267000Y-81153000D03*
X106807000Y-73533000D03*
X106807000Y-81153000D03*
X109347000Y-73533000D03*
X109347000Y-81153000D03*
X111887000Y-73533000D03*
X111887000Y-81153000D03*
%TO.C,R21*%
X132905500Y-65595500D03*
X140525500Y-65595500D03*
%TO.C,U2*%
X97282000Y-108839000D03*
X97282000Y-124079000D03*
X99822000Y-108839000D03*
X99822000Y-124079000D03*
X102362000Y-108839000D03*
X102362000Y-124079000D03*
X104902000Y-108839000D03*
X104902000Y-124079000D03*
X107442000Y-108839000D03*
X107442000Y-124079000D03*
X109982000Y-108839000D03*
X109982000Y-124079000D03*
X112522000Y-108839000D03*
X112522000Y-124079000D03*
X115062000Y-108839000D03*
X115062000Y-124079000D03*
X117602000Y-108839000D03*
X117602000Y-124079000D03*
X120142000Y-108839000D03*
X120142000Y-124079000D03*
X122682000Y-108839000D03*
X122682000Y-124079000D03*
X125222000Y-108839000D03*
X125222000Y-124079000D03*
X127762000Y-108839000D03*
X127762000Y-124079000D03*
X130302000Y-108839000D03*
X130302000Y-124079000D03*
X132842000Y-108839000D03*
X132842000Y-124079000D03*
X135382000Y-108839000D03*
X135382000Y-124079000D03*
X137922000Y-108839000D03*
X137922000Y-124079000D03*
X140462000Y-108839000D03*
X140462000Y-124079000D03*
X143002000Y-108839000D03*
X143002000Y-124079000D03*
X145542000Y-108839000D03*
X145542000Y-124079000D03*
%TO.C,C1*%
X96901000Y-100584000D03*
X101901000Y-100584000D03*
%TO.C,SW3*%
X58294000Y-26416000D03*
X62294000Y-26416000D03*
X66294000Y-26416000D03*
%TO.C,C11*%
X93091000Y-27686000D03*
X93091000Y-30186000D03*
%TO.C,C12*%
X83947000Y-27686000D03*
X83947000Y-30186000D03*
%TO.C,R10*%
X142748000Y-59182000D03*
X150368000Y-59182000D03*
%TO.C,R18*%
X132905500Y-59245500D03*
X140525500Y-59245500D03*
%TO.C,C17*%
X173482000Y-59182000D03*
X173482000Y-61682000D03*
%TO.C,U4*%
X94107000Y-59055000D03*
X94107000Y-66675000D03*
X96647000Y-59055000D03*
X96647000Y-66675000D03*
X99187000Y-59055000D03*
X99187000Y-66675000D03*
X101727000Y-59055000D03*
X101727000Y-66675000D03*
X104267000Y-59055000D03*
X104267000Y-66675000D03*
X106807000Y-59055000D03*
X106807000Y-66675000D03*
X109347000Y-59055000D03*
X109347000Y-66675000D03*
X111887000Y-59055000D03*
X111887000Y-66675000D03*
%TO.C,C4*%
X51324500Y-52578000D03*
X56324500Y-52578000D03*
%TO.C,C2*%
X73660000Y-105156000D03*
X78660000Y-105156000D03*
%TO.C,C6*%
X115570000Y-61675000D03*
X115570000Y-66675000D03*
%TO.C,R8*%
X142748000Y-52832000D03*
X150368000Y-52832000D03*
%TO.C,R16*%
X132837501Y-52882501D03*
X140457501Y-52882501D03*
%TO.C,R14*%
X142748000Y-71882000D03*
X150368000Y-71882000D03*
%TO.C,R26*%
X165354000Y-37528500D03*
X165354000Y-45148500D03*
%TD*%
D12*
X35052000Y-139700000D03*
X41168275Y-102255275D03*
X51255749Y-89916000D03*
X52324000Y-87503000D03*
X53255749Y-84963000D03*
X54229000Y-82423000D03*
X70413164Y-61859999D03*
X75184000Y-116205000D03*
X93281500Y-110490000D03*
X93345000Y-116205000D03*
X95479000Y-102067499D03*
X97155000Y-116205000D03*
X98869500Y-131027081D03*
X99760360Y-119826360D03*
X100457000Y-77597000D03*
X106045000Y-56179989D03*
X107442000Y-121803999D03*
X108966000Y-135231060D03*
X110871000Y-92202000D03*
X110871000Y-116205000D03*
X111442500Y-134031040D03*
X113982500Y-132831020D03*
X116522500Y-131631000D03*
X119126000Y-130427071D03*
X121714232Y-129227051D03*
X124206000Y-128027031D03*
X126809500Y-126827011D03*
X128778000Y-105283000D03*
X131842608Y-85827990D03*
X131889500Y-126827011D03*
X149352000Y-116141500D03*
X155837076Y-54241500D03*
X155837076Y-55841500D03*
X160104890Y-59266890D03*
X162877500Y-58737500D03*
X165027501Y-59690000D03*
X166334992Y-58800999D03*
X168021000Y-91313000D03*
X170027976Y-106848042D03*
X171123992Y-105752026D03*
X172220009Y-104656009D03*
X173327409Y-103548609D03*
X173609000Y-82931000D03*
X174423425Y-102452592D03*
X175514000Y-116840000D03*
X175519442Y-101356576D03*
X176615459Y-100260559D03*
X177367640Y-119201640D03*
X177711475Y-99164543D03*
X178807492Y-98068526D03*
X179903509Y-96972509D03*
X179990409Y-89334293D03*
X181384238Y-94643238D03*
X181540408Y-89337228D03*
X182991967Y-92186967D03*
X183090407Y-89340000D03*
X184603083Y-89678111D03*
D13*
%TO.C,D2*%
X45339000Y-43434000D03*
X47879000Y-43434000D03*
%TO.C,D1*%
X57150000Y-32004000D03*
X67310000Y-32004000D03*
%TO.C,J2*%
X136764000Y-31115000D03*
X139264000Y-31115000D03*
X141264000Y-31115000D03*
X143764000Y-31115000D03*
D14*
%TO.C,J8*%
X181356000Y-38417500D03*
%TO.C,J9*%
X181483000Y-32194500D03*
D15*
%TO.C,J1*%
X155067000Y-35418000D02*
X155067000Y-36718000D01*
%TO.C,J4*%
X42163000Y-29623000D02*
X42163000Y-27623000D01*
X45863000Y-25623000D02*
X47863000Y-25623000D01*
X45863000Y-31623000D02*
X47863000Y-31623000D01*
%TO.C,J6*%
X189420500Y-34823500D02*
X189420500Y-36473500D01*
X189420500Y-38783500D02*
X189420500Y-40433500D01*
X189420500Y-42743500D02*
X189420500Y-44393500D01*
X189420500Y-46703500D02*
X189420500Y-48353500D01*
X189420500Y-50663500D02*
X189420500Y-52313500D01*
X189420500Y-54623500D02*
X189420500Y-56273500D01*
X189420500Y-58583500D02*
X189420500Y-60233500D01*
X189420500Y-62543500D02*
X189420500Y-64193500D01*
X189420500Y-66503500D02*
X189420500Y-68153500D01*
X189420500Y-70463500D02*
X189420500Y-72113500D01*
X189420500Y-74423500D02*
X189420500Y-76073500D01*
X189420500Y-78383500D02*
X189420500Y-80033500D01*
X189420500Y-82343500D02*
X189420500Y-83993500D01*
X189420500Y-86303500D02*
X189420500Y-87953500D01*
X189420500Y-90263500D02*
X189420500Y-91913500D01*
X189420500Y-94223500D02*
X189420500Y-95873500D01*
X189420500Y-98183500D02*
X189420500Y-99833500D01*
X189420500Y-102143500D02*
X189420500Y-103793500D01*
X189420500Y-106103500D02*
X189420500Y-107753500D01*
X189420500Y-110063500D02*
X189420500Y-111713500D01*
X189420500Y-114023500D02*
X189420500Y-115673500D01*
X189420500Y-117983500D02*
X189420500Y-119633500D01*
X194500500Y-34823500D02*
X194500500Y-36473500D01*
X194500500Y-38783500D02*
X194500500Y-40433500D01*
X194500500Y-42743500D02*
X194500500Y-44393500D01*
X194500500Y-46703500D02*
X194500500Y-48353500D01*
X194500500Y-50663500D02*
X194500500Y-52313500D01*
X194500500Y-54623500D02*
X194500500Y-56273500D01*
X194500500Y-58583500D02*
X194500500Y-60233500D01*
X194500500Y-62543500D02*
X194500500Y-64193500D01*
X194500500Y-66503500D02*
X194500500Y-68153500D01*
X194500500Y-70463500D02*
X194500500Y-72113500D01*
X194500500Y-74423500D02*
X194500500Y-76073500D01*
X194500500Y-78383500D02*
X194500500Y-80033500D01*
X194500500Y-82343500D02*
X194500500Y-83993500D01*
X194500500Y-86303500D02*
X194500500Y-87953500D01*
X194500500Y-90263500D02*
X194500500Y-91913500D01*
X194500500Y-94223500D02*
X194500500Y-95873500D01*
X194500500Y-98183500D02*
X194500500Y-99833500D01*
X194500500Y-102143500D02*
X194500500Y-103793500D01*
X194500500Y-106103500D02*
X194500500Y-107753500D01*
X194500500Y-110063500D02*
X194500500Y-111713500D01*
X194500500Y-114023500D02*
X194500500Y-115673500D01*
X194500500Y-117983500D02*
X194500500Y-119633500D01*
%TO.C,J2*%
X135264000Y-27945000D02*
X135264000Y-28945000D01*
X145264000Y-27945000D02*
X145264000Y-28945000D01*
D16*
%TO.C,SW3*%
X56294000Y-28166000D03*
X68294000Y-22166000D03*
X68294000Y-28166000D03*
%TO.C,U10*%
X74930000Y-23241000D03*
X77470000Y-23241000D03*
X80010000Y-23241000D03*
%TO.C,SW2*%
X144780000Y-78994000D03*
X144780000Y-83494000D03*
X151280000Y-78994000D03*
%TO.C,SW1*%
X124881500Y-79002500D03*
X124881500Y-83502500D03*
X131381500Y-79002500D03*
X131381500Y-83502500D03*
%TO.C,U9*%
X86868000Y-23241000D03*
X89408000Y-23241000D03*
X91948000Y-23241000D03*
%TO.C,SW3*%
X56294000Y-22166000D03*
%TO.C,SW2*%
X151280000Y-83494000D03*
D17*
%TO.C,J1*%
X156117000Y-31568000D02*
X154017000Y-31568000D01*
D18*
%TO.C,J6*%
X191960500Y-26073500D03*
X191960500Y-128383500D03*
M02*
