%TF.GenerationSoftware,KiCad,Pcbnew,(5.1.9-0-10_14)*%
%TF.CreationDate,2021-03-05T15:55:50-05:00*%
%TF.ProjectId,Apple1_2layer,4170706c-6531-45f3-926c-617965722e6b,rev?*%
%TF.SameCoordinates,Original*%
%TF.FileFunction,Legend,Top*%
%TF.FilePolarity,Positive*%
%FSLAX46Y46*%
G04 Gerber Fmt 4.6, Leading zero omitted, Abs format (unit mm)*
G04 Created by KiCad (PCBNEW (5.1.9-0-10_14)) date 2021-03-05 15:55:50*
%MOMM*%
%LPD*%
G01*
G04 APERTURE LIST*
%ADD10C,0.100000*%
%ADD11C,0.200000*%
%ADD12C,0.400000*%
%ADD13C,0.127000*%
%ADD14C,0.120000*%
%ADD15C,0.150000*%
%ADD16C,0.254000*%
%ADD17C,0.015000*%
G04 APERTURE END LIST*
D10*
%TO.C,U9*%
X146314000Y-55135000D02*
X149314000Y-55135000D01*
X146314000Y-47735000D02*
X146314000Y-55135000D01*
X149314000Y-47735000D02*
X146314000Y-47735000D01*
X217414000Y-55135000D02*
X214414000Y-55135000D01*
X217414000Y-47735000D02*
X217414000Y-55135000D01*
X214414000Y-47735000D02*
X217414000Y-47735000D01*
X198364000Y-55135000D02*
X200864000Y-55135000D01*
X198864000Y-47735000D02*
X200864000Y-47735000D01*
D11*
X213514000Y-45985000D02*
X213514000Y-45985000D01*
X213514000Y-45785000D02*
X213514000Y-45785000D01*
X213514000Y-45985000D02*
G75*
G02*
X213514000Y-45785000I0J100000D01*
G01*
X213514000Y-45785000D02*
G75*
G02*
X213514000Y-45985000I0J-100000D01*
G01*
%TO.C,J9*%
X171118000Y-37712000D02*
X171118000Y-37712000D01*
X170918000Y-37712000D02*
X170918000Y-37712000D01*
D10*
X183268000Y-28592000D02*
X183268000Y-27212000D01*
X183268000Y-27212000D02*
X168268000Y-27212000D01*
X168268000Y-27212000D02*
X168268000Y-28592000D01*
D11*
X170918000Y-37712000D02*
G75*
G02*
X171118000Y-37712000I100000J0D01*
G01*
X171118000Y-37712000D02*
G75*
G02*
X170918000Y-37712000I-100000J0D01*
G01*
D12*
%TO.C,J6*%
X161037000Y-39624000D02*
G75*
G03*
X161037000Y-39624000I-200000J0D01*
G01*
D13*
X159987000Y-26454000D02*
X159987000Y-41054000D01*
X145687000Y-26454000D02*
X159987000Y-26454000D01*
X145687000Y-41054000D02*
X145687000Y-26454000D01*
X159987000Y-41054000D02*
X145687000Y-41054000D01*
D14*
%TO.C,SW2*%
X208426000Y-92789000D02*
X208426000Y-91289000D01*
X207176000Y-88789000D02*
X202676000Y-88789000D01*
X201426000Y-91289000D02*
X201426000Y-92789000D01*
X202676000Y-95289000D02*
X207176000Y-95289000D01*
D10*
%TO.C,J3*%
X246046400Y-141045400D02*
X246046400Y-39070400D01*
X237346400Y-141045400D02*
X237346400Y-38735400D01*
D14*
%TO.C,U6*%
X200897800Y-124450600D02*
X200897800Y-118990600D01*
X200897800Y-118990600D02*
X149977800Y-118990600D01*
X149977800Y-118990600D02*
X149977800Y-131910600D01*
X149977800Y-131910600D02*
X200897800Y-131910600D01*
X200897800Y-131910600D02*
X200897800Y-126450600D01*
X200957800Y-116500600D02*
X149917800Y-116500600D01*
X149917800Y-116500600D02*
X149917800Y-134400600D01*
X149917800Y-134400600D02*
X200957800Y-134400600D01*
X200957800Y-134400600D02*
X200957800Y-116500600D01*
X200897800Y-126450600D02*
G75*
G02*
X200897800Y-124450600I0J1000000D01*
G01*
%TO.C,C4*%
X157507800Y-112088600D02*
X150267800Y-112088600D01*
X157507800Y-109348600D02*
X150267800Y-109348600D01*
X157507800Y-112088600D02*
X157507800Y-109348600D01*
X150267800Y-112088600D02*
X150267800Y-109348600D01*
%TO.C,C5*%
X105386000Y-67410000D02*
X105386000Y-64670000D01*
X112626000Y-67410000D02*
X112626000Y-64670000D01*
X112626000Y-64670000D02*
X105386000Y-64670000D01*
X112626000Y-67410000D02*
X105386000Y-67410000D01*
%TO.C,C6*%
X168048000Y-103101000D02*
X168048000Y-95861000D01*
X170788000Y-103101000D02*
X170788000Y-95861000D01*
X168048000Y-103101000D02*
X170788000Y-103101000D01*
X168048000Y-95861000D02*
X170788000Y-95861000D01*
%TO.C,C7*%
X125071000Y-67537000D02*
X125071000Y-64797000D01*
X132311000Y-67537000D02*
X132311000Y-64797000D01*
X132311000Y-64797000D02*
X125071000Y-64797000D01*
X132311000Y-67537000D02*
X125071000Y-67537000D01*
%TO.C,C8*%
X157554800Y-112777600D02*
X157554800Y-115517600D01*
X150314800Y-112777600D02*
X150314800Y-115517600D01*
X150314800Y-115517600D02*
X157554800Y-115517600D01*
X150314800Y-112777600D02*
X157554800Y-112777600D01*
%TO.C,C9*%
X168048000Y-90528000D02*
X168048000Y-83288000D01*
X170788000Y-90528000D02*
X170788000Y-83288000D01*
X168048000Y-90528000D02*
X170788000Y-90528000D01*
X168048000Y-83288000D02*
X170788000Y-83288000D01*
%TO.C,D1*%
X114335000Y-43634000D02*
X114335000Y-40694000D01*
X114095000Y-43634000D02*
X114095000Y-40694000D01*
X114215000Y-43634000D02*
X114215000Y-40694000D01*
X108455000Y-42164000D02*
X109675000Y-42164000D01*
X116335000Y-42164000D02*
X115115000Y-42164000D01*
X109675000Y-43634000D02*
X115115000Y-43634000D01*
X109675000Y-40694000D02*
X109675000Y-43634000D01*
X115115000Y-40694000D02*
X109675000Y-40694000D01*
X115115000Y-43634000D02*
X115115000Y-40694000D01*
%TO.C,D2*%
X92563000Y-51287000D02*
X92563000Y-54377000D01*
X97623000Y-52832000D02*
G75*
G03*
X97623000Y-52832000I-2500000J0D01*
G01*
X98113000Y-52832462D02*
G75*
G03*
X92563000Y-51287170I-2990000J462D01*
G01*
X98113000Y-52831538D02*
G75*
G02*
X92563000Y-54376830I-2990000J-462D01*
G01*
%TO.C,Q1*%
X180732000Y-43038000D02*
X180732000Y-44338000D01*
X178932000Y-44688000D02*
X178932000Y-43038000D01*
%TO.C,Q2*%
X181980000Y-44688000D02*
X181980000Y-43038000D01*
X183780000Y-43038000D02*
X183780000Y-44338000D01*
%TO.C,R1*%
X136526400Y-114471200D02*
X136196400Y-114471200D01*
X136196400Y-114471200D02*
X136196400Y-107931200D01*
X136196400Y-107931200D02*
X136526400Y-107931200D01*
X138606400Y-114471200D02*
X138936400Y-114471200D01*
X138936400Y-114471200D02*
X138936400Y-107931200D01*
X138936400Y-107931200D02*
X138606400Y-107931200D01*
%TO.C,R2*%
X135380400Y-107931200D02*
X135050400Y-107931200D01*
X135380400Y-114471200D02*
X135380400Y-107931200D01*
X135050400Y-114471200D02*
X135380400Y-114471200D01*
X132640400Y-107931200D02*
X132970400Y-107931200D01*
X132640400Y-114471200D02*
X132640400Y-107931200D01*
X132970400Y-114471200D02*
X132640400Y-114471200D01*
%TO.C,R3*%
X131824400Y-107931200D02*
X131494400Y-107931200D01*
X131824400Y-114471200D02*
X131824400Y-107931200D01*
X131494400Y-114471200D02*
X131824400Y-114471200D01*
X129084400Y-107931200D02*
X129414400Y-107931200D01*
X129084400Y-114471200D02*
X129084400Y-107931200D01*
X129414400Y-114471200D02*
X129084400Y-114471200D01*
%TO.C,R4*%
X151720800Y-106402000D02*
X151720800Y-106072000D01*
X151720800Y-106072000D02*
X158260800Y-106072000D01*
X158260800Y-106072000D02*
X158260800Y-106402000D01*
X151720800Y-108482000D02*
X151720800Y-108812000D01*
X151720800Y-108812000D02*
X158260800Y-108812000D01*
X158260800Y-108812000D02*
X158260800Y-108482000D01*
%TO.C,R5*%
X94266000Y-56796000D02*
X94266000Y-57126000D01*
X100806000Y-56796000D02*
X94266000Y-56796000D01*
X100806000Y-57126000D02*
X100806000Y-56796000D01*
X94266000Y-59536000D02*
X94266000Y-59206000D01*
X100806000Y-59536000D02*
X94266000Y-59536000D01*
X100806000Y-59206000D02*
X100806000Y-59536000D01*
%TO.C,U11*%
X187269000Y-41781000D02*
X187269000Y-40321000D01*
X190429000Y-41781000D02*
X190429000Y-39621000D01*
X190429000Y-41781000D02*
X189499000Y-41781000D01*
X187269000Y-41781000D02*
X188199000Y-41781000D01*
%TO.C,C10*%
X125579200Y-108738800D02*
X128319200Y-108738800D01*
X125579200Y-115978800D02*
X128319200Y-115978800D01*
X128319200Y-115978800D02*
X128319200Y-108738800D01*
X125579200Y-115978800D02*
X125579200Y-108738800D01*
%TO.C,J1*%
X97042000Y-41426000D02*
X95302000Y-41426000D01*
X97042000Y-39686000D02*
X97042000Y-41426000D01*
X87602000Y-41186000D02*
X87602000Y-39186000D01*
X90402000Y-41186000D02*
X87602000Y-41186000D01*
X96802000Y-41186000D02*
X94002000Y-41186000D01*
X96802000Y-26586000D02*
X96802000Y-41186000D01*
X87602000Y-26586000D02*
X96802000Y-26586000D01*
X87602000Y-35586000D02*
X87602000Y-26586000D01*
%TO.C,J4*%
X233181200Y-46879200D02*
X230521200Y-46879200D01*
X233181200Y-46939200D02*
X233181200Y-46879200D01*
X230521200Y-46939200D02*
X230521200Y-46879200D01*
X233181200Y-46939200D02*
X230521200Y-46939200D01*
X233181200Y-48209200D02*
X233181200Y-49539200D01*
X233181200Y-49539200D02*
X231851200Y-49539200D01*
%TO.C,J5*%
X233232000Y-56600400D02*
X231902000Y-56600400D01*
X233232000Y-55270400D02*
X233232000Y-56600400D01*
X233232000Y-54000400D02*
X230572000Y-54000400D01*
X230572000Y-54000400D02*
X230572000Y-53940400D01*
X233232000Y-54000400D02*
X233232000Y-53940400D01*
X233232000Y-53940400D02*
X230572000Y-53940400D01*
D13*
%TO.C,J7*%
X202660000Y-40080000D02*
X201660000Y-40080000D01*
X204810000Y-21370000D02*
X204810000Y-30230000D01*
X197120000Y-20980000D02*
X204420000Y-20980000D01*
X196510000Y-30230000D02*
X196510000Y-21590000D01*
D11*
X206273000Y-34470000D02*
G75*
G03*
X206273000Y-34470000I-100000J0D01*
G01*
D13*
X199660000Y-40080000D02*
X198660000Y-40080000D01*
X195660000Y-40480000D02*
X195660000Y-32480000D01*
X198660000Y-40480000D02*
X195660000Y-40480000D01*
X198660000Y-40080000D02*
X198660000Y-40480000D01*
X202660000Y-40480000D02*
X202660000Y-40080000D01*
X205660000Y-40480000D02*
X202660000Y-40480000D01*
X203660000Y-30480000D02*
X197660000Y-30480000D01*
X205660000Y-40480000D02*
X205660000Y-32480000D01*
X196510000Y-21590000D02*
G75*
G02*
X197120000Y-20980000I610000J0D01*
G01*
X204420000Y-20980000D02*
G75*
G02*
X204810000Y-21370000I0J-390000D01*
G01*
D14*
%TO.C,J8*%
X220244000Y-32126000D02*
X220244000Y-36576000D01*
X220244000Y-37976000D02*
X220244000Y-40276000D01*
X220244000Y-41676000D02*
X220244000Y-42396000D01*
X220244000Y-42396000D02*
X222924000Y-42396000D01*
X225224000Y-42396000D02*
X228894000Y-42396000D01*
X231194000Y-42396000D02*
X232424000Y-42396000D01*
X232424000Y-42396000D02*
X232424000Y-32576000D01*
X221724000Y-30756000D02*
X222584000Y-30756000D01*
D11*
%TO.C,SW1*%
X110009000Y-37144000D02*
X110009000Y-37144000D01*
X110209000Y-37144000D02*
X110209000Y-37144000D01*
D10*
X110109000Y-36544000D02*
X102109000Y-36544000D01*
X99209000Y-31294000D02*
X99209000Y-35294000D01*
X110109000Y-30044000D02*
X102109000Y-30044000D01*
X113009000Y-35294000D02*
X113009000Y-31294000D01*
D11*
X110009000Y-37144000D02*
G75*
G02*
X110209000Y-37144000I100000J0D01*
G01*
X110209000Y-37144000D02*
G75*
G02*
X110009000Y-37144000I-100000J0D01*
G01*
D14*
%TO.C,SW3*%
X216897000Y-91234000D02*
X216897000Y-92734000D01*
X218147000Y-95234000D02*
X222647000Y-95234000D01*
X223897000Y-92734000D02*
X223897000Y-91234000D01*
X222647000Y-88734000D02*
X218147000Y-88734000D01*
%TO.C,U1*%
X166286800Y-90839600D02*
X166286800Y-80559600D01*
X145726800Y-90839600D02*
X166286800Y-90839600D01*
X145726800Y-80559600D02*
X145726800Y-90839600D01*
X166286800Y-80559600D02*
X145726800Y-80559600D01*
X166226800Y-88349600D02*
X166226800Y-86699600D01*
X145786800Y-88349600D02*
X166226800Y-88349600D01*
X145786800Y-83049600D02*
X145786800Y-88349600D01*
X166226800Y-83049600D02*
X145786800Y-83049600D01*
X166226800Y-84699600D02*
X166226800Y-83049600D01*
X166226800Y-86699600D02*
G75*
G02*
X166226800Y-84699600I0J1000000D01*
G01*
%TO.C,U2*%
X130158000Y-68774000D02*
X124698000Y-68774000D01*
X130158000Y-104454000D02*
X130158000Y-68774000D01*
X117238000Y-104454000D02*
X130158000Y-104454000D01*
X117238000Y-68774000D02*
X117238000Y-104454000D01*
X122698000Y-68774000D02*
X117238000Y-68774000D01*
X124698000Y-68774000D02*
G75*
G02*
X122698000Y-68774000I-1000000J0D01*
G01*
%TO.C,U3*%
X146093800Y-134400600D02*
X146093800Y-116500600D01*
X95053800Y-134400600D02*
X146093800Y-134400600D01*
X95053800Y-116500600D02*
X95053800Y-134400600D01*
X146093800Y-116500600D02*
X95053800Y-116500600D01*
X146033800Y-131910600D02*
X146033800Y-126450600D01*
X95113800Y-131910600D02*
X146033800Y-131910600D01*
X95113800Y-118990600D02*
X95113800Y-131910600D01*
X146033800Y-118990600D02*
X95113800Y-118990600D01*
X146033800Y-124450600D02*
X146033800Y-118990600D01*
X146033800Y-126450600D02*
G75*
G02*
X146033800Y-124450600I0J1000000D01*
G01*
%TO.C,U4*%
X166286800Y-103336400D02*
X166286800Y-93056400D01*
X148266800Y-103336400D02*
X166286800Y-103336400D01*
X148266800Y-93056400D02*
X148266800Y-103336400D01*
X166286800Y-93056400D02*
X148266800Y-93056400D01*
X166226800Y-100846400D02*
X166226800Y-99196400D01*
X148326800Y-100846400D02*
X166226800Y-100846400D01*
X148326800Y-95546400D02*
X148326800Y-100846400D01*
X166226800Y-95546400D02*
X148326800Y-95546400D01*
X166226800Y-97196400D02*
X166226800Y-95546400D01*
X166226800Y-99196400D02*
G75*
G02*
X166226800Y-97196400I0J1000000D01*
G01*
%TO.C,U7*%
X114895000Y-30766000D02*
X125135000Y-30766000D01*
X114895000Y-35407000D02*
X125135000Y-35407000D01*
X114895000Y-30766000D02*
X114895000Y-35407000D01*
X125135000Y-30766000D02*
X125135000Y-35407000D01*
X114895000Y-32276000D02*
X125135000Y-32276000D01*
X118165000Y-30766000D02*
X118165000Y-32276000D01*
X121866000Y-30766000D02*
X121866000Y-32276000D01*
%TO.C,U8*%
X103038400Y-68774000D02*
X97578400Y-68774000D01*
X97578400Y-68774000D02*
X97578400Y-104454000D01*
X97578400Y-104454000D02*
X110498400Y-104454000D01*
X110498400Y-104454000D02*
X110498400Y-68774000D01*
X110498400Y-68774000D02*
X105038400Y-68774000D01*
X105038400Y-68774000D02*
G75*
G02*
X103038400Y-68774000I-1000000J0D01*
G01*
D15*
%TO.C,U10*%
X180074000Y-39509000D02*
X178924000Y-39509000D01*
X180074000Y-41009000D02*
X180074000Y-39509000D01*
X178574000Y-41009000D02*
X180074000Y-41009000D01*
X178574000Y-39859000D02*
X178574000Y-41009000D01*
X178924000Y-39509000D02*
X178574000Y-39859000D01*
D14*
%TO.C,C16*%
X217422000Y-32023267D02*
X217422000Y-31730733D01*
X218442000Y-32023267D02*
X218442000Y-31730733D01*
%TO.C,C17*%
X191133000Y-41167267D02*
X191133000Y-40874733D01*
X192153000Y-41167267D02*
X192153000Y-40874733D01*
%TO.C,C18*%
X185672000Y-40874733D02*
X185672000Y-41167267D01*
X186692000Y-40874733D02*
X186692000Y-41167267D01*
%TO.C,R26*%
X205852500Y-60451276D02*
X205852500Y-60960724D01*
X206897500Y-60451276D02*
X206897500Y-60960724D01*
%TO.C,R27*%
X204992500Y-60451276D02*
X204992500Y-60960724D01*
X203947500Y-60451276D02*
X203947500Y-60960724D01*
%TO.C,C13*%
X143078252Y-47314000D02*
X141655748Y-47314000D01*
X143078252Y-45494000D02*
X141655748Y-45494000D01*
%TO.C,C14*%
X143078252Y-47985000D02*
X141655748Y-47985000D01*
X143078252Y-49805000D02*
X141655748Y-49805000D01*
%TO.C,C15*%
X143078252Y-52345000D02*
X141655748Y-52345000D01*
X143078252Y-50525000D02*
X141655748Y-50525000D01*
%TO.C,R29*%
X179592500Y-61484742D02*
X179592500Y-61959258D01*
X178547500Y-61484742D02*
X178547500Y-61959258D01*
%TO.C,R6*%
X196581500Y-65532724D02*
X196581500Y-65023276D01*
X197626500Y-65532724D02*
X197626500Y-65023276D01*
%TO.C,R7*%
X195848500Y-65532724D02*
X195848500Y-65023276D01*
X194803500Y-65532724D02*
X194803500Y-65023276D01*
%TO.C,R8*%
X193816500Y-65532724D02*
X193816500Y-65023276D01*
X192771500Y-65532724D02*
X192771500Y-65023276D01*
%TO.C,R9*%
X190739500Y-65532724D02*
X190739500Y-65023276D01*
X191784500Y-65532724D02*
X191784500Y-65023276D01*
%TO.C,R10*%
X188707500Y-65532724D02*
X188707500Y-65023276D01*
X189752500Y-65532724D02*
X189752500Y-65023276D01*
%TO.C,R11*%
X187720500Y-65532724D02*
X187720500Y-65023276D01*
X186675500Y-65532724D02*
X186675500Y-65023276D01*
%TO.C,R12*%
X184643500Y-65532724D02*
X184643500Y-65023276D01*
X185688500Y-65532724D02*
X185688500Y-65023276D01*
%TO.C,R13*%
X183656500Y-65532724D02*
X183656500Y-65023276D01*
X182611500Y-65532724D02*
X182611500Y-65023276D01*
%TO.C,R14*%
X180579500Y-65532724D02*
X180579500Y-65023276D01*
X181624500Y-65532724D02*
X181624500Y-65023276D01*
%TO.C,R15*%
X219822500Y-48259276D02*
X219822500Y-48768724D01*
X220867500Y-48259276D02*
X220867500Y-48768724D01*
%TO.C,R16*%
X196581500Y-61594276D02*
X196581500Y-62103724D01*
X197626500Y-61594276D02*
X197626500Y-62103724D01*
%TO.C,R17*%
X194803500Y-61594276D02*
X194803500Y-62103724D01*
X195848500Y-61594276D02*
X195848500Y-62103724D01*
%TO.C,R18*%
X193816500Y-61594276D02*
X193816500Y-62103724D01*
X192771500Y-61594276D02*
X192771500Y-62103724D01*
%TO.C,R20*%
X190739500Y-61594276D02*
X190739500Y-62103724D01*
X191784500Y-61594276D02*
X191784500Y-62103724D01*
%TO.C,R21*%
X189752500Y-61594276D02*
X189752500Y-62103724D01*
X188707500Y-61594276D02*
X188707500Y-62103724D01*
%TO.C,R22*%
X186675500Y-61594276D02*
X186675500Y-62103724D01*
X187720500Y-61594276D02*
X187720500Y-62103724D01*
%TO.C,R23*%
X185688500Y-61594276D02*
X185688500Y-62103724D01*
X184643500Y-61594276D02*
X184643500Y-62103724D01*
%TO.C,R24*%
X182611500Y-61594276D02*
X182611500Y-62103724D01*
X183656500Y-61594276D02*
X183656500Y-62103724D01*
%TO.C,R25*%
X181624500Y-61594276D02*
X181624500Y-62103724D01*
X180579500Y-61594276D02*
X180579500Y-62103724D01*
%TO.C,R28*%
X219822500Y-52197724D02*
X219822500Y-51688276D01*
X220867500Y-52197724D02*
X220867500Y-51688276D01*
%TO.C,C2*%
X130790733Y-54231000D02*
X131083267Y-54231000D01*
X130790733Y-53211000D02*
X131083267Y-53211000D01*
%TO.C,C11*%
X128014000Y-48406267D02*
X128014000Y-48113733D01*
X129034000Y-48406267D02*
X129034000Y-48113733D01*
%TO.C,C12*%
X134368000Y-47224733D02*
X134368000Y-47517267D01*
X133348000Y-47224733D02*
X133348000Y-47517267D01*
%TO.C,C19*%
X137756000Y-54717733D02*
X137756000Y-55010267D01*
X138776000Y-54717733D02*
X138776000Y-55010267D01*
%TO.C,C20*%
X129792000Y-42144733D02*
X129792000Y-42437267D01*
X130812000Y-42144733D02*
X130812000Y-42437267D01*
%TO.C,C21*%
X142120233Y-60581000D02*
X142412767Y-60581000D01*
X142120233Y-59561000D02*
X142412767Y-59561000D01*
%TO.C,C22*%
X142513267Y-54993000D02*
X142220733Y-54993000D01*
X142513267Y-53973000D02*
X142220733Y-53973000D01*
%TO.C,L1*%
X129237000Y-45438000D02*
X129237000Y-44413000D01*
X129237000Y-40668000D02*
X129237000Y-41693000D01*
X129237000Y-45438000D02*
X128212000Y-45438000D01*
X129237000Y-40668000D02*
X128212000Y-40668000D01*
X125017000Y-40668000D02*
X126042000Y-40668000D01*
X125017000Y-40668000D02*
X125017000Y-41693000D01*
X125017000Y-45438000D02*
X125017000Y-44413000D01*
X125017000Y-45438000D02*
X126042000Y-45438000D01*
%TO.C,L2*%
X137365000Y-50066000D02*
X136340000Y-50066000D01*
X137365000Y-50066000D02*
X137365000Y-51091000D01*
X137365000Y-54836000D02*
X137365000Y-53811000D01*
X137365000Y-54836000D02*
X136340000Y-54836000D01*
X133145000Y-54836000D02*
X134170000Y-54836000D01*
X133145000Y-50066000D02*
X134170000Y-50066000D01*
X133145000Y-54836000D02*
X133145000Y-53811000D01*
X133145000Y-50066000D02*
X133145000Y-51091000D01*
%TO.C,R19*%
X130826742Y-52592500D02*
X131301258Y-52592500D01*
X130826742Y-51547500D02*
X131301258Y-51547500D01*
%TO.C,U5*%
X129581000Y-46252000D02*
X129581000Y-49252000D01*
X132801000Y-47752000D02*
X132801000Y-49252000D01*
%TO.C,U12*%
X143267000Y-55540000D02*
X140817000Y-55540000D01*
X141467000Y-58760000D02*
X143267000Y-58760000D01*
%TO.C,C1*%
X118217733Y-36447000D02*
X118510267Y-36447000D01*
X118217733Y-37467000D02*
X118510267Y-37467000D01*
%TO.C,C3*%
X122066267Y-36447000D02*
X121773733Y-36447000D01*
X122066267Y-37467000D02*
X121773733Y-37467000D01*
%TO.C,U9*%
D16*
X180896380Y-58414523D02*
X180896380Y-59442619D01*
X180956857Y-59563571D01*
X181017333Y-59624047D01*
X181138285Y-59684523D01*
X181380190Y-59684523D01*
X181501142Y-59624047D01*
X181561619Y-59563571D01*
X181622095Y-59442619D01*
X181622095Y-58414523D01*
X182287333Y-59684523D02*
X182529238Y-59684523D01*
X182650190Y-59624047D01*
X182710666Y-59563571D01*
X182831619Y-59382142D01*
X182892095Y-59140238D01*
X182892095Y-58656428D01*
X182831619Y-58535476D01*
X182771142Y-58475000D01*
X182650190Y-58414523D01*
X182408285Y-58414523D01*
X182287333Y-58475000D01*
X182226857Y-58535476D01*
X182166380Y-58656428D01*
X182166380Y-58958809D01*
X182226857Y-59079761D01*
X182287333Y-59140238D01*
X182408285Y-59200714D01*
X182650190Y-59200714D01*
X182771142Y-59140238D01*
X182831619Y-59079761D01*
X182892095Y-58958809D01*
%TO.C,J9*%
X175344666Y-31816523D02*
X175344666Y-32723666D01*
X175284190Y-32905095D01*
X175163238Y-33026047D01*
X174981809Y-33086523D01*
X174860857Y-33086523D01*
X176009904Y-33086523D02*
X176251809Y-33086523D01*
X176372761Y-33026047D01*
X176433238Y-32965571D01*
X176554190Y-32784142D01*
X176614666Y-32542238D01*
X176614666Y-32058428D01*
X176554190Y-31937476D01*
X176493714Y-31877000D01*
X176372761Y-31816523D01*
X176130857Y-31816523D01*
X176009904Y-31877000D01*
X175949428Y-31937476D01*
X175888952Y-32058428D01*
X175888952Y-32360809D01*
X175949428Y-32481761D01*
X176009904Y-32542238D01*
X176130857Y-32602714D01*
X176372761Y-32602714D01*
X176493714Y-32542238D01*
X176554190Y-32481761D01*
X176614666Y-32360809D01*
%TO.C,J6*%
D17*
X156729255Y-41614341D02*
X156729255Y-42329689D01*
X156681565Y-42472759D01*
X156586185Y-42568139D01*
X156443116Y-42615829D01*
X156347736Y-42615829D01*
X157635363Y-41614341D02*
X157444604Y-41614341D01*
X157349224Y-41662031D01*
X157301534Y-41709720D01*
X157206154Y-41852790D01*
X157158464Y-42043550D01*
X157158464Y-42425069D01*
X157206154Y-42520449D01*
X157253844Y-42568139D01*
X157349224Y-42615829D01*
X157539984Y-42615829D01*
X157635363Y-42568139D01*
X157683053Y-42520449D01*
X157730743Y-42425069D01*
X157730743Y-42186619D01*
X157683053Y-42091240D01*
X157635363Y-42043550D01*
X157539984Y-41995860D01*
X157349224Y-41995860D01*
X157253844Y-42043550D01*
X157206154Y-42091240D01*
X157158464Y-42186619D01*
%TO.C,SW2*%
D15*
X203592666Y-88193761D02*
X203735523Y-88241380D01*
X203973619Y-88241380D01*
X204068857Y-88193761D01*
X204116476Y-88146142D01*
X204164095Y-88050904D01*
X204164095Y-87955666D01*
X204116476Y-87860428D01*
X204068857Y-87812809D01*
X203973619Y-87765190D01*
X203783142Y-87717571D01*
X203687904Y-87669952D01*
X203640285Y-87622333D01*
X203592666Y-87527095D01*
X203592666Y-87431857D01*
X203640285Y-87336619D01*
X203687904Y-87289000D01*
X203783142Y-87241380D01*
X204021238Y-87241380D01*
X204164095Y-87289000D01*
X204497428Y-87241380D02*
X204735523Y-88241380D01*
X204926000Y-87527095D01*
X205116476Y-88241380D01*
X205354571Y-87241380D01*
X205687904Y-87336619D02*
X205735523Y-87289000D01*
X205830761Y-87241380D01*
X206068857Y-87241380D01*
X206164095Y-87289000D01*
X206211714Y-87336619D01*
X206259333Y-87431857D01*
X206259333Y-87527095D01*
X206211714Y-87669952D01*
X205640285Y-88241380D01*
X206259333Y-88241380D01*
%TO.C,J3*%
D16*
X241007923Y-90313733D02*
X241915066Y-90313733D01*
X242096495Y-90374209D01*
X242217447Y-90495161D01*
X242277923Y-90676590D01*
X242277923Y-90797542D01*
X241007923Y-89829923D02*
X241007923Y-89043733D01*
X241491733Y-89467066D01*
X241491733Y-89285638D01*
X241552209Y-89164685D01*
X241612685Y-89104209D01*
X241733638Y-89043733D01*
X242036019Y-89043733D01*
X242156971Y-89104209D01*
X242217447Y-89164685D01*
X242277923Y-89285638D01*
X242277923Y-89648495D01*
X242217447Y-89769447D01*
X242156971Y-89829923D01*
%TO.C,U6*%
D15*
X201350180Y-126212504D02*
X202159704Y-126212504D01*
X202254942Y-126164885D01*
X202302561Y-126117266D01*
X202350180Y-126022028D01*
X202350180Y-125831552D01*
X202302561Y-125736314D01*
X202254942Y-125688695D01*
X202159704Y-125641076D01*
X201350180Y-125641076D01*
X201350180Y-124736314D02*
X201350180Y-124926790D01*
X201397800Y-125022028D01*
X201445419Y-125069647D01*
X201588276Y-125164885D01*
X201778752Y-125212504D01*
X202159704Y-125212504D01*
X202254942Y-125164885D01*
X202302561Y-125117266D01*
X202350180Y-125022028D01*
X202350180Y-124831552D01*
X202302561Y-124736314D01*
X202254942Y-124688695D01*
X202159704Y-124641076D01*
X201921609Y-124641076D01*
X201826371Y-124688695D01*
X201778752Y-124736314D01*
X201731133Y-124831552D01*
X201731133Y-125022028D01*
X201778752Y-125117266D01*
X201826371Y-125164885D01*
X201921609Y-125212504D01*
%TO.C,C4*%
X153721133Y-113575742D02*
X153673514Y-113623361D01*
X153530657Y-113670980D01*
X153435419Y-113670980D01*
X153292561Y-113623361D01*
X153197323Y-113528123D01*
X153149704Y-113432885D01*
X153102085Y-113242409D01*
X153102085Y-113099552D01*
X153149704Y-112909076D01*
X153197323Y-112813838D01*
X153292561Y-112718600D01*
X153435419Y-112670980D01*
X153530657Y-112670980D01*
X153673514Y-112718600D01*
X153721133Y-112766219D01*
X154578276Y-113004314D02*
X154578276Y-113670980D01*
X154340180Y-112623361D02*
X154102085Y-113337647D01*
X154721133Y-113337647D01*
%TO.C,C5*%
X108839333Y-68897142D02*
X108791714Y-68944761D01*
X108648857Y-68992380D01*
X108553619Y-68992380D01*
X108410761Y-68944761D01*
X108315523Y-68849523D01*
X108267904Y-68754285D01*
X108220285Y-68563809D01*
X108220285Y-68420952D01*
X108267904Y-68230476D01*
X108315523Y-68135238D01*
X108410761Y-68040000D01*
X108553619Y-67992380D01*
X108648857Y-67992380D01*
X108791714Y-68040000D01*
X108839333Y-68087619D01*
X109744095Y-67992380D02*
X109267904Y-67992380D01*
X109220285Y-68468571D01*
X109267904Y-68420952D01*
X109363142Y-68373333D01*
X109601238Y-68373333D01*
X109696476Y-68420952D01*
X109744095Y-68468571D01*
X109791714Y-68563809D01*
X109791714Y-68801904D01*
X109744095Y-68897142D01*
X109696476Y-68944761D01*
X109601238Y-68992380D01*
X109363142Y-68992380D01*
X109267904Y-68944761D01*
X109220285Y-68897142D01*
%TO.C,C6*%
X167275142Y-99647666D02*
X167322761Y-99695285D01*
X167370380Y-99838142D01*
X167370380Y-99933380D01*
X167322761Y-100076238D01*
X167227523Y-100171476D01*
X167132285Y-100219095D01*
X166941809Y-100266714D01*
X166798952Y-100266714D01*
X166608476Y-100219095D01*
X166513238Y-100171476D01*
X166418000Y-100076238D01*
X166370380Y-99933380D01*
X166370380Y-99838142D01*
X166418000Y-99695285D01*
X166465619Y-99647666D01*
X166370380Y-98790523D02*
X166370380Y-98981000D01*
X166418000Y-99076238D01*
X166465619Y-99123857D01*
X166608476Y-99219095D01*
X166798952Y-99266714D01*
X167179904Y-99266714D01*
X167275142Y-99219095D01*
X167322761Y-99171476D01*
X167370380Y-99076238D01*
X167370380Y-98885761D01*
X167322761Y-98790523D01*
X167275142Y-98742904D01*
X167179904Y-98695285D01*
X166941809Y-98695285D01*
X166846571Y-98742904D01*
X166798952Y-98790523D01*
X166751333Y-98885761D01*
X166751333Y-99076238D01*
X166798952Y-99171476D01*
X166846571Y-99219095D01*
X166941809Y-99266714D01*
%TO.C,C7*%
X128524333Y-69024142D02*
X128476714Y-69071761D01*
X128333857Y-69119380D01*
X128238619Y-69119380D01*
X128095761Y-69071761D01*
X128000523Y-68976523D01*
X127952904Y-68881285D01*
X127905285Y-68690809D01*
X127905285Y-68547952D01*
X127952904Y-68357476D01*
X128000523Y-68262238D01*
X128095761Y-68167000D01*
X128238619Y-68119380D01*
X128333857Y-68119380D01*
X128476714Y-68167000D01*
X128524333Y-68214619D01*
X128857666Y-68119380D02*
X129524333Y-68119380D01*
X129095761Y-69119380D01*
%TO.C,C8*%
X153768133Y-112004742D02*
X153720514Y-112052361D01*
X153577657Y-112099980D01*
X153482419Y-112099980D01*
X153339561Y-112052361D01*
X153244323Y-111957123D01*
X153196704Y-111861885D01*
X153149085Y-111671409D01*
X153149085Y-111528552D01*
X153196704Y-111338076D01*
X153244323Y-111242838D01*
X153339561Y-111147600D01*
X153482419Y-111099980D01*
X153577657Y-111099980D01*
X153720514Y-111147600D01*
X153768133Y-111195219D01*
X154339561Y-111528552D02*
X154244323Y-111480933D01*
X154196704Y-111433314D01*
X154149085Y-111338076D01*
X154149085Y-111290457D01*
X154196704Y-111195219D01*
X154244323Y-111147600D01*
X154339561Y-111099980D01*
X154530038Y-111099980D01*
X154625276Y-111147600D01*
X154672895Y-111195219D01*
X154720514Y-111290457D01*
X154720514Y-111338076D01*
X154672895Y-111433314D01*
X154625276Y-111480933D01*
X154530038Y-111528552D01*
X154339561Y-111528552D01*
X154244323Y-111576171D01*
X154196704Y-111623790D01*
X154149085Y-111719028D01*
X154149085Y-111909504D01*
X154196704Y-112004742D01*
X154244323Y-112052361D01*
X154339561Y-112099980D01*
X154530038Y-112099980D01*
X154625276Y-112052361D01*
X154672895Y-112004742D01*
X154720514Y-111909504D01*
X154720514Y-111719028D01*
X154672895Y-111623790D01*
X154625276Y-111576171D01*
X154530038Y-111528552D01*
%TO.C,C9*%
X167275142Y-87074666D02*
X167322761Y-87122285D01*
X167370380Y-87265142D01*
X167370380Y-87360380D01*
X167322761Y-87503238D01*
X167227523Y-87598476D01*
X167132285Y-87646095D01*
X166941809Y-87693714D01*
X166798952Y-87693714D01*
X166608476Y-87646095D01*
X166513238Y-87598476D01*
X166418000Y-87503238D01*
X166370380Y-87360380D01*
X166370380Y-87265142D01*
X166418000Y-87122285D01*
X166465619Y-87074666D01*
X167370380Y-86598476D02*
X167370380Y-86408000D01*
X167322761Y-86312761D01*
X167275142Y-86265142D01*
X167132285Y-86169904D01*
X166941809Y-86122285D01*
X166560857Y-86122285D01*
X166465619Y-86169904D01*
X166418000Y-86217523D01*
X166370380Y-86312761D01*
X166370380Y-86503238D01*
X166418000Y-86598476D01*
X166465619Y-86646095D01*
X166560857Y-86693714D01*
X166798952Y-86693714D01*
X166894190Y-86646095D01*
X166941809Y-86598476D01*
X166989428Y-86503238D01*
X166989428Y-86312761D01*
X166941809Y-86217523D01*
X166894190Y-86169904D01*
X166798952Y-86122285D01*
%TO.C,D1*%
X111656904Y-45086380D02*
X111656904Y-44086380D01*
X111895000Y-44086380D01*
X112037857Y-44134000D01*
X112133095Y-44229238D01*
X112180714Y-44324476D01*
X112228333Y-44514952D01*
X112228333Y-44657809D01*
X112180714Y-44848285D01*
X112133095Y-44943523D01*
X112037857Y-45038761D01*
X111895000Y-45086380D01*
X111656904Y-45086380D01*
X113180714Y-45086380D02*
X112609285Y-45086380D01*
X112895000Y-45086380D02*
X112895000Y-44086380D01*
X112799761Y-44229238D01*
X112704523Y-44324476D01*
X112609285Y-44372095D01*
X117213095Y-44516380D02*
X117213095Y-43516380D01*
X117784523Y-44516380D02*
X117355952Y-43944952D01*
X117784523Y-43516380D02*
X117213095Y-44087809D01*
%TO.C,D2*%
X94384904Y-49324380D02*
X94384904Y-48324380D01*
X94623000Y-48324380D01*
X94765857Y-48372000D01*
X94861095Y-48467238D01*
X94908714Y-48562476D01*
X94956333Y-48752952D01*
X94956333Y-48895809D01*
X94908714Y-49086285D01*
X94861095Y-49181523D01*
X94765857Y-49276761D01*
X94623000Y-49324380D01*
X94384904Y-49324380D01*
X95337285Y-48419619D02*
X95384904Y-48372000D01*
X95480142Y-48324380D01*
X95718238Y-48324380D01*
X95813476Y-48372000D01*
X95861095Y-48419619D01*
X95908714Y-48514857D01*
X95908714Y-48610095D01*
X95861095Y-48752952D01*
X95289666Y-49324380D01*
X95908714Y-49324380D01*
%TO.C,Q1*%
X178679619Y-43783238D02*
X178632000Y-43878476D01*
X178536761Y-43973714D01*
X178393904Y-44116571D01*
X178346285Y-44211809D01*
X178346285Y-44307047D01*
X178584380Y-44259428D02*
X178536761Y-44354666D01*
X178441523Y-44449904D01*
X178251047Y-44497523D01*
X177917714Y-44497523D01*
X177727238Y-44449904D01*
X177632000Y-44354666D01*
X177584380Y-44259428D01*
X177584380Y-44068952D01*
X177632000Y-43973714D01*
X177727238Y-43878476D01*
X177917714Y-43830857D01*
X178251047Y-43830857D01*
X178441523Y-43878476D01*
X178536761Y-43973714D01*
X178584380Y-44068952D01*
X178584380Y-44259428D01*
X178584380Y-42878476D02*
X178584380Y-43449904D01*
X178584380Y-43164190D02*
X177584380Y-43164190D01*
X177727238Y-43259428D01*
X177822476Y-43354666D01*
X177870095Y-43449904D01*
%TO.C,Q2*%
X181727619Y-43783238D02*
X181680000Y-43878476D01*
X181584761Y-43973714D01*
X181441904Y-44116571D01*
X181394285Y-44211809D01*
X181394285Y-44307047D01*
X181632380Y-44259428D02*
X181584761Y-44354666D01*
X181489523Y-44449904D01*
X181299047Y-44497523D01*
X180965714Y-44497523D01*
X180775238Y-44449904D01*
X180680000Y-44354666D01*
X180632380Y-44259428D01*
X180632380Y-44068952D01*
X180680000Y-43973714D01*
X180775238Y-43878476D01*
X180965714Y-43830857D01*
X181299047Y-43830857D01*
X181489523Y-43878476D01*
X181584761Y-43973714D01*
X181632380Y-44068952D01*
X181632380Y-44259428D01*
X180727619Y-43449904D02*
X180680000Y-43402285D01*
X180632380Y-43307047D01*
X180632380Y-43068952D01*
X180680000Y-42973714D01*
X180727619Y-42926095D01*
X180822857Y-42878476D01*
X180918095Y-42878476D01*
X181060952Y-42926095D01*
X181632380Y-43497523D01*
X181632380Y-42878476D01*
%TO.C,R1*%
X135648780Y-111367866D02*
X135172590Y-111701200D01*
X135648780Y-111939295D02*
X134648780Y-111939295D01*
X134648780Y-111558342D01*
X134696400Y-111463104D01*
X134744019Y-111415485D01*
X134839257Y-111367866D01*
X134982114Y-111367866D01*
X135077352Y-111415485D01*
X135124971Y-111463104D01*
X135172590Y-111558342D01*
X135172590Y-111939295D01*
X135648780Y-110415485D02*
X135648780Y-110986914D01*
X135648780Y-110701200D02*
X134648780Y-110701200D01*
X134791638Y-110796438D01*
X134886876Y-110891676D01*
X134934495Y-110986914D01*
%TO.C,R2*%
X132092780Y-111367866D02*
X131616590Y-111701200D01*
X132092780Y-111939295D02*
X131092780Y-111939295D01*
X131092780Y-111558342D01*
X131140400Y-111463104D01*
X131188019Y-111415485D01*
X131283257Y-111367866D01*
X131426114Y-111367866D01*
X131521352Y-111415485D01*
X131568971Y-111463104D01*
X131616590Y-111558342D01*
X131616590Y-111939295D01*
X131188019Y-110986914D02*
X131140400Y-110939295D01*
X131092780Y-110844057D01*
X131092780Y-110605961D01*
X131140400Y-110510723D01*
X131188019Y-110463104D01*
X131283257Y-110415485D01*
X131378495Y-110415485D01*
X131521352Y-110463104D01*
X132092780Y-111034533D01*
X132092780Y-110415485D01*
%TO.C,R3*%
X128536780Y-111367866D02*
X128060590Y-111701200D01*
X128536780Y-111939295D02*
X127536780Y-111939295D01*
X127536780Y-111558342D01*
X127584400Y-111463104D01*
X127632019Y-111415485D01*
X127727257Y-111367866D01*
X127870114Y-111367866D01*
X127965352Y-111415485D01*
X128012971Y-111463104D01*
X128060590Y-111558342D01*
X128060590Y-111939295D01*
X127536780Y-111034533D02*
X127536780Y-110415485D01*
X127917733Y-110748819D01*
X127917733Y-110605961D01*
X127965352Y-110510723D01*
X128012971Y-110463104D01*
X128108209Y-110415485D01*
X128346304Y-110415485D01*
X128441542Y-110463104D01*
X128489161Y-110510723D01*
X128536780Y-110605961D01*
X128536780Y-110891676D01*
X128489161Y-110986914D01*
X128441542Y-111034533D01*
%TO.C,R4*%
X154824133Y-105524380D02*
X154490800Y-105048190D01*
X154252704Y-105524380D02*
X154252704Y-104524380D01*
X154633657Y-104524380D01*
X154728895Y-104572000D01*
X154776514Y-104619619D01*
X154824133Y-104714857D01*
X154824133Y-104857714D01*
X154776514Y-104952952D01*
X154728895Y-105000571D01*
X154633657Y-105048190D01*
X154252704Y-105048190D01*
X155681276Y-104857714D02*
X155681276Y-105524380D01*
X155443180Y-104476761D02*
X155205085Y-105191047D01*
X155824133Y-105191047D01*
%TO.C,R5*%
X97369333Y-60988380D02*
X97036000Y-60512190D01*
X96797904Y-60988380D02*
X96797904Y-59988380D01*
X97178857Y-59988380D01*
X97274095Y-60036000D01*
X97321714Y-60083619D01*
X97369333Y-60178857D01*
X97369333Y-60321714D01*
X97321714Y-60416952D01*
X97274095Y-60464571D01*
X97178857Y-60512190D01*
X96797904Y-60512190D01*
X98274095Y-59988380D02*
X97797904Y-59988380D01*
X97750285Y-60464571D01*
X97797904Y-60416952D01*
X97893142Y-60369333D01*
X98131238Y-60369333D01*
X98226476Y-60416952D01*
X98274095Y-60464571D01*
X98321714Y-60559809D01*
X98321714Y-60797904D01*
X98274095Y-60893142D01*
X98226476Y-60940761D01*
X98131238Y-60988380D01*
X97893142Y-60988380D01*
X97797904Y-60940761D01*
X97750285Y-60893142D01*
%TO.C,U11*%
X190801380Y-42259095D02*
X191610904Y-42259095D01*
X191706142Y-42211476D01*
X191753761Y-42163857D01*
X191801380Y-42068619D01*
X191801380Y-41878142D01*
X191753761Y-41782904D01*
X191706142Y-41735285D01*
X191610904Y-41687666D01*
X190801380Y-41687666D01*
X191801380Y-40687666D02*
X191801380Y-41259095D01*
X191801380Y-40973380D02*
X190801380Y-40973380D01*
X190944238Y-41068619D01*
X191039476Y-41163857D01*
X191087095Y-41259095D01*
X191801380Y-39735285D02*
X191801380Y-40306714D01*
X191801380Y-40021000D02*
X190801380Y-40021000D01*
X190944238Y-40116238D01*
X191039476Y-40211476D01*
X191087095Y-40306714D01*
%TO.C,C10*%
X124806342Y-113001657D02*
X124853961Y-113049276D01*
X124901580Y-113192133D01*
X124901580Y-113287371D01*
X124853961Y-113430228D01*
X124758723Y-113525466D01*
X124663485Y-113573085D01*
X124473009Y-113620704D01*
X124330152Y-113620704D01*
X124139676Y-113573085D01*
X124044438Y-113525466D01*
X123949200Y-113430228D01*
X123901580Y-113287371D01*
X123901580Y-113192133D01*
X123949200Y-113049276D01*
X123996819Y-113001657D01*
X124901580Y-112049276D02*
X124901580Y-112620704D01*
X124901580Y-112334990D02*
X123901580Y-112334990D01*
X124044438Y-112430228D01*
X124139676Y-112525466D01*
X124187295Y-112620704D01*
X123901580Y-111430228D02*
X123901580Y-111334990D01*
X123949200Y-111239752D01*
X123996819Y-111192133D01*
X124092057Y-111144514D01*
X124282533Y-111096895D01*
X124520628Y-111096895D01*
X124711104Y-111144514D01*
X124806342Y-111192133D01*
X124853961Y-111239752D01*
X124901580Y-111334990D01*
X124901580Y-111430228D01*
X124853961Y-111525466D01*
X124806342Y-111573085D01*
X124711104Y-111620704D01*
X124520628Y-111668323D01*
X124282533Y-111668323D01*
X124092057Y-111620704D01*
X123996819Y-111573085D01*
X123949200Y-111525466D01*
X123901580Y-111430228D01*
%TO.C,J1*%
X85904380Y-32269333D02*
X86618666Y-32269333D01*
X86761523Y-32316952D01*
X86856761Y-32412190D01*
X86904380Y-32555047D01*
X86904380Y-32650285D01*
X86904380Y-31269333D02*
X86904380Y-31840761D01*
X86904380Y-31555047D02*
X85904380Y-31555047D01*
X86047238Y-31650285D01*
X86142476Y-31745523D01*
X86190095Y-31840761D01*
%TO.C,J2*%
X263705980Y-110315333D02*
X264420266Y-110315333D01*
X264563123Y-110362952D01*
X264658361Y-110458190D01*
X264705980Y-110601047D01*
X264705980Y-110696285D01*
X263801219Y-109886761D02*
X263753600Y-109839142D01*
X263705980Y-109743904D01*
X263705980Y-109505809D01*
X263753600Y-109410571D01*
X263801219Y-109362952D01*
X263896457Y-109315333D01*
X263991695Y-109315333D01*
X264134552Y-109362952D01*
X264705980Y-109934380D01*
X264705980Y-109315333D01*
%TO.C,J4*%
X231517866Y-49991580D02*
X231517866Y-50705866D01*
X231470247Y-50848723D01*
X231375009Y-50943961D01*
X231232152Y-50991580D01*
X231136914Y-50991580D01*
X232422628Y-50324914D02*
X232422628Y-50991580D01*
X232184533Y-49943961D02*
X231946438Y-50658247D01*
X232565485Y-50658247D01*
%TO.C,J5*%
X231568666Y-57052780D02*
X231568666Y-57767066D01*
X231521047Y-57909923D01*
X231425809Y-58005161D01*
X231282952Y-58052780D01*
X231187714Y-58052780D01*
X232521047Y-57052780D02*
X232044857Y-57052780D01*
X231997238Y-57528971D01*
X232044857Y-57481352D01*
X232140095Y-57433733D01*
X232378190Y-57433733D01*
X232473428Y-57481352D01*
X232521047Y-57528971D01*
X232568666Y-57624209D01*
X232568666Y-57862304D01*
X232521047Y-57957542D01*
X232473428Y-58005161D01*
X232378190Y-58052780D01*
X232140095Y-58052780D01*
X232044857Y-58005161D01*
X231997238Y-57957542D01*
%TO.C,J7*%
D17*
X193418447Y-37633618D02*
X194138594Y-37633618D01*
X194282623Y-37681628D01*
X194378642Y-37777647D01*
X194426652Y-37921676D01*
X194426652Y-38017696D01*
X193418447Y-37249540D02*
X193418447Y-36577403D01*
X194426652Y-37009491D01*
%TO.C,J8*%
D15*
X225980666Y-28848380D02*
X225980666Y-29562666D01*
X225933047Y-29705523D01*
X225837809Y-29800761D01*
X225694952Y-29848380D01*
X225599714Y-29848380D01*
X226599714Y-29276952D02*
X226504476Y-29229333D01*
X226456857Y-29181714D01*
X226409238Y-29086476D01*
X226409238Y-29038857D01*
X226456857Y-28943619D01*
X226504476Y-28896000D01*
X226599714Y-28848380D01*
X226790190Y-28848380D01*
X226885428Y-28896000D01*
X226933047Y-28943619D01*
X226980666Y-29038857D01*
X226980666Y-29086476D01*
X226933047Y-29181714D01*
X226885428Y-29229333D01*
X226790190Y-29276952D01*
X226599714Y-29276952D01*
X226504476Y-29324571D01*
X226456857Y-29372190D01*
X226409238Y-29467428D01*
X226409238Y-29657904D01*
X226456857Y-29753142D01*
X226504476Y-29800761D01*
X226599714Y-29848380D01*
X226790190Y-29848380D01*
X226885428Y-29800761D01*
X226933047Y-29753142D01*
X226980666Y-29657904D01*
X226980666Y-29467428D01*
X226933047Y-29372190D01*
X226885428Y-29324571D01*
X226790190Y-29276952D01*
%TO.C,SW1*%
D16*
X104415666Y-30111047D02*
X104597095Y-30171523D01*
X104899476Y-30171523D01*
X105020428Y-30111047D01*
X105080904Y-30050571D01*
X105141380Y-29929619D01*
X105141380Y-29808666D01*
X105080904Y-29687714D01*
X105020428Y-29627238D01*
X104899476Y-29566761D01*
X104657571Y-29506285D01*
X104536619Y-29445809D01*
X104476142Y-29385333D01*
X104415666Y-29264380D01*
X104415666Y-29143428D01*
X104476142Y-29022476D01*
X104536619Y-28962000D01*
X104657571Y-28901523D01*
X104959952Y-28901523D01*
X105141380Y-28962000D01*
X105564714Y-28901523D02*
X105867095Y-30171523D01*
X106109000Y-29264380D01*
X106350904Y-30171523D01*
X106653285Y-28901523D01*
X107802333Y-30171523D02*
X107076619Y-30171523D01*
X107439476Y-30171523D02*
X107439476Y-28901523D01*
X107318523Y-29082952D01*
X107197571Y-29203904D01*
X107076619Y-29264380D01*
%TO.C,SW3*%
D15*
X219063666Y-96638761D02*
X219206523Y-96686380D01*
X219444619Y-96686380D01*
X219539857Y-96638761D01*
X219587476Y-96591142D01*
X219635095Y-96495904D01*
X219635095Y-96400666D01*
X219587476Y-96305428D01*
X219539857Y-96257809D01*
X219444619Y-96210190D01*
X219254142Y-96162571D01*
X219158904Y-96114952D01*
X219111285Y-96067333D01*
X219063666Y-95972095D01*
X219063666Y-95876857D01*
X219111285Y-95781619D01*
X219158904Y-95734000D01*
X219254142Y-95686380D01*
X219492238Y-95686380D01*
X219635095Y-95734000D01*
X219968428Y-95686380D02*
X220206523Y-96686380D01*
X220397000Y-95972095D01*
X220587476Y-96686380D01*
X220825571Y-95686380D01*
X221111285Y-95686380D02*
X221730333Y-95686380D01*
X221397000Y-96067333D01*
X221539857Y-96067333D01*
X221635095Y-96114952D01*
X221682714Y-96162571D01*
X221730333Y-96257809D01*
X221730333Y-96495904D01*
X221682714Y-96591142D01*
X221635095Y-96638761D01*
X221539857Y-96686380D01*
X221254142Y-96686380D01*
X221158904Y-96638761D01*
X221111285Y-96591142D01*
%TO.C,U1*%
X166679180Y-86461504D02*
X167488704Y-86461504D01*
X167583942Y-86413885D01*
X167631561Y-86366266D01*
X167679180Y-86271028D01*
X167679180Y-86080552D01*
X167631561Y-85985314D01*
X167583942Y-85937695D01*
X167488704Y-85890076D01*
X166679180Y-85890076D01*
X167679180Y-84890076D02*
X167679180Y-85461504D01*
X167679180Y-85175790D02*
X166679180Y-85175790D01*
X166822038Y-85271028D01*
X166917276Y-85366266D01*
X166964895Y-85461504D01*
%TO.C,U2*%
X122936095Y-67226380D02*
X122936095Y-68035904D01*
X122983714Y-68131142D01*
X123031333Y-68178761D01*
X123126571Y-68226380D01*
X123317047Y-68226380D01*
X123412285Y-68178761D01*
X123459904Y-68131142D01*
X123507523Y-68035904D01*
X123507523Y-67226380D01*
X123936095Y-67321619D02*
X123983714Y-67274000D01*
X124078952Y-67226380D01*
X124317047Y-67226380D01*
X124412285Y-67274000D01*
X124459904Y-67321619D01*
X124507523Y-67416857D01*
X124507523Y-67512095D01*
X124459904Y-67654952D01*
X123888476Y-68226380D01*
X124507523Y-68226380D01*
%TO.C,U3*%
X146486180Y-126212504D02*
X147295704Y-126212504D01*
X147390942Y-126164885D01*
X147438561Y-126117266D01*
X147486180Y-126022028D01*
X147486180Y-125831552D01*
X147438561Y-125736314D01*
X147390942Y-125688695D01*
X147295704Y-125641076D01*
X146486180Y-125641076D01*
X146486180Y-125260123D02*
X146486180Y-124641076D01*
X146867133Y-124974409D01*
X146867133Y-124831552D01*
X146914752Y-124736314D01*
X146962371Y-124688695D01*
X147057609Y-124641076D01*
X147295704Y-124641076D01*
X147390942Y-124688695D01*
X147438561Y-124736314D01*
X147486180Y-124831552D01*
X147486180Y-125117266D01*
X147438561Y-125212504D01*
X147390942Y-125260123D01*
%TO.C,U4*%
X166679180Y-98958304D02*
X167488704Y-98958304D01*
X167583942Y-98910685D01*
X167631561Y-98863066D01*
X167679180Y-98767828D01*
X167679180Y-98577352D01*
X167631561Y-98482114D01*
X167583942Y-98434495D01*
X167488704Y-98386876D01*
X166679180Y-98386876D01*
X167012514Y-97482114D02*
X167679180Y-97482114D01*
X166631561Y-97720209D02*
X167345847Y-97958304D01*
X167345847Y-97339257D01*
%TO.C,U7*%
X119253095Y-29218380D02*
X119253095Y-30027904D01*
X119300714Y-30123142D01*
X119348333Y-30170761D01*
X119443571Y-30218380D01*
X119634047Y-30218380D01*
X119729285Y-30170761D01*
X119776904Y-30123142D01*
X119824523Y-30027904D01*
X119824523Y-29218380D01*
X120205476Y-29218380D02*
X120872142Y-29218380D01*
X120443571Y-30218380D01*
%TO.C,U8*%
X103276495Y-67226380D02*
X103276495Y-68035904D01*
X103324114Y-68131142D01*
X103371733Y-68178761D01*
X103466971Y-68226380D01*
X103657447Y-68226380D01*
X103752685Y-68178761D01*
X103800304Y-68131142D01*
X103847923Y-68035904D01*
X103847923Y-67226380D01*
X104466971Y-67654952D02*
X104371733Y-67607333D01*
X104324114Y-67559714D01*
X104276495Y-67464476D01*
X104276495Y-67416857D01*
X104324114Y-67321619D01*
X104371733Y-67274000D01*
X104466971Y-67226380D01*
X104657447Y-67226380D01*
X104752685Y-67274000D01*
X104800304Y-67321619D01*
X104847923Y-67416857D01*
X104847923Y-67464476D01*
X104800304Y-67559714D01*
X104752685Y-67607333D01*
X104657447Y-67654952D01*
X104466971Y-67654952D01*
X104371733Y-67702571D01*
X104324114Y-67750190D01*
X104276495Y-67845428D01*
X104276495Y-68035904D01*
X104324114Y-68131142D01*
X104371733Y-68178761D01*
X104466971Y-68226380D01*
X104657447Y-68226380D01*
X104752685Y-68178761D01*
X104800304Y-68131142D01*
X104847923Y-68035904D01*
X104847923Y-67845428D01*
X104800304Y-67750190D01*
X104752685Y-67702571D01*
X104657447Y-67654952D01*
%TO.C,U10*%
X177838285Y-37651857D02*
X177838285Y-38623285D01*
X177895428Y-38737571D01*
X177952571Y-38794714D01*
X178066857Y-38851857D01*
X178295428Y-38851857D01*
X178409714Y-38794714D01*
X178466857Y-38737571D01*
X178524000Y-38623285D01*
X178524000Y-37651857D01*
X179724000Y-38851857D02*
X179038285Y-38851857D01*
X179381142Y-38851857D02*
X179381142Y-37651857D01*
X179266857Y-37823285D01*
X179152571Y-37937571D01*
X179038285Y-37994714D01*
X180466857Y-37651857D02*
X180581142Y-37651857D01*
X180695428Y-37709000D01*
X180752571Y-37766142D01*
X180809714Y-37880428D01*
X180866857Y-38109000D01*
X180866857Y-38394714D01*
X180809714Y-38623285D01*
X180752571Y-38737571D01*
X180695428Y-38794714D01*
X180581142Y-38851857D01*
X180466857Y-38851857D01*
X180352571Y-38794714D01*
X180295428Y-38737571D01*
X180238285Y-38623285D01*
X180181142Y-38394714D01*
X180181142Y-38109000D01*
X180238285Y-37880428D01*
X180295428Y-37766142D01*
X180352571Y-37709000D01*
X180466857Y-37651857D01*
%TO.C,C16*%
X216859142Y-32519857D02*
X216906761Y-32567476D01*
X216954380Y-32710333D01*
X216954380Y-32805571D01*
X216906761Y-32948428D01*
X216811523Y-33043666D01*
X216716285Y-33091285D01*
X216525809Y-33138904D01*
X216382952Y-33138904D01*
X216192476Y-33091285D01*
X216097238Y-33043666D01*
X216002000Y-32948428D01*
X215954380Y-32805571D01*
X215954380Y-32710333D01*
X216002000Y-32567476D01*
X216049619Y-32519857D01*
X216954380Y-31567476D02*
X216954380Y-32138904D01*
X216954380Y-31853190D02*
X215954380Y-31853190D01*
X216097238Y-31948428D01*
X216192476Y-32043666D01*
X216240095Y-32138904D01*
X215954380Y-30710333D02*
X215954380Y-30900809D01*
X216002000Y-30996047D01*
X216049619Y-31043666D01*
X216192476Y-31138904D01*
X216382952Y-31186523D01*
X216763904Y-31186523D01*
X216859142Y-31138904D01*
X216906761Y-31091285D01*
X216954380Y-30996047D01*
X216954380Y-30805571D01*
X216906761Y-30710333D01*
X216859142Y-30662714D01*
X216763904Y-30615095D01*
X216525809Y-30615095D01*
X216430571Y-30662714D01*
X216382952Y-30710333D01*
X216335333Y-30805571D01*
X216335333Y-30996047D01*
X216382952Y-31091285D01*
X216430571Y-31138904D01*
X216525809Y-31186523D01*
%TO.C,C17*%
X190570142Y-41663857D02*
X190617761Y-41711476D01*
X190665380Y-41854333D01*
X190665380Y-41949571D01*
X190617761Y-42092428D01*
X190522523Y-42187666D01*
X190427285Y-42235285D01*
X190236809Y-42282904D01*
X190093952Y-42282904D01*
X189903476Y-42235285D01*
X189808238Y-42187666D01*
X189713000Y-42092428D01*
X189665380Y-41949571D01*
X189665380Y-41854333D01*
X189713000Y-41711476D01*
X189760619Y-41663857D01*
X190665380Y-40711476D02*
X190665380Y-41282904D01*
X190665380Y-40997190D02*
X189665380Y-40997190D01*
X189808238Y-41092428D01*
X189903476Y-41187666D01*
X189951095Y-41282904D01*
X189665380Y-40378142D02*
X189665380Y-39711476D01*
X190665380Y-40140047D01*
%TO.C,C18*%
X187969142Y-41663857D02*
X188016761Y-41711476D01*
X188064380Y-41854333D01*
X188064380Y-41949571D01*
X188016761Y-42092428D01*
X187921523Y-42187666D01*
X187826285Y-42235285D01*
X187635809Y-42282904D01*
X187492952Y-42282904D01*
X187302476Y-42235285D01*
X187207238Y-42187666D01*
X187112000Y-42092428D01*
X187064380Y-41949571D01*
X187064380Y-41854333D01*
X187112000Y-41711476D01*
X187159619Y-41663857D01*
X188064380Y-40711476D02*
X188064380Y-41282904D01*
X188064380Y-40997190D02*
X187064380Y-40997190D01*
X187207238Y-41092428D01*
X187302476Y-41187666D01*
X187350095Y-41282904D01*
X187492952Y-40140047D02*
X187445333Y-40235285D01*
X187397714Y-40282904D01*
X187302476Y-40330523D01*
X187254857Y-40330523D01*
X187159619Y-40282904D01*
X187112000Y-40235285D01*
X187064380Y-40140047D01*
X187064380Y-39949571D01*
X187112000Y-39854333D01*
X187159619Y-39806714D01*
X187254857Y-39759095D01*
X187302476Y-39759095D01*
X187397714Y-39806714D01*
X187445333Y-39854333D01*
X187492952Y-39949571D01*
X187492952Y-40140047D01*
X187540571Y-40235285D01*
X187588190Y-40282904D01*
X187683428Y-40330523D01*
X187873904Y-40330523D01*
X187969142Y-40282904D01*
X188016761Y-40235285D01*
X188064380Y-40140047D01*
X188064380Y-39949571D01*
X188016761Y-39854333D01*
X187969142Y-39806714D01*
X187873904Y-39759095D01*
X187683428Y-39759095D01*
X187588190Y-39806714D01*
X187540571Y-39854333D01*
X187492952Y-39949571D01*
%TO.C,R26*%
X208257380Y-61348857D02*
X207781190Y-61682190D01*
X208257380Y-61920285D02*
X207257380Y-61920285D01*
X207257380Y-61539333D01*
X207305000Y-61444095D01*
X207352619Y-61396476D01*
X207447857Y-61348857D01*
X207590714Y-61348857D01*
X207685952Y-61396476D01*
X207733571Y-61444095D01*
X207781190Y-61539333D01*
X207781190Y-61920285D01*
X207352619Y-60967904D02*
X207305000Y-60920285D01*
X207257380Y-60825047D01*
X207257380Y-60586952D01*
X207305000Y-60491714D01*
X207352619Y-60444095D01*
X207447857Y-60396476D01*
X207543095Y-60396476D01*
X207685952Y-60444095D01*
X208257380Y-61015523D01*
X208257380Y-60396476D01*
X207257380Y-59539333D02*
X207257380Y-59729809D01*
X207305000Y-59825047D01*
X207352619Y-59872666D01*
X207495476Y-59967904D01*
X207685952Y-60015523D01*
X208066904Y-60015523D01*
X208162142Y-59967904D01*
X208209761Y-59920285D01*
X208257380Y-59825047D01*
X208257380Y-59634571D01*
X208209761Y-59539333D01*
X208162142Y-59491714D01*
X208066904Y-59444095D01*
X207828809Y-59444095D01*
X207733571Y-59491714D01*
X207685952Y-59539333D01*
X207638333Y-59634571D01*
X207638333Y-59825047D01*
X207685952Y-59920285D01*
X207733571Y-59967904D01*
X207828809Y-60015523D01*
%TO.C,R27*%
X206352380Y-61348857D02*
X205876190Y-61682190D01*
X206352380Y-61920285D02*
X205352380Y-61920285D01*
X205352380Y-61539333D01*
X205400000Y-61444095D01*
X205447619Y-61396476D01*
X205542857Y-61348857D01*
X205685714Y-61348857D01*
X205780952Y-61396476D01*
X205828571Y-61444095D01*
X205876190Y-61539333D01*
X205876190Y-61920285D01*
X205447619Y-60967904D02*
X205400000Y-60920285D01*
X205352380Y-60825047D01*
X205352380Y-60586952D01*
X205400000Y-60491714D01*
X205447619Y-60444095D01*
X205542857Y-60396476D01*
X205638095Y-60396476D01*
X205780952Y-60444095D01*
X206352380Y-61015523D01*
X206352380Y-60396476D01*
X205352380Y-60063142D02*
X205352380Y-59396476D01*
X206352380Y-59825047D01*
%TO.C,C13*%
X141724142Y-48611142D02*
X141676523Y-48658761D01*
X141533666Y-48706380D01*
X141438428Y-48706380D01*
X141295571Y-48658761D01*
X141200333Y-48563523D01*
X141152714Y-48468285D01*
X141105095Y-48277809D01*
X141105095Y-48134952D01*
X141152714Y-47944476D01*
X141200333Y-47849238D01*
X141295571Y-47754000D01*
X141438428Y-47706380D01*
X141533666Y-47706380D01*
X141676523Y-47754000D01*
X141724142Y-47801619D01*
X142676523Y-48706380D02*
X142105095Y-48706380D01*
X142390809Y-48706380D02*
X142390809Y-47706380D01*
X142295571Y-47849238D01*
X142200333Y-47944476D01*
X142105095Y-47992095D01*
X143009857Y-47706380D02*
X143628904Y-47706380D01*
X143295571Y-48087333D01*
X143438428Y-48087333D01*
X143533666Y-48134952D01*
X143581285Y-48182571D01*
X143628904Y-48277809D01*
X143628904Y-48515904D01*
X143581285Y-48611142D01*
X143533666Y-48658761D01*
X143438428Y-48706380D01*
X143152714Y-48706380D01*
X143057476Y-48658761D01*
X143009857Y-48611142D01*
%TO.C,C14*%
X141724142Y-51102142D02*
X141676523Y-51149761D01*
X141533666Y-51197380D01*
X141438428Y-51197380D01*
X141295571Y-51149761D01*
X141200333Y-51054523D01*
X141152714Y-50959285D01*
X141105095Y-50768809D01*
X141105095Y-50625952D01*
X141152714Y-50435476D01*
X141200333Y-50340238D01*
X141295571Y-50245000D01*
X141438428Y-50197380D01*
X141533666Y-50197380D01*
X141676523Y-50245000D01*
X141724142Y-50292619D01*
X142676523Y-51197380D02*
X142105095Y-51197380D01*
X142390809Y-51197380D02*
X142390809Y-50197380D01*
X142295571Y-50340238D01*
X142200333Y-50435476D01*
X142105095Y-50483095D01*
X143533666Y-50530714D02*
X143533666Y-51197380D01*
X143295571Y-50149761D02*
X143057476Y-50864047D01*
X143676523Y-50864047D01*
%TO.C,C15*%
X141724142Y-53642142D02*
X141676523Y-53689761D01*
X141533666Y-53737380D01*
X141438428Y-53737380D01*
X141295571Y-53689761D01*
X141200333Y-53594523D01*
X141152714Y-53499285D01*
X141105095Y-53308809D01*
X141105095Y-53165952D01*
X141152714Y-52975476D01*
X141200333Y-52880238D01*
X141295571Y-52785000D01*
X141438428Y-52737380D01*
X141533666Y-52737380D01*
X141676523Y-52785000D01*
X141724142Y-52832619D01*
X142676523Y-53737380D02*
X142105095Y-53737380D01*
X142390809Y-53737380D02*
X142390809Y-52737380D01*
X142295571Y-52880238D01*
X142200333Y-52975476D01*
X142105095Y-53023095D01*
X143581285Y-52737380D02*
X143105095Y-52737380D01*
X143057476Y-53213571D01*
X143105095Y-53165952D01*
X143200333Y-53118333D01*
X143438428Y-53118333D01*
X143533666Y-53165952D01*
X143581285Y-53213571D01*
X143628904Y-53308809D01*
X143628904Y-53546904D01*
X143581285Y-53642142D01*
X143533666Y-53689761D01*
X143438428Y-53737380D01*
X143200333Y-53737380D01*
X143105095Y-53689761D01*
X143057476Y-53642142D01*
%TO.C,R29*%
X180952380Y-62364857D02*
X180476190Y-62698190D01*
X180952380Y-62936285D02*
X179952380Y-62936285D01*
X179952380Y-62555333D01*
X180000000Y-62460095D01*
X180047619Y-62412476D01*
X180142857Y-62364857D01*
X180285714Y-62364857D01*
X180380952Y-62412476D01*
X180428571Y-62460095D01*
X180476190Y-62555333D01*
X180476190Y-62936285D01*
X180047619Y-61983904D02*
X180000000Y-61936285D01*
X179952380Y-61841047D01*
X179952380Y-61602952D01*
X180000000Y-61507714D01*
X180047619Y-61460095D01*
X180142857Y-61412476D01*
X180238095Y-61412476D01*
X180380952Y-61460095D01*
X180952380Y-62031523D01*
X180952380Y-61412476D01*
X180952380Y-60936285D02*
X180952380Y-60745809D01*
X180904761Y-60650571D01*
X180857142Y-60602952D01*
X180714285Y-60507714D01*
X180523809Y-60460095D01*
X180142857Y-60460095D01*
X180047619Y-60507714D01*
X180000000Y-60555333D01*
X179952380Y-60650571D01*
X179952380Y-60841047D01*
X180000000Y-60936285D01*
X180047619Y-60983904D01*
X180142857Y-61031523D01*
X180380952Y-61031523D01*
X180476190Y-60983904D01*
X180523809Y-60936285D01*
X180571428Y-60841047D01*
X180571428Y-60650571D01*
X180523809Y-60555333D01*
X180476190Y-60507714D01*
X180380952Y-60460095D01*
%TO.C,R6*%
X196126380Y-65444666D02*
X195650190Y-65778000D01*
X196126380Y-66016095D02*
X195126380Y-66016095D01*
X195126380Y-65635142D01*
X195174000Y-65539904D01*
X195221619Y-65492285D01*
X195316857Y-65444666D01*
X195459714Y-65444666D01*
X195554952Y-65492285D01*
X195602571Y-65539904D01*
X195650190Y-65635142D01*
X195650190Y-66016095D01*
X195126380Y-64587523D02*
X195126380Y-64778000D01*
X195174000Y-64873238D01*
X195221619Y-64920857D01*
X195364476Y-65016095D01*
X195554952Y-65063714D01*
X195935904Y-65063714D01*
X196031142Y-65016095D01*
X196078761Y-64968476D01*
X196126380Y-64873238D01*
X196126380Y-64682761D01*
X196078761Y-64587523D01*
X196031142Y-64539904D01*
X195935904Y-64492285D01*
X195697809Y-64492285D01*
X195602571Y-64539904D01*
X195554952Y-64587523D01*
X195507333Y-64682761D01*
X195507333Y-64873238D01*
X195554952Y-64968476D01*
X195602571Y-65016095D01*
X195697809Y-65063714D01*
%TO.C,R7*%
X194348380Y-65444666D02*
X193872190Y-65778000D01*
X194348380Y-66016095D02*
X193348380Y-66016095D01*
X193348380Y-65635142D01*
X193396000Y-65539904D01*
X193443619Y-65492285D01*
X193538857Y-65444666D01*
X193681714Y-65444666D01*
X193776952Y-65492285D01*
X193824571Y-65539904D01*
X193872190Y-65635142D01*
X193872190Y-66016095D01*
X193348380Y-65111333D02*
X193348380Y-64444666D01*
X194348380Y-64873238D01*
%TO.C,R8*%
X192316380Y-65444666D02*
X191840190Y-65778000D01*
X192316380Y-66016095D02*
X191316380Y-66016095D01*
X191316380Y-65635142D01*
X191364000Y-65539904D01*
X191411619Y-65492285D01*
X191506857Y-65444666D01*
X191649714Y-65444666D01*
X191744952Y-65492285D01*
X191792571Y-65539904D01*
X191840190Y-65635142D01*
X191840190Y-66016095D01*
X191744952Y-64873238D02*
X191697333Y-64968476D01*
X191649714Y-65016095D01*
X191554476Y-65063714D01*
X191506857Y-65063714D01*
X191411619Y-65016095D01*
X191364000Y-64968476D01*
X191316380Y-64873238D01*
X191316380Y-64682761D01*
X191364000Y-64587523D01*
X191411619Y-64539904D01*
X191506857Y-64492285D01*
X191554476Y-64492285D01*
X191649714Y-64539904D01*
X191697333Y-64587523D01*
X191744952Y-64682761D01*
X191744952Y-64873238D01*
X191792571Y-64968476D01*
X191840190Y-65016095D01*
X191935428Y-65063714D01*
X192125904Y-65063714D01*
X192221142Y-65016095D01*
X192268761Y-64968476D01*
X192316380Y-64873238D01*
X192316380Y-64682761D01*
X192268761Y-64587523D01*
X192221142Y-64539904D01*
X192125904Y-64492285D01*
X191935428Y-64492285D01*
X191840190Y-64539904D01*
X191792571Y-64587523D01*
X191744952Y-64682761D01*
%TO.C,R9*%
X190284380Y-65444666D02*
X189808190Y-65778000D01*
X190284380Y-66016095D02*
X189284380Y-66016095D01*
X189284380Y-65635142D01*
X189332000Y-65539904D01*
X189379619Y-65492285D01*
X189474857Y-65444666D01*
X189617714Y-65444666D01*
X189712952Y-65492285D01*
X189760571Y-65539904D01*
X189808190Y-65635142D01*
X189808190Y-66016095D01*
X190284380Y-64968476D02*
X190284380Y-64778000D01*
X190236761Y-64682761D01*
X190189142Y-64635142D01*
X190046285Y-64539904D01*
X189855809Y-64492285D01*
X189474857Y-64492285D01*
X189379619Y-64539904D01*
X189332000Y-64587523D01*
X189284380Y-64682761D01*
X189284380Y-64873238D01*
X189332000Y-64968476D01*
X189379619Y-65016095D01*
X189474857Y-65063714D01*
X189712952Y-65063714D01*
X189808190Y-65016095D01*
X189855809Y-64968476D01*
X189903428Y-64873238D01*
X189903428Y-64682761D01*
X189855809Y-64587523D01*
X189808190Y-64539904D01*
X189712952Y-64492285D01*
%TO.C,R10*%
X188252380Y-65920857D02*
X187776190Y-66254190D01*
X188252380Y-66492285D02*
X187252380Y-66492285D01*
X187252380Y-66111333D01*
X187300000Y-66016095D01*
X187347619Y-65968476D01*
X187442857Y-65920857D01*
X187585714Y-65920857D01*
X187680952Y-65968476D01*
X187728571Y-66016095D01*
X187776190Y-66111333D01*
X187776190Y-66492285D01*
X188252380Y-64968476D02*
X188252380Y-65539904D01*
X188252380Y-65254190D02*
X187252380Y-65254190D01*
X187395238Y-65349428D01*
X187490476Y-65444666D01*
X187538095Y-65539904D01*
X187252380Y-64349428D02*
X187252380Y-64254190D01*
X187300000Y-64158952D01*
X187347619Y-64111333D01*
X187442857Y-64063714D01*
X187633333Y-64016095D01*
X187871428Y-64016095D01*
X188061904Y-64063714D01*
X188157142Y-64111333D01*
X188204761Y-64158952D01*
X188252380Y-64254190D01*
X188252380Y-64349428D01*
X188204761Y-64444666D01*
X188157142Y-64492285D01*
X188061904Y-64539904D01*
X187871428Y-64587523D01*
X187633333Y-64587523D01*
X187442857Y-64539904D01*
X187347619Y-64492285D01*
X187300000Y-64444666D01*
X187252380Y-64349428D01*
%TO.C,R11*%
X186220380Y-65920857D02*
X185744190Y-66254190D01*
X186220380Y-66492285D02*
X185220380Y-66492285D01*
X185220380Y-66111333D01*
X185268000Y-66016095D01*
X185315619Y-65968476D01*
X185410857Y-65920857D01*
X185553714Y-65920857D01*
X185648952Y-65968476D01*
X185696571Y-66016095D01*
X185744190Y-66111333D01*
X185744190Y-66492285D01*
X186220380Y-64968476D02*
X186220380Y-65539904D01*
X186220380Y-65254190D02*
X185220380Y-65254190D01*
X185363238Y-65349428D01*
X185458476Y-65444666D01*
X185506095Y-65539904D01*
X186220380Y-64016095D02*
X186220380Y-64587523D01*
X186220380Y-64301809D02*
X185220380Y-64301809D01*
X185363238Y-64397047D01*
X185458476Y-64492285D01*
X185506095Y-64587523D01*
%TO.C,R12*%
X184188380Y-65920857D02*
X183712190Y-66254190D01*
X184188380Y-66492285D02*
X183188380Y-66492285D01*
X183188380Y-66111333D01*
X183236000Y-66016095D01*
X183283619Y-65968476D01*
X183378857Y-65920857D01*
X183521714Y-65920857D01*
X183616952Y-65968476D01*
X183664571Y-66016095D01*
X183712190Y-66111333D01*
X183712190Y-66492285D01*
X184188380Y-64968476D02*
X184188380Y-65539904D01*
X184188380Y-65254190D02*
X183188380Y-65254190D01*
X183331238Y-65349428D01*
X183426476Y-65444666D01*
X183474095Y-65539904D01*
X183283619Y-64587523D02*
X183236000Y-64539904D01*
X183188380Y-64444666D01*
X183188380Y-64206571D01*
X183236000Y-64111333D01*
X183283619Y-64063714D01*
X183378857Y-64016095D01*
X183474095Y-64016095D01*
X183616952Y-64063714D01*
X184188380Y-64635142D01*
X184188380Y-64016095D01*
%TO.C,R13*%
X182156380Y-65920857D02*
X181680190Y-66254190D01*
X182156380Y-66492285D02*
X181156380Y-66492285D01*
X181156380Y-66111333D01*
X181204000Y-66016095D01*
X181251619Y-65968476D01*
X181346857Y-65920857D01*
X181489714Y-65920857D01*
X181584952Y-65968476D01*
X181632571Y-66016095D01*
X181680190Y-66111333D01*
X181680190Y-66492285D01*
X182156380Y-64968476D02*
X182156380Y-65539904D01*
X182156380Y-65254190D02*
X181156380Y-65254190D01*
X181299238Y-65349428D01*
X181394476Y-65444666D01*
X181442095Y-65539904D01*
X181156380Y-64635142D02*
X181156380Y-64016095D01*
X181537333Y-64349428D01*
X181537333Y-64206571D01*
X181584952Y-64111333D01*
X181632571Y-64063714D01*
X181727809Y-64016095D01*
X181965904Y-64016095D01*
X182061142Y-64063714D01*
X182108761Y-64111333D01*
X182156380Y-64206571D01*
X182156380Y-64492285D01*
X182108761Y-64587523D01*
X182061142Y-64635142D01*
%TO.C,R14*%
X180124380Y-65920857D02*
X179648190Y-66254190D01*
X180124380Y-66492285D02*
X179124380Y-66492285D01*
X179124380Y-66111333D01*
X179172000Y-66016095D01*
X179219619Y-65968476D01*
X179314857Y-65920857D01*
X179457714Y-65920857D01*
X179552952Y-65968476D01*
X179600571Y-66016095D01*
X179648190Y-66111333D01*
X179648190Y-66492285D01*
X180124380Y-64968476D02*
X180124380Y-65539904D01*
X180124380Y-65254190D02*
X179124380Y-65254190D01*
X179267238Y-65349428D01*
X179362476Y-65444666D01*
X179410095Y-65539904D01*
X179457714Y-64111333D02*
X180124380Y-64111333D01*
X179076761Y-64349428D02*
X179791047Y-64587523D01*
X179791047Y-63968476D01*
%TO.C,R15*%
X222227380Y-49156857D02*
X221751190Y-49490190D01*
X222227380Y-49728285D02*
X221227380Y-49728285D01*
X221227380Y-49347333D01*
X221275000Y-49252095D01*
X221322619Y-49204476D01*
X221417857Y-49156857D01*
X221560714Y-49156857D01*
X221655952Y-49204476D01*
X221703571Y-49252095D01*
X221751190Y-49347333D01*
X221751190Y-49728285D01*
X222227380Y-48204476D02*
X222227380Y-48775904D01*
X222227380Y-48490190D02*
X221227380Y-48490190D01*
X221370238Y-48585428D01*
X221465476Y-48680666D01*
X221513095Y-48775904D01*
X221227380Y-47299714D02*
X221227380Y-47775904D01*
X221703571Y-47823523D01*
X221655952Y-47775904D01*
X221608333Y-47680666D01*
X221608333Y-47442571D01*
X221655952Y-47347333D01*
X221703571Y-47299714D01*
X221798809Y-47252095D01*
X222036904Y-47252095D01*
X222132142Y-47299714D01*
X222179761Y-47347333D01*
X222227380Y-47442571D01*
X222227380Y-47680666D01*
X222179761Y-47775904D01*
X222132142Y-47823523D01*
%TO.C,R16*%
X198986380Y-62491857D02*
X198510190Y-62825190D01*
X198986380Y-63063285D02*
X197986380Y-63063285D01*
X197986380Y-62682333D01*
X198034000Y-62587095D01*
X198081619Y-62539476D01*
X198176857Y-62491857D01*
X198319714Y-62491857D01*
X198414952Y-62539476D01*
X198462571Y-62587095D01*
X198510190Y-62682333D01*
X198510190Y-63063285D01*
X198986380Y-61539476D02*
X198986380Y-62110904D01*
X198986380Y-61825190D02*
X197986380Y-61825190D01*
X198129238Y-61920428D01*
X198224476Y-62015666D01*
X198272095Y-62110904D01*
X197986380Y-60682333D02*
X197986380Y-60872809D01*
X198034000Y-60968047D01*
X198081619Y-61015666D01*
X198224476Y-61110904D01*
X198414952Y-61158523D01*
X198795904Y-61158523D01*
X198891142Y-61110904D01*
X198938761Y-61063285D01*
X198986380Y-60968047D01*
X198986380Y-60777571D01*
X198938761Y-60682333D01*
X198891142Y-60634714D01*
X198795904Y-60587095D01*
X198557809Y-60587095D01*
X198462571Y-60634714D01*
X198414952Y-60682333D01*
X198367333Y-60777571D01*
X198367333Y-60968047D01*
X198414952Y-61063285D01*
X198462571Y-61110904D01*
X198557809Y-61158523D01*
%TO.C,R17*%
X197208380Y-62491857D02*
X196732190Y-62825190D01*
X197208380Y-63063285D02*
X196208380Y-63063285D01*
X196208380Y-62682333D01*
X196256000Y-62587095D01*
X196303619Y-62539476D01*
X196398857Y-62491857D01*
X196541714Y-62491857D01*
X196636952Y-62539476D01*
X196684571Y-62587095D01*
X196732190Y-62682333D01*
X196732190Y-63063285D01*
X197208380Y-61539476D02*
X197208380Y-62110904D01*
X197208380Y-61825190D02*
X196208380Y-61825190D01*
X196351238Y-61920428D01*
X196446476Y-62015666D01*
X196494095Y-62110904D01*
X196208380Y-61206142D02*
X196208380Y-60539476D01*
X197208380Y-60968047D01*
%TO.C,R18*%
X195176380Y-62491857D02*
X194700190Y-62825190D01*
X195176380Y-63063285D02*
X194176380Y-63063285D01*
X194176380Y-62682333D01*
X194224000Y-62587095D01*
X194271619Y-62539476D01*
X194366857Y-62491857D01*
X194509714Y-62491857D01*
X194604952Y-62539476D01*
X194652571Y-62587095D01*
X194700190Y-62682333D01*
X194700190Y-63063285D01*
X195176380Y-61539476D02*
X195176380Y-62110904D01*
X195176380Y-61825190D02*
X194176380Y-61825190D01*
X194319238Y-61920428D01*
X194414476Y-62015666D01*
X194462095Y-62110904D01*
X194604952Y-60968047D02*
X194557333Y-61063285D01*
X194509714Y-61110904D01*
X194414476Y-61158523D01*
X194366857Y-61158523D01*
X194271619Y-61110904D01*
X194224000Y-61063285D01*
X194176380Y-60968047D01*
X194176380Y-60777571D01*
X194224000Y-60682333D01*
X194271619Y-60634714D01*
X194366857Y-60587095D01*
X194414476Y-60587095D01*
X194509714Y-60634714D01*
X194557333Y-60682333D01*
X194604952Y-60777571D01*
X194604952Y-60968047D01*
X194652571Y-61063285D01*
X194700190Y-61110904D01*
X194795428Y-61158523D01*
X194985904Y-61158523D01*
X195081142Y-61110904D01*
X195128761Y-61063285D01*
X195176380Y-60968047D01*
X195176380Y-60777571D01*
X195128761Y-60682333D01*
X195081142Y-60634714D01*
X194985904Y-60587095D01*
X194795428Y-60587095D01*
X194700190Y-60634714D01*
X194652571Y-60682333D01*
X194604952Y-60777571D01*
%TO.C,R20*%
X193144380Y-62491857D02*
X192668190Y-62825190D01*
X193144380Y-63063285D02*
X192144380Y-63063285D01*
X192144380Y-62682333D01*
X192192000Y-62587095D01*
X192239619Y-62539476D01*
X192334857Y-62491857D01*
X192477714Y-62491857D01*
X192572952Y-62539476D01*
X192620571Y-62587095D01*
X192668190Y-62682333D01*
X192668190Y-63063285D01*
X192239619Y-62110904D02*
X192192000Y-62063285D01*
X192144380Y-61968047D01*
X192144380Y-61729952D01*
X192192000Y-61634714D01*
X192239619Y-61587095D01*
X192334857Y-61539476D01*
X192430095Y-61539476D01*
X192572952Y-61587095D01*
X193144380Y-62158523D01*
X193144380Y-61539476D01*
X192144380Y-60920428D02*
X192144380Y-60825190D01*
X192192000Y-60729952D01*
X192239619Y-60682333D01*
X192334857Y-60634714D01*
X192525333Y-60587095D01*
X192763428Y-60587095D01*
X192953904Y-60634714D01*
X193049142Y-60682333D01*
X193096761Y-60729952D01*
X193144380Y-60825190D01*
X193144380Y-60920428D01*
X193096761Y-61015666D01*
X193049142Y-61063285D01*
X192953904Y-61110904D01*
X192763428Y-61158523D01*
X192525333Y-61158523D01*
X192334857Y-61110904D01*
X192239619Y-61063285D01*
X192192000Y-61015666D01*
X192144380Y-60920428D01*
%TO.C,R21*%
X191112380Y-62491857D02*
X190636190Y-62825190D01*
X191112380Y-63063285D02*
X190112380Y-63063285D01*
X190112380Y-62682333D01*
X190160000Y-62587095D01*
X190207619Y-62539476D01*
X190302857Y-62491857D01*
X190445714Y-62491857D01*
X190540952Y-62539476D01*
X190588571Y-62587095D01*
X190636190Y-62682333D01*
X190636190Y-63063285D01*
X190207619Y-62110904D02*
X190160000Y-62063285D01*
X190112380Y-61968047D01*
X190112380Y-61729952D01*
X190160000Y-61634714D01*
X190207619Y-61587095D01*
X190302857Y-61539476D01*
X190398095Y-61539476D01*
X190540952Y-61587095D01*
X191112380Y-62158523D01*
X191112380Y-61539476D01*
X191112380Y-60587095D02*
X191112380Y-61158523D01*
X191112380Y-60872809D02*
X190112380Y-60872809D01*
X190255238Y-60968047D01*
X190350476Y-61063285D01*
X190398095Y-61158523D01*
%TO.C,R22*%
X189080380Y-62491857D02*
X188604190Y-62825190D01*
X189080380Y-63063285D02*
X188080380Y-63063285D01*
X188080380Y-62682333D01*
X188128000Y-62587095D01*
X188175619Y-62539476D01*
X188270857Y-62491857D01*
X188413714Y-62491857D01*
X188508952Y-62539476D01*
X188556571Y-62587095D01*
X188604190Y-62682333D01*
X188604190Y-63063285D01*
X188175619Y-62110904D02*
X188128000Y-62063285D01*
X188080380Y-61968047D01*
X188080380Y-61729952D01*
X188128000Y-61634714D01*
X188175619Y-61587095D01*
X188270857Y-61539476D01*
X188366095Y-61539476D01*
X188508952Y-61587095D01*
X189080380Y-62158523D01*
X189080380Y-61539476D01*
X188175619Y-61158523D02*
X188128000Y-61110904D01*
X188080380Y-61015666D01*
X188080380Y-60777571D01*
X188128000Y-60682333D01*
X188175619Y-60634714D01*
X188270857Y-60587095D01*
X188366095Y-60587095D01*
X188508952Y-60634714D01*
X189080380Y-61206142D01*
X189080380Y-60587095D01*
%TO.C,R23*%
X187048380Y-62491857D02*
X186572190Y-62825190D01*
X187048380Y-63063285D02*
X186048380Y-63063285D01*
X186048380Y-62682333D01*
X186096000Y-62587095D01*
X186143619Y-62539476D01*
X186238857Y-62491857D01*
X186381714Y-62491857D01*
X186476952Y-62539476D01*
X186524571Y-62587095D01*
X186572190Y-62682333D01*
X186572190Y-63063285D01*
X186143619Y-62110904D02*
X186096000Y-62063285D01*
X186048380Y-61968047D01*
X186048380Y-61729952D01*
X186096000Y-61634714D01*
X186143619Y-61587095D01*
X186238857Y-61539476D01*
X186334095Y-61539476D01*
X186476952Y-61587095D01*
X187048380Y-62158523D01*
X187048380Y-61539476D01*
X186048380Y-61206142D02*
X186048380Y-60587095D01*
X186429333Y-60920428D01*
X186429333Y-60777571D01*
X186476952Y-60682333D01*
X186524571Y-60634714D01*
X186619809Y-60587095D01*
X186857904Y-60587095D01*
X186953142Y-60634714D01*
X187000761Y-60682333D01*
X187048380Y-60777571D01*
X187048380Y-61063285D01*
X187000761Y-61158523D01*
X186953142Y-61206142D01*
%TO.C,R24*%
X185016380Y-62491857D02*
X184540190Y-62825190D01*
X185016380Y-63063285D02*
X184016380Y-63063285D01*
X184016380Y-62682333D01*
X184064000Y-62587095D01*
X184111619Y-62539476D01*
X184206857Y-62491857D01*
X184349714Y-62491857D01*
X184444952Y-62539476D01*
X184492571Y-62587095D01*
X184540190Y-62682333D01*
X184540190Y-63063285D01*
X184111619Y-62110904D02*
X184064000Y-62063285D01*
X184016380Y-61968047D01*
X184016380Y-61729952D01*
X184064000Y-61634714D01*
X184111619Y-61587095D01*
X184206857Y-61539476D01*
X184302095Y-61539476D01*
X184444952Y-61587095D01*
X185016380Y-62158523D01*
X185016380Y-61539476D01*
X184349714Y-60682333D02*
X185016380Y-60682333D01*
X183968761Y-60920428D02*
X184683047Y-61158523D01*
X184683047Y-60539476D01*
%TO.C,R25*%
X182984380Y-62491857D02*
X182508190Y-62825190D01*
X182984380Y-63063285D02*
X181984380Y-63063285D01*
X181984380Y-62682333D01*
X182032000Y-62587095D01*
X182079619Y-62539476D01*
X182174857Y-62491857D01*
X182317714Y-62491857D01*
X182412952Y-62539476D01*
X182460571Y-62587095D01*
X182508190Y-62682333D01*
X182508190Y-63063285D01*
X182079619Y-62110904D02*
X182032000Y-62063285D01*
X181984380Y-61968047D01*
X181984380Y-61729952D01*
X182032000Y-61634714D01*
X182079619Y-61587095D01*
X182174857Y-61539476D01*
X182270095Y-61539476D01*
X182412952Y-61587095D01*
X182984380Y-62158523D01*
X182984380Y-61539476D01*
X181984380Y-60634714D02*
X181984380Y-61110904D01*
X182460571Y-61158523D01*
X182412952Y-61110904D01*
X182365333Y-61015666D01*
X182365333Y-60777571D01*
X182412952Y-60682333D01*
X182460571Y-60634714D01*
X182555809Y-60587095D01*
X182793904Y-60587095D01*
X182889142Y-60634714D01*
X182936761Y-60682333D01*
X182984380Y-60777571D01*
X182984380Y-61015666D01*
X182936761Y-61110904D01*
X182889142Y-61158523D01*
%TO.C,R28*%
X219367380Y-52585857D02*
X218891190Y-52919190D01*
X219367380Y-53157285D02*
X218367380Y-53157285D01*
X218367380Y-52776333D01*
X218415000Y-52681095D01*
X218462619Y-52633476D01*
X218557857Y-52585857D01*
X218700714Y-52585857D01*
X218795952Y-52633476D01*
X218843571Y-52681095D01*
X218891190Y-52776333D01*
X218891190Y-53157285D01*
X218462619Y-52204904D02*
X218415000Y-52157285D01*
X218367380Y-52062047D01*
X218367380Y-51823952D01*
X218415000Y-51728714D01*
X218462619Y-51681095D01*
X218557857Y-51633476D01*
X218653095Y-51633476D01*
X218795952Y-51681095D01*
X219367380Y-52252523D01*
X219367380Y-51633476D01*
X218795952Y-51062047D02*
X218748333Y-51157285D01*
X218700714Y-51204904D01*
X218605476Y-51252523D01*
X218557857Y-51252523D01*
X218462619Y-51204904D01*
X218415000Y-51157285D01*
X218367380Y-51062047D01*
X218367380Y-50871571D01*
X218415000Y-50776333D01*
X218462619Y-50728714D01*
X218557857Y-50681095D01*
X218605476Y-50681095D01*
X218700714Y-50728714D01*
X218748333Y-50776333D01*
X218795952Y-50871571D01*
X218795952Y-51062047D01*
X218843571Y-51157285D01*
X218891190Y-51204904D01*
X218986428Y-51252523D01*
X219176904Y-51252523D01*
X219272142Y-51204904D01*
X219319761Y-51157285D01*
X219367380Y-51062047D01*
X219367380Y-50871571D01*
X219319761Y-50776333D01*
X219272142Y-50728714D01*
X219176904Y-50681095D01*
X218986428Y-50681095D01*
X218891190Y-50728714D01*
X218843571Y-50776333D01*
X218795952Y-50871571D01*
%TO.C,C2*%
X130770333Y-52648142D02*
X130722714Y-52695761D01*
X130579857Y-52743380D01*
X130484619Y-52743380D01*
X130341761Y-52695761D01*
X130246523Y-52600523D01*
X130198904Y-52505285D01*
X130151285Y-52314809D01*
X130151285Y-52171952D01*
X130198904Y-51981476D01*
X130246523Y-51886238D01*
X130341761Y-51791000D01*
X130484619Y-51743380D01*
X130579857Y-51743380D01*
X130722714Y-51791000D01*
X130770333Y-51838619D01*
X131151285Y-51838619D02*
X131198904Y-51791000D01*
X131294142Y-51743380D01*
X131532238Y-51743380D01*
X131627476Y-51791000D01*
X131675095Y-51838619D01*
X131722714Y-51933857D01*
X131722714Y-52029095D01*
X131675095Y-52171952D01*
X131103666Y-52743380D01*
X131722714Y-52743380D01*
%TO.C,C11*%
X127451142Y-48902857D02*
X127498761Y-48950476D01*
X127546380Y-49093333D01*
X127546380Y-49188571D01*
X127498761Y-49331428D01*
X127403523Y-49426666D01*
X127308285Y-49474285D01*
X127117809Y-49521904D01*
X126974952Y-49521904D01*
X126784476Y-49474285D01*
X126689238Y-49426666D01*
X126594000Y-49331428D01*
X126546380Y-49188571D01*
X126546380Y-49093333D01*
X126594000Y-48950476D01*
X126641619Y-48902857D01*
X127546380Y-47950476D02*
X127546380Y-48521904D01*
X127546380Y-48236190D02*
X126546380Y-48236190D01*
X126689238Y-48331428D01*
X126784476Y-48426666D01*
X126832095Y-48521904D01*
X127546380Y-46998095D02*
X127546380Y-47569523D01*
X127546380Y-47283809D02*
X126546380Y-47283809D01*
X126689238Y-47379047D01*
X126784476Y-47474285D01*
X126832095Y-47569523D01*
%TO.C,C12*%
X135645142Y-48013857D02*
X135692761Y-48061476D01*
X135740380Y-48204333D01*
X135740380Y-48299571D01*
X135692761Y-48442428D01*
X135597523Y-48537666D01*
X135502285Y-48585285D01*
X135311809Y-48632904D01*
X135168952Y-48632904D01*
X134978476Y-48585285D01*
X134883238Y-48537666D01*
X134788000Y-48442428D01*
X134740380Y-48299571D01*
X134740380Y-48204333D01*
X134788000Y-48061476D01*
X134835619Y-48013857D01*
X135740380Y-47061476D02*
X135740380Y-47632904D01*
X135740380Y-47347190D02*
X134740380Y-47347190D01*
X134883238Y-47442428D01*
X134978476Y-47537666D01*
X135026095Y-47632904D01*
X134835619Y-46680523D02*
X134788000Y-46632904D01*
X134740380Y-46537666D01*
X134740380Y-46299571D01*
X134788000Y-46204333D01*
X134835619Y-46156714D01*
X134930857Y-46109095D01*
X135026095Y-46109095D01*
X135168952Y-46156714D01*
X135740380Y-46728142D01*
X135740380Y-46109095D01*
%TO.C,C19*%
X140053142Y-55506857D02*
X140100761Y-55554476D01*
X140148380Y-55697333D01*
X140148380Y-55792571D01*
X140100761Y-55935428D01*
X140005523Y-56030666D01*
X139910285Y-56078285D01*
X139719809Y-56125904D01*
X139576952Y-56125904D01*
X139386476Y-56078285D01*
X139291238Y-56030666D01*
X139196000Y-55935428D01*
X139148380Y-55792571D01*
X139148380Y-55697333D01*
X139196000Y-55554476D01*
X139243619Y-55506857D01*
X140148380Y-54554476D02*
X140148380Y-55125904D01*
X140148380Y-54840190D02*
X139148380Y-54840190D01*
X139291238Y-54935428D01*
X139386476Y-55030666D01*
X139434095Y-55125904D01*
X140148380Y-54078285D02*
X140148380Y-53887809D01*
X140100761Y-53792571D01*
X140053142Y-53744952D01*
X139910285Y-53649714D01*
X139719809Y-53602095D01*
X139338857Y-53602095D01*
X139243619Y-53649714D01*
X139196000Y-53697333D01*
X139148380Y-53792571D01*
X139148380Y-53983047D01*
X139196000Y-54078285D01*
X139243619Y-54125904D01*
X139338857Y-54173523D01*
X139576952Y-54173523D01*
X139672190Y-54125904D01*
X139719809Y-54078285D01*
X139767428Y-53983047D01*
X139767428Y-53792571D01*
X139719809Y-53697333D01*
X139672190Y-53649714D01*
X139576952Y-53602095D01*
%TO.C,C20*%
X132089142Y-42933857D02*
X132136761Y-42981476D01*
X132184380Y-43124333D01*
X132184380Y-43219571D01*
X132136761Y-43362428D01*
X132041523Y-43457666D01*
X131946285Y-43505285D01*
X131755809Y-43552904D01*
X131612952Y-43552904D01*
X131422476Y-43505285D01*
X131327238Y-43457666D01*
X131232000Y-43362428D01*
X131184380Y-43219571D01*
X131184380Y-43124333D01*
X131232000Y-42981476D01*
X131279619Y-42933857D01*
X131279619Y-42552904D02*
X131232000Y-42505285D01*
X131184380Y-42410047D01*
X131184380Y-42171952D01*
X131232000Y-42076714D01*
X131279619Y-42029095D01*
X131374857Y-41981476D01*
X131470095Y-41981476D01*
X131612952Y-42029095D01*
X132184380Y-42600523D01*
X132184380Y-41981476D01*
X131184380Y-41362428D02*
X131184380Y-41267190D01*
X131232000Y-41171952D01*
X131279619Y-41124333D01*
X131374857Y-41076714D01*
X131565333Y-41029095D01*
X131803428Y-41029095D01*
X131993904Y-41076714D01*
X132089142Y-41124333D01*
X132136761Y-41171952D01*
X132184380Y-41267190D01*
X132184380Y-41362428D01*
X132136761Y-41457666D01*
X132089142Y-41505285D01*
X131993904Y-41552904D01*
X131803428Y-41600523D01*
X131565333Y-41600523D01*
X131374857Y-41552904D01*
X131279619Y-41505285D01*
X131232000Y-41457666D01*
X131184380Y-41362428D01*
%TO.C,C21*%
X141623642Y-58998142D02*
X141576023Y-59045761D01*
X141433166Y-59093380D01*
X141337928Y-59093380D01*
X141195071Y-59045761D01*
X141099833Y-58950523D01*
X141052214Y-58855285D01*
X141004595Y-58664809D01*
X141004595Y-58521952D01*
X141052214Y-58331476D01*
X141099833Y-58236238D01*
X141195071Y-58141000D01*
X141337928Y-58093380D01*
X141433166Y-58093380D01*
X141576023Y-58141000D01*
X141623642Y-58188619D01*
X142004595Y-58188619D02*
X142052214Y-58141000D01*
X142147452Y-58093380D01*
X142385547Y-58093380D01*
X142480785Y-58141000D01*
X142528404Y-58188619D01*
X142576023Y-58283857D01*
X142576023Y-58379095D01*
X142528404Y-58521952D01*
X141956976Y-59093380D01*
X142576023Y-59093380D01*
X143528404Y-59093380D02*
X142956976Y-59093380D01*
X143242690Y-59093380D02*
X143242690Y-58093380D01*
X143147452Y-58236238D01*
X143052214Y-58331476D01*
X142956976Y-58379095D01*
%TO.C,C22*%
X141724142Y-56270142D02*
X141676523Y-56317761D01*
X141533666Y-56365380D01*
X141438428Y-56365380D01*
X141295571Y-56317761D01*
X141200333Y-56222523D01*
X141152714Y-56127285D01*
X141105095Y-55936809D01*
X141105095Y-55793952D01*
X141152714Y-55603476D01*
X141200333Y-55508238D01*
X141295571Y-55413000D01*
X141438428Y-55365380D01*
X141533666Y-55365380D01*
X141676523Y-55413000D01*
X141724142Y-55460619D01*
X142105095Y-55460619D02*
X142152714Y-55413000D01*
X142247952Y-55365380D01*
X142486047Y-55365380D01*
X142581285Y-55413000D01*
X142628904Y-55460619D01*
X142676523Y-55555857D01*
X142676523Y-55651095D01*
X142628904Y-55793952D01*
X142057476Y-56365380D01*
X142676523Y-56365380D01*
X143057476Y-55460619D02*
X143105095Y-55413000D01*
X143200333Y-55365380D01*
X143438428Y-55365380D01*
X143533666Y-55413000D01*
X143581285Y-55460619D01*
X143628904Y-55555857D01*
X143628904Y-55651095D01*
X143581285Y-55793952D01*
X143009857Y-56365380D01*
X143628904Y-56365380D01*
%TO.C,L1*%
X130679380Y-43219666D02*
X130679380Y-43695857D01*
X129679380Y-43695857D01*
X130679380Y-42362523D02*
X130679380Y-42933952D01*
X130679380Y-42648238D02*
X129679380Y-42648238D01*
X129822238Y-42743476D01*
X129917476Y-42838714D01*
X129965095Y-42933952D01*
%TO.C,L2*%
X132607380Y-52617666D02*
X132607380Y-53093857D01*
X131607380Y-53093857D01*
X131702619Y-52331952D02*
X131655000Y-52284333D01*
X131607380Y-52189095D01*
X131607380Y-51951000D01*
X131655000Y-51855761D01*
X131702619Y-51808142D01*
X131797857Y-51760523D01*
X131893095Y-51760523D01*
X132035952Y-51808142D01*
X132607380Y-52379571D01*
X132607380Y-51760523D01*
%TO.C,R19*%
X130421142Y-51092380D02*
X130087809Y-50616190D01*
X129849714Y-51092380D02*
X129849714Y-50092380D01*
X130230666Y-50092380D01*
X130325904Y-50140000D01*
X130373523Y-50187619D01*
X130421142Y-50282857D01*
X130421142Y-50425714D01*
X130373523Y-50520952D01*
X130325904Y-50568571D01*
X130230666Y-50616190D01*
X129849714Y-50616190D01*
X131373523Y-51092380D02*
X130802095Y-51092380D01*
X131087809Y-51092380D02*
X131087809Y-50092380D01*
X130992571Y-50235238D01*
X130897333Y-50330476D01*
X130802095Y-50378095D01*
X131849714Y-51092380D02*
X132040190Y-51092380D01*
X132135428Y-51044761D01*
X132183047Y-50997142D01*
X132278285Y-50854285D01*
X132325904Y-50663809D01*
X132325904Y-50282857D01*
X132278285Y-50187619D01*
X132230666Y-50140000D01*
X132135428Y-50092380D01*
X131944952Y-50092380D01*
X131849714Y-50140000D01*
X131802095Y-50187619D01*
X131754476Y-50282857D01*
X131754476Y-50520952D01*
X131802095Y-50616190D01*
X131849714Y-50663809D01*
X131944952Y-50711428D01*
X132135428Y-50711428D01*
X132230666Y-50663809D01*
X132278285Y-50616190D01*
X132325904Y-50520952D01*
%TO.C,U5*%
X133093380Y-48513904D02*
X133902904Y-48513904D01*
X133998142Y-48466285D01*
X134045761Y-48418666D01*
X134093380Y-48323428D01*
X134093380Y-48132952D01*
X134045761Y-48037714D01*
X133998142Y-47990095D01*
X133902904Y-47942476D01*
X133093380Y-47942476D01*
X133093380Y-46990095D02*
X133093380Y-47466285D01*
X133569571Y-47513904D01*
X133521952Y-47466285D01*
X133474333Y-47371047D01*
X133474333Y-47132952D01*
X133521952Y-47037714D01*
X133569571Y-46990095D01*
X133664809Y-46942476D01*
X133902904Y-46942476D01*
X133998142Y-46990095D01*
X134045761Y-47037714D01*
X134093380Y-47132952D01*
X134093380Y-47371047D01*
X134045761Y-47466285D01*
X133998142Y-47513904D01*
%TO.C,U12*%
X141128904Y-53702380D02*
X141128904Y-54511904D01*
X141176523Y-54607142D01*
X141224142Y-54654761D01*
X141319380Y-54702380D01*
X141509857Y-54702380D01*
X141605095Y-54654761D01*
X141652714Y-54607142D01*
X141700333Y-54511904D01*
X141700333Y-53702380D01*
X142700333Y-54702380D02*
X142128904Y-54702380D01*
X142414619Y-54702380D02*
X142414619Y-53702380D01*
X142319380Y-53845238D01*
X142224142Y-53940476D01*
X142128904Y-53988095D01*
X143081285Y-53797619D02*
X143128904Y-53750000D01*
X143224142Y-53702380D01*
X143462238Y-53702380D01*
X143557476Y-53750000D01*
X143605095Y-53797619D01*
X143652714Y-53892857D01*
X143652714Y-53988095D01*
X143605095Y-54130952D01*
X143033666Y-54702380D01*
X143652714Y-54702380D01*
%TO.C,C1*%
X118197333Y-35884142D02*
X118149714Y-35931761D01*
X118006857Y-35979380D01*
X117911619Y-35979380D01*
X117768761Y-35931761D01*
X117673523Y-35836523D01*
X117625904Y-35741285D01*
X117578285Y-35550809D01*
X117578285Y-35407952D01*
X117625904Y-35217476D01*
X117673523Y-35122238D01*
X117768761Y-35027000D01*
X117911619Y-34979380D01*
X118006857Y-34979380D01*
X118149714Y-35027000D01*
X118197333Y-35074619D01*
X119149714Y-35979380D02*
X118578285Y-35979380D01*
X118864000Y-35979380D02*
X118864000Y-34979380D01*
X118768761Y-35122238D01*
X118673523Y-35217476D01*
X118578285Y-35265095D01*
%TO.C,C3*%
X121753333Y-38744142D02*
X121705714Y-38791761D01*
X121562857Y-38839380D01*
X121467619Y-38839380D01*
X121324761Y-38791761D01*
X121229523Y-38696523D01*
X121181904Y-38601285D01*
X121134285Y-38410809D01*
X121134285Y-38267952D01*
X121181904Y-38077476D01*
X121229523Y-37982238D01*
X121324761Y-37887000D01*
X121467619Y-37839380D01*
X121562857Y-37839380D01*
X121705714Y-37887000D01*
X121753333Y-37934619D01*
X122086666Y-37839380D02*
X122705714Y-37839380D01*
X122372380Y-38220333D01*
X122515238Y-38220333D01*
X122610476Y-38267952D01*
X122658095Y-38315571D01*
X122705714Y-38410809D01*
X122705714Y-38648904D01*
X122658095Y-38744142D01*
X122610476Y-38791761D01*
X122515238Y-38839380D01*
X122229523Y-38839380D01*
X122134285Y-38791761D01*
X122086666Y-38744142D01*
%TD*%
M02*
