<?xml version="1.0" encoding="UTF-8" standalone="no"?>
<!-- Created with Inkscape (http://www.inkscape.org/) -->

<svg
   xmlns:dc="http://purl.org/dc/elements/1.1/"
   xmlns:cc="http://creativecommons.org/ns#"
   xmlns:rdf="http://www.w3.org/1999/02/22-rdf-syntax-ns#"
   xmlns:svg="http://www.w3.org/2000/svg"
   xmlns="http://www.w3.org/2000/svg"
   xmlns:sodipodi="http://sodipodi.sourceforge.net/DTD/sodipodi-0.dtd"
   xmlns:inkscape="http://www.inkscape.org/namespaces/inkscape"
   width="80mm"
   height="50mm"
   viewBox="0 0 80 50"
   version="1.1"
   id="svg8"
   inkscape:version="0.92.2 5c3e80d, 2017-08-06"
   sodipodi:docname="title.svg">
  <defs
     id="defs2" />
  <sodipodi:namedview
     id="base"
     pagecolor="#ffffff"
     bordercolor="#666666"
     borderopacity="1.0"
     inkscape:pageopacity="0.0"
     inkscape:pageshadow="2"
     inkscape:zoom="2.8"
     inkscape:cx="188.59841"
     inkscape:cy="102.99537"
     inkscape:document-units="mm"
     inkscape:current-layer="flowRoot10"
     showgrid="false"
     inkscape:window-width="1440"
     inkscape:window-height="855"
     inkscape:window-x="0"
     inkscape:window-y="1"
     inkscape:window-maximized="1"
     showguides="false" />
  <metadata
     id="metadata5">
    <rdf:RDF>
      <cc:Work
         rdf:about="">
        <dc:format>image/svg+xml</dc:format>
        <dc:type
           rdf:resource="http://purl.org/dc/dcmitype/StillImage" />
        <dc:title />
      </cc:Work>
    </rdf:RDF>
  </metadata>
  <g
     inkscape:label="SilkS"
     inkscape:groupmode="layer"
     id="layer1"
     transform="translate(0,-247)">
    <g
       id="g1027"
       style="font-style:normal;font-weight:normal;font-size:40px;line-height:125%;font-family:sans-serif;letter-spacing:0px;word-spacing:0px;fill:#666666;fill-opacity:1;stroke:none;stroke-width:1px;stroke-linecap:butt;stroke-linejoin:miter;stroke-opacity:1"
       transform="matrix(0.26458333,0,0,0.26458333,-12.773584,221.69681)"
       aria-label="Will Buxton" />
    <g
       id="g892"
       style="font-style:normal;font-variant:normal;font-weight:normal;font-stretch:normal;font-size:80px;line-height:125%;font-family:OCR-A;-inkscape-font-specification:'OCR-A, Normal';font-variant-ligatures:normal;font-variant-caps:normal;font-variant-numeric:normal;font-feature-settings:normal;text-align:start;letter-spacing:0px;word-spacing:0px;writing-mode:lr-tb;text-anchor:start;fill:none;fill-opacity:1;stroke:#202e34;stroke-width:1px;stroke-linecap:butt;stroke-linejoin:miter;stroke-opacity:1"
       transform="matrix(0.26458333,0,0,0.26458333,-8.3636367,225.83949)"
       aria-label="Apple1" />
    <g
       aria-label="Apple1"
       transform="matrix(0.26458333,0,0,0.26458333,-8.3636367,225.83949)"
       style="font-style:normal;font-variant:normal;font-weight:normal;font-stretch:normal;font-size:80px;line-height:125%;font-family:OCR-A;-inkscape-font-specification:'OCR-A, Normal';font-variant-ligatures:normal;font-variant-caps:normal;font-variant-numeric:normal;font-feature-settings:normal;text-align:start;letter-spacing:0px;word-spacing:0px;writing-mode:lr-tb;text-anchor:start;fill:none;fill-opacity:0.99523807;stroke:#202e34;stroke-width:1px;stroke-linecap:butt;stroke-linejoin:miter;stroke-opacity:1"
       id="flowRoot10">
      <path
         id="path930"
         style="font-style:normal;font-variant:normal;font-weight:normal;font-stretch:normal;font-size:80px;font-family:OCR-A;-inkscape-font-specification:'OCR-A, Normal';font-variant-ligatures:normal;font-variant-caps:normal;font-variant-numeric:normal;font-feature-settings:normal;text-align:start;writing-mode:lr-tb;text-anchor:start;fill:#ff1700;fill-opacity:1;stroke:#202e34;stroke-opacity:1"
         d="M -12.143694,-12.094587 -16.786551,199.33343 307.8577,203.61914 304.28627,-6.0231585 Z m 46.508928,39.225446 c 2.56865,0 5.253249,0.644092 7.558594,1.857422 2.20042,1.15862 3.836859,3.160115 4.535156,5.546875 l 6.580078,22.5 v -4.482422 c -3.1e-4,-1.35176 0.297787,-2.686916 0.873047,-3.910156 1.326794,-2.81945 3.428774,-4.807987 5.533203,-6.210937 1.081065,-0.72018 2.302619,-1.202806 3.583985,-1.416016 1.38413,-0.230678 2.101831,-0.205078 3.03125,-0.205078 0.89576,0 1.65292,-0.011 2.949219,0.205078 1.24566,0.20741 2.43515,0.669512 3.49414,1.357422 0.0135,0.0088 0.02361,0.0242 0.03711,0.0332 1.12448,-0.79278 2.412711,-1.322771 3.769531,-1.550781 C 78.718567,40.454129 81.148458,40.25 83.580078,40.25 h 1.439453 c 0.50584,1e-5 1.010816,0.0418 1.509766,0.125 0.43839,0.0731 0.810859,0.03516 -0.150391,0.03516 1.52709,-2.1e-4 3.030117,0.380422 4.373047,1.107422 2.99415,1.62183 5.836958,3.50315 8.517578,5.615234 0.57453,0.43255 1.130379,1.012924 1.701169,1.470704 1.32793,-2.79518 3.41282,-4.776525 5.50586,-6.171875 1.08107,-0.72018 2.30262,-1.202816 3.58399,-1.416016 1.38412,-0.230678 2.10184,-0.205078 3.03125,-0.205078 0.89577,0 1.65292,-0.011 2.94922,0.205078 1.24566,0.20741 2.43515,0.669512 3.49414,1.357422 0.0135,0.0088 0.0236,0.0242 0.0371,0.0332 1.12447,-0.79278 2.41271,-1.322761 3.76953,-1.550781 2.40803,-0.40134 4.83791,-0.605469 7.26953,-0.605469 h 1.43945 c 0.50584,1e-5 1.01082,0.0418 1.50977,0.125 0.43838,0.0731 0.81086,0.03516 -0.15039,0.03516 1.52709,-2.1e-4 3.03011,0.380422 4.37304,1.107422 2.99415,1.62183 5.83696,3.50315 8.51758,5.615234 0.30353,0.22852 0.59598,0.541774 0.89844,0.777344 -1.18901,-2.24012 -1.85938,-4.739501 -1.85938,-6.957031 0,-2.56865 0.65083,-5.312496 1.95508,-7.660156 0.74836,-1.34713 1.82371,-2.484261 3.12696,-3.306641 l 1.51953,-0.958984 c 1.46696,-0.92531 3.16598,-1.416256 4.90039,-1.416016 h 16.56054 c 3.22342,4e-5 6.21081,1.690165 7.8711,4.453125 l 0.96094,1.599609 c 0.32595,0.54305 0.59508,1.118377 0.80273,1.716797 l 0.63867,1.839844 c 0.3362,0.96851 0.50784,1.986509 0.50781,3.011719 V 83.125 c 0.23432,0.02552 0.46756,0.06002 0.69922,0.103516 0.55138,0.11027 1.02766,0.341115 1.54492,0.509765 V 66.3125 c -1.3e-4,-0.67673 0.0745,-1.351399 0.22266,-2.011719 1.0125,-4.51021 3.58582,-8.634417 6.9668,-11.685547 3.03484,-2.73875 6.57969,-4.885919 10.42383,-6.380859 1.06117,-0.41218 2.18971,-0.623447 3.32812,-0.623047 h 16.08008 c 0.78841,2.2e-4 1.57352,0.10198 2.33594,0.302734 1.19767,0.31519 2.19997,0.596744 3.37304,1.064454 0.71648,0.26448 1.49202,0.56555 2.5,0.96875 0.79368,0.31738 1.53916,0.744028 2.21485,1.267578 0.72593,0.5626 1.43902,1.14984 2.14453,1.75 -2.42383,-2.30066 -4.2168,-6.17384 -4.2168,-9.69336 0,-3.00961 1.16037,-6.37043 3.09375,-8.75 0.013,-0.0157 0.026,-0.03128 0.0391,-0.04687 2.09363,-2.54223 5.39852,-4.353407 8.47657,-4.888671 0.51925,-0.08997 1.04527,-0.135036 1.57226,-0.134766 h 19.35938 c 2.21183,-5e-5 4.26052,0.732746 5.83008,1.65039 1.33642,0.74262 2.58007,1.712905 3.54101,2.833985 1.42673,1.66442 2.21096,3.784332 2.21094,5.976562 V 62.375 c 1.57921,-0.37798 3.0394,-0.523435 4.41797,-0.523438 h 0.88086 c 2.59642,3e-5 5.07148,1.099191 6.8125,3.025391 l 2.24023,2.478516 c 1.52492,1.68783 2.36915,3.88157 2.36914,6.15625 v 26.560551 c -7.7e-4,5.07056 -4.11108,9.18087 -9.18164,9.18164 H 244.8223 c -1.35175,3.2e-4 -2.68692,-0.29779 -3.91016,-0.87305 -0.53625,-0.25235 -1.06196,-0.70524 -1.5957,-1.07813 -0.1951,0.1439 -0.37039,0.35666 -0.56836,0.48438 -1.48394,0.95748 -3.21249,1.46676 -4.97852,1.4668 h -27.20117 c -0.85349,0 -1.70281,-0.11899 -2.52344,-0.35352 -3.86229,-1.10352 -7.29945,-3.32187 -10.25586,-6.04687 -0.52386,1.06955 -1.12873,2.09589 -1.90234,2.97265 -1.47244,1.66963 -3.50124,2.74755 -5.70899,3.03321 l -2.48046,0.32031 c -0.38993,0.0499 -0.78268,0.0747 -1.17579,0.0742 h -26.55859 c -1.68928,-3.6e-4 -3.34574,-0.46668 -4.78711,-1.34766 -1.71041,-1.04525 -3.46149,-2.37194 -4.93359,-4.58008 -0.0652,-0.10161 -0.12836,-0.20449 -0.18946,-0.30859 -0.78928,0.73958 -1.57819,1.51105 -2.36718,2.23242 -0.62689,0.57284 -1.33021,1.05596 -2.08985,1.43555 -1.82234,0.91118 -3.76895,1.614 -5.82617,2.00586 -1.80236,0.3433 -3.61958,0.48242 -5.47851,0.48242 -1.04669,0 -1.92465,-0.0199 -2.97852,-0.13086 v 3.66992 c 2.1e-4,1.69922 -0.47104,3.36518 -1.36133,4.8125 -0.507,0.82388 -0.83129,1.39071 -1.60937,2.36328 -0.58745,0.73431 -1.07633,1.23453 -1.63868,1.79688 -0.75651,0.75676 -1.63971,1.37544 -2.60937,1.82812 -2.08515,0.97309 -4.38213,1.41992 -6.52344,1.41992 -3.35237,0 -6.76766,-1.36451 -9.17578,-3.29101 -1.03752,-0.83027 -1.88248,-1.87582 -2.47656,-3.06446 l -0.56055,-1.11914 c -0.34975,-0.69948 -0.70714,-1.45349 -1.01367,-2.67968 -0.18184,-0.72822 -0.27363,-1.476 -0.27344,-2.22657 v -10.52148 c -1.138462,1.07854 -2.277883,2.17818 -3.416013,3.21875 -0.62689,0.57284 -1.330204,1.05596 -2.089844,1.43555 -1.82234,0.91118 -3.768952,1.614 -5.826172,2.00586 -1.80236,0.3433 -3.619585,0.48242 -5.478515,0.48242 -1.04669,0 -1.924646,-0.0199 -2.978516,-0.13086 v 3.66992 c 2.1e-4,1.69922 -0.471038,3.36518 -1.361328,4.8125 -0.507,0.82388 -0.831305,1.39071 -1.609375,2.36328 -0.58746,0.73431 -1.076322,1.23453 -1.638672,1.79688 -0.75663,0.75676 -1.639715,1.37544 -2.609375,1.82812 -1.76447,0.82343 -3.676293,1.2493 -5.521484,1.36719 l 0.121093,0.20312 c 0.198157,0.33161 0.362398,0.68234 0.490235,1.04688 l 0.214844,0.61328 c 0.213559,0.61082 0.322525,1.25331 0.322265,1.90039 v 12.55859 c 0.36175,0.19296 0.845578,0.29391 1.142578,0.51172 0.70019,0.51321 1.275101,1.17827 1.681641,1.94532 0.61786,1.16706 0.908203,2.50778 0.908203,3.70507 0,1.59796 -0.651541,3.57923 -1.837891,4.92383 -0.92106,1.04414 -2.189641,1.71868 -3.570312,1.89844 l -0.826172,0.10742 c -0.246125,0.0316 -0.494039,0.0473 -0.742188,0.0469 h -8.853515 c -0.753755,-0.002 -1.499667,-0.15314 -2.195313,-0.44336 -0.383812,0.13813 -0.781237,0.23506 -1.185546,0.28906 l -0.828126,0.10742 c -0.245472,0.0315 -0.492737,0.0472 -0.740234,0.0469 h -8.851562 c -0.787219,-0.002 -1.565659,-0.16547 -2.28711,-0.48047 -0.726275,0.3171 -1.51025,0.48068 -2.302734,0.48047 h -9.386719 c -0.858231,-0.002 -1.705107,-0.19634 -2.478515,-0.56836 -0.04104,0.0191 -0.07595,0.054 -0.117188,0.0723 -0.735358,0.32699 -1.531157,0.496 -2.335938,0.4961 h -2.560546 c -0.470122,-8e-5 -0.938461,-0.0578 -1.394532,-0.17188 -0.05393,-0.0135 -0.07431,-0.0443 -0.126953,-0.0586 -0.519069,0.15157 -1.056917,0.22947 -1.597656,0.23047 h -3.441406 c -1.033028,2.9e-4 -2.047062,-0.27768 -2.935547,-0.80469 -1.373497,-0.8155 -2.5625008,-2.02059 -3.3691408,-3.35156 -0.034882,-0.058 -0.068743,-0.11658 -0.1015624,-0.17578 -0.693635,-1.24125 -1.1443207,-2.63353 -1.3222657,-4.02149 -0.03112,-0.24225 -0.046779,-0.48623 -0.046875,-0.73047 v -16.8789 c -3.5e-4,-0.34516 0.030367,-0.68965 0.091797,-1.0293 0.307801,-1.69322 1.2741801,-2.99693 2.1269531,-3.77539 1.5651208,-1.42922 3.4910698,-1.79883 4.8105468,-1.79883 1.694187,0 4.060852,1.03416 5.507813,2.64844 1.27367,-1.39925 3.394127,-2.6211 5.373046,-2.6211 0.698046,0 1.430122,0.18637 2.15625,0.46094 0.629854,-0.5341 1.360894,-1.0396 2.34375,-1.36719 0.586336,-0.19542 1.200331,-0.29496 1.81836,-0.29492 h 2.345703 c 1.042262,-3.8e-4 2.065035,0.28248 2.958984,0.81836 0.893049,0.5358 1.206358,0.88603 1.480469,1.20508 0.08815,0.0807 0.164868,0.14541 0.292969,0.27344 0.182465,0.18555 0.352126,0.38326 0.507812,0.59179 0.221553,-0.19631 0.457939,-0.37523 0.707031,-0.53515 l 0.507813,-0.32031 c 0.918549,-0.57935 1.982366,-0.88678 3.068359,-0.88672 h 5.519532 c 1.523892,0.003 2.984328,0.61056 4.060546,1.68945 0.201616,-0.17343 0.415019,-0.33266 0.638672,-0.47656 l 0.50586,-0.32032 c 0.920176,-0.58277 1.986946,-0.89236 3.076172,-0.89257 h 0.27539 l 0.08594,-0.20899 c -0.982035,-0.81376 -1.788681,-1.81908 -2.359375,-2.96094 l -0.560547,-1.11914 c -0.349778,-0.69954 -0.707177,-1.45374 -1.013672,-2.67968 -0.181798,-0.72822 -0.273616,-1.476 -0.273438,-2.22657 v -2.36132 c -0.775326,0.15359 -1.543509,0.34179 -2.353515,0.34179 -3.046565,0 -5.563121,-1.2411 -7.285156,-2.51953 -2.421012,-1.77869 -3.538899,-3.69888 -4.447266,-5.51562 -0.120048,-0.23988 -0.229525,-0.48491 -0.328125,-0.73438 l -2.347656,-5.949217 h -4.886719 l -2.734375,6.857427 c -0.532007,1.33402 -1.369555,2.52489 -2.445312,3.47656 -2.521255,2.23033 -6.141996,4.14648 -10.244141,4.14648 -2.830017,0 -6.9249669,-1.45195 -9.2011719,-4.34961 -2.276205,-2.89767 -2.6210937,-5.87009 -2.6210938,-8.193357 0,-2.14427 0.3729044,-4.107511 0.9277344,-6.009765 0.00706,-0.0248 0.014184,-0.04952 0.021484,-0.07422 L 22.292969,34.46875 c 0.728793,-2.42255 2.424698,-4.437149 4.6875,-5.568359 2.21178,-1.10588 4.803005,-1.769532 7.384765,-1.769532 z m 33.175782,97.750001 -0.05664,-0.0957 -0.04102,0.10156 c 0.03272,-0.002 0.06496,-0.004 0.09766,-0.006 z M 34.365234,36.3125 c -1.12,0 -2.212642,0.267451 -3.279296,0.800781 L 13.886719,94.3125 c -0.373333,1.28 -0.560547,2.426123 -0.560547,3.439453 0,2.24 0.880625,3.361327 2.640625,3.361327 1.386667,0 2.77349,-0.61515 4.160156,-1.841796 l 5.039063,-12.638672 h 17.359375 l 4.640625,11.759766 c 0.533333,1.06667 1.093021,1.813562 1.679687,2.240232 0.64,0.48 1.253177,0.71875 1.839844,0.71875 0.64,0 1.279922,-0.18526 1.919922,-0.55859 0.64,-0.37333 1.333411,-0.881486 2.080078,-1.521486 0.16,-0.42667 0.266982,-0.906113 0.320312,-1.439453 0.05333,-0.53333 0.05333,-0.986045 0,-1.359375 L 37.646484,37.113281 C 36.633151,36.579951 35.538568,36.3125 34.365234,36.3125 Z m 210.617186,0.320312 c -1.22667,0.21333 -2.21427,0.773028 -2.96094,1.679688 -0.69333,0.85334 -1.03906,1.838984 -1.03906,2.958984 0,1.17333 0.45272,2.187686 1.35938,3.041016 h 15.4414 v 47.439453 h -13.76172 c -0.69333,0.90666 -1.19953,1.707051 -1.51953,2.400391 -0.26667,0.64 -0.40039,1.360156 -0.40039,2.160156 0,1.65334 0.90738,2.906406 2.72071,3.75977 h 38.64062 V 73.511719 l -2.24023,-2.478516 h -0.88086 c -1.49333,0 -2.58597,0.185264 -3.2793,0.558594 -0.64,0.32 -1.17294,0.801406 -1.59961,1.441406 v 18.478516 h -8.7207 v -53.59961 c -0.32,-0.37333 -0.69248,-0.665586 -1.11914,-0.878906 -0.42667,-0.26667 -0.85458,-0.400391 -1.28125,-0.400391 z m -88.14062,0.160157 -1.51953,0.958984 c -0.53333,0.95999 -0.80079,2.027832 -0.80079,3.201172 0,1.54666 0.48141,2.773033 1.44141,3.679687 h 10.32031 v 47.59961 h -9.28125 c -0.21333,0 -0.63929,0.08019 -1.27929,0.240234 -0.58666,0.16 -0.98784,0.293721 -1.20118,0.400391 -0.64,0.96 -0.95898,1.972402 -0.95898,3.039062 0,0.26667 0.0267,0.56086 0.0801,0.88086 l 0.24023,1.439453 c 0.42667,0.64 1.12008,1.253144 2.08008,1.839848 h 26.55859 l 2.48047,-0.320317 c 0.8,-0.90667 1.20117,-2.026045 1.20117,-3.359375 0,-1.12 -0.2407,-2.134346 -0.7207,-3.041016 -0.8,-0.586644 -1.60039,-0.95914 -2.40039,-1.11914 h -8.08008 v -52 l -0.63867,-1.839844 -0.96094,-1.599609 z M 83.580078,49.431641 c -1.92,0 -3.839766,0.160468 -5.759766,0.480468 l -8,5.919922 v -3.11914 C 69.340318,51.646231 68.566664,50.765596 67.5,50.072266 c -0.32,-0.0533 -0.799453,-0.08008 -1.439453,-0.08008 -0.693333,0 -1.201485,0.02668 -1.521485,0.08008 -1.119989,0.74666 -1.891692,1.573798 -2.318359,2.480468 v 59.999996 c 0.05333,0.21333 0.15837,0.47884 0.318359,0.79883 l 0.560547,1.1211 c 1.066666,0.85333 2.212797,1.27929 3.439453,1.27929 0.96,0 1.840627,-0.18525 2.640626,-0.55859 0.426654,-0.42666 0.747607,-0.77436 0.960937,-1.04102 0.21334,-0.26667 0.532314,-0.74611 0.958984,-1.43945 V 95.033203 l 7.679688,4.558594 c 1.17334,0.16 1.973721,0.267012 2.400391,0.320312 0.479994,0.0533 1.173418,0.08008 2.080078,0.08008 1.38667,0 2.639765,-0.106983 3.759765,-0.320313 1.12,-0.21334 2.266123,-0.612549 3.439453,-1.199219 1.86667,-1.70667 3.734893,-3.465957 5.601563,-5.279297 1.92,-1.86666 3.759511,-3.681406 5.519533,-5.441406 l 2,-5.519531 v -0.800781 -2.878907 c 0.0533,-0.96 0.0801,-1.920859 0.0801,-2.880859 0,-3.14667 -0.18722,-5.920303 -0.56055,-8.320313 -0.37334,-2.453314 -1.14697,-4.718828 -2.32031,-6.798828 -2.400038,-2.34667 -4.772474,-4.400156 -7.119144,-6.160156 -2.29333,-1.81333 -4.72125,-3.414111 -7.28125,-4.800781 -0.26666,0 -0.719375,-0.0535 -1.359375,-0.160156 z m 47.031252,0 c -1.92,0 -3.83977,0.160468 -5.75977,0.480468 l -8,5.919922 v -3.11914 c -0.48,-1.06666 -1.25365,-1.947295 -2.32031,-2.640625 -0.32,-0.0533 -0.79944,-0.08008 -1.43945,-0.08008 -0.69333,0 -1.20149,0.02668 -1.52149,0.08008 -1.12,0.74666 -1.89169,1.573798 -2.31836,2.480468 v 59.999996 c 0.0533,0.21333 0.15836,0.47884 0.31836,0.79883 l 0.56055,1.1211 c 1.06666,0.85333 2.21278,1.27929 3.43945,1.27929 0.96,0 1.84063,-0.18525 2.64063,-0.55859 0.42666,-0.42666 0.74761,-0.77436 0.96094,-1.04102 0.21324,-0.26667 0.53231,-0.74611 0.95898,-1.43945 V 95.033203 l 7.67969,4.558594 c 1.17333,0.16 1.97372,0.267012 2.40039,0.320312 0.48,0.0533 1.17342,0.08008 2.08008,0.08008 1.38667,0 2.63976,-0.106983 3.75976,-0.320313 1.12,-0.21334 2.26612,-0.612549 3.43945,-1.199219 1.86667,-1.70667 3.73491,-3.465957 5.60157,-5.279297 1.92001,-1.86666 3.75953,-3.681406 5.51953,-5.441406 l 2,-5.519531 v -0.800781 -2.878907 c 0.0533,-0.96 0.0801,-1.920859 0.0801,-2.880859 0,-3.14667 -0.18722,-5.920303 -0.56055,-8.320313 -0.37334,-2.453314 -1.14698,-4.718828 -2.32031,-6.798828 -2.4,-2.34667 -4.77247,-4.400156 -7.11914,-6.160156 -2.29333,-1.81333 -4.72125,-3.414111 -7.28125,-4.800781 -0.26666,0 -0.71938,-0.0535 -1.35938,-0.160156 z m 105.70898,1.796875 c 1.63765,1.41144 3.22406,2.915007 4.75,4.523437 0.74774,0.78876 1.34954,1.704005 1.77735,2.703125 0.53021,1.23713 0.94312,2.484496 1.33398,3.847656 0.38433,1.28788 0.70056,2.525373 0.93164,3.757813 0.10425,0.55777 0.15653,1.123996 0.15625,1.691406 v 12.800781 c -0.003,0.67912 -0.0819,1.355804 -0.23437,2.017578 h 3.5664 V 53.494141 h -6.25976 c -2.2197,-2.2e-4 -4.35327,-0.813495 -6.02149,-2.265625 z m -28.95117,3.564453 c -2.88,1.12 -5.41294,2.665342 -7.59961,4.638672 -2.18667,1.97334 -3.57356,4.267529 -4.16015,6.880859 v 20.800781 c -10e-6,2.93334 1.06588,5.626748 3.19921,8.080078 2.18667,2.4 4.7731,4.025537 7.75977,4.878911 h 27.20117 c 1.65333,-1.066704 2.47852,-2.453491 2.47852,-4.160161 0,-1.70666 -0.87875,-2.933017 -2.63867,-3.679687 h -23.60157 c -1.28,-0.26666 -2.47961,-0.79962 -3.59961,-1.59961 -1.06667,-0.799984 -1.8938,-1.760859 -2.48047,-2.880859 v -4.71875 h 28.08008 c 0.8,0 1.49341,-0.213955 2.08008,-0.640625 0.58667,-0.42667 1.25333,-1.039844 2,-1.839844 V 67.751953 c -0.16,-0.85334 -0.39875,-1.812236 -0.71875,-2.878906 -0.32,-1.12 -0.64094,-2.054121 -0.96094,-2.800781 -1.97333,-2.08 -4.02682,-3.94628 -6.16015,-5.59961 -1.06667,-0.42667 -1.89185,-0.747607 -2.47852,-0.960937 -0.53333,-0.21333 -1.30698,-0.45208 -2.32031,-0.71875 z M 34.046875,56.3125 h 1.875 l 5.164063,21.919922 H 27.166016 Z m 49.052734,1.439453 c 3.1082,-0.14021 11.121094,7.441406 11.121094,7.441406 L 95.5,78.232422 l -0.640625,4.800781 -8,7.519531 -4.480469,0.958985 -2.398437,-0.958985 -9.839844,-9.519531 -0.480469,-12.400391 0.798828,-1.361328 7.361328,-8 c 0,0 2.171097,-1.379321 5.279297,-1.519531 z m 47.031251,0 c 3.46534,0.12765 11.12109,7.441406 11.12109,7.441406 l 1.2793,13.039063 -0.64063,4.800781 -8,7.519531 -4.48046,0.958985 -2.39844,-0.958985 -9.83984,-9.519531 -0.48047,-12.400391 0.79882,-1.361328 7.36133,-8 c 0,0 1.81396,-1.647181 5.2793,-1.519531 z m 87.5918,5.042969 c 1.28381,0.0088 2.49487,0.03171 3.44336,0.07813 3.79393,0.18567 6.36328,3.599609 6.36328,3.599609 v 9.039063 H 203.92773 V 66.95313 l 2.16016,-2.800781 3.28125,-1.279297 c 0,0 4.50208,-0.10446 8.35352,-0.07813 z m 55.23437,0.583984 -0.24805,0.128906 c 0.047,-0.02529 0.0784,-0.01847 0.125,-0.04297 0.0446,-0.023 0.0781,-0.06344 0.12305,-0.08594 z M 94.925781,121.32227 v -3e-5 c 0.0117,-4e-5 0.02346,-4e-5 0.03516,0 3.251564,0 5.895529,1.83881 7.636719,3.80468 0.4848,0.54734 0.80391,1.26194 1.20117,1.90821 0.50091,0.1089 0.98502,0.28428 1.43945,0.52148 0.84165,0.44294 1.60286,1.17191 2.25195,1.99414 0.34895,-0.41645 0.60486,-0.90146 1.02344,-1.23633 0.40426,-0.32346 0.85035,-0.59085 1.32617,-0.79492 0.89193,-0.38223 1.94089,-0.625 3.01368,-0.625 1.33254,0 2.42926,0.38198 3.28515,0.80078 0.17959,-0.0183 0.39771,-0.13281 0.56445,-0.13281 1.20358,0 1.81147,0.25041 2.38282,0.46875 1.252,0.42881 2.25395,1.35761 3.0332,2.36719 l 0.0332,-0.0371 -0.31445,-0.47656 c 0.12634,0.12634 0.24702,0.27482 0.37305,0.40234 l 0.45703,-0.55273 c 0.11646,-0.14188 0.23965,-0.27811 0.36914,-0.40821 0.80237,-0.80233 2.01234,-1.64801 3.58203,-1.98437 0.46989,-0.0979 0.95018,-0.13664 1.42969,-0.11524 0.10717,-0.33276 0.24445,-0.65506 0.41015,-0.96289 0.51157,-0.93796 1.29701,-1.79967 2.15235,-2.40625 0.98411,-0.69998 2.44408,-1.2832 3.9375,-1.2832 0.56214,0 1.01012,-0.0327 2.01953,0.1914 0.61897,0.13749 1.21094,0.37639 1.75195,0.70704 0.84653,0.51734 1.81473,1.26849 2.5918,2.53125 0.22282,0.36476 0.40433,0.75323 0.54101,1.1582 h 0.45508 c 0.19109,-4e-4 0.38209,0.009 0.57227,0.0273 1.13489,0.11357 2.39787,0.58719 3.35742,1.30664 l 0.002,0.002 c 0.25609,0.19208 0.34851,0.34664 0.53907,0.52539 0.31792,-0.22252 0.65754,-0.41229 1.01367,-0.56641 l 1.17383,-0.50586 c 0.71868,-0.30941 1.49294,-0.46892 2.27539,-0.46875 0.38301,0 1.06888,-0.01 1.99609,-0.0273 0.95817,-0.0183 1.68793,-0.0273 2.24414,-0.0273 0.82665,0 1.63296,0.11413 2.39258,0.29883 0.5229,0.10824 1.04261,0.22966 1.58594,0.39063 0.35741,0.10805 0.70344,0.25065 1.0332,0.42578 1.03694,-0.52762 2.16892,-0.875 3.20508,-0.875 1.0103,0 1.9806,0.30292 2.87305,0.70508 0.0194,-0.009 0.039,-0.0184 0.0586,-0.0274 0.67248,-0.26898 1.14038,-0.37697 1.63281,-0.48632 0.0214,-0.005 0.0429,-0.01 0.0644,-0.0137 0.48699,-0.10251 0.97027,-0.19408 1.59571,-0.24218 0.14688,-0.0106 0.29412,-0.0161 0.4414,-0.0156 2.16108,0 4.37507,0.57094 6.27149,1.64844 2.29585,1.27939 4.29541,3.94202 4.75586,6.62109 0.055,0.32195 0.0824,0.648 0.082,0.97461 v 10.93359 c 1.8e-4,0.48965 -0.0622,0.97732 -0.18555,1.45118 -0.44577,1.7089 -1.71849,3.40347 -3.09375,4.32031 -0.71457,0.47642 -1.52676,0.78674 -2.37695,0.9082 -0.39126,0.0559 -0.71873,0.10938 -1.37305,0.10938 -0.60586,0 -0.99096,-0.0512 -1.39844,-0.10938 -1.05617,-0.15077 -2.04957,-0.59236 -2.86914,-1.27539 -0.27313,-0.22759 -0.54038,-0.45857 -0.80078,-0.69531 -0.0673,-0.0616 -0.13306,-0.12475 -0.19726,-0.18945 -0.0597,-0.0597 -0.10146,-0.16587 -0.16016,-0.23047 -0.0441,0.0509 -0.089,0.10109 -0.13476,0.15039 -0.2169,0.21693 -0.36231,0.34935 -0.60547,0.57226 -0.39401,0.36104 -0.83642,0.6654 -1.31446,0.9043 -0.89245,0.4462 -2.03563,0.82031 -3.37304,0.82031 -1.40338,0 -2.49936,-0.39715 -3.34571,-0.82031 -0.179,-0.0917 -0.35307,-0.19277 -0.52148,-0.30273 -0.52239,0.2446 -1.02255,0.54307 -1.57031,0.71093 -0.54622,0.16726 -1.1143,0.25215 -1.68555,0.25196 h -4.80078 c -0.51405,-5e-5 -1.02577,-0.069 -1.52149,-0.20508 l -1.35937,-0.37305 c -0.49827,-0.13648 -0.97587,-0.33948 -1.41992,-0.60351 -0.30473,-0.18139 -0.5146,-0.48881 -0.80469,-0.69532 -0.53016,0.44471 -1.13623,0.79009 -1.78906,1.01954 l -1.51953,0.5332 c -0.63544,0.22308 -1.30512,0.33322 -1.97852,0.32422 l -4.05469,-0.0527 c -0.28465,-0.004 -0.56863,-0.0285 -0.84961,-0.0742 -1.2256,-0.19952 -2.38023,-0.73893 -3.44726,-1.39648 -0.11963,0.1027 -0.24344,0.20047 -0.3711,0.29297 -1.29281,0.92345 -2.92437,1.33789 -4.24804,1.33789 -1.68718,0 -3.92809,-1.0298 -5.31446,-2.56836 l -0.36523,0.42187 c -0.38427,0.44345 -0.83414,0.82548 -1.33399,1.13282 -1.01236,0.62304 -2.39501,1.0664 -3.73242,1.0664 -0.65459,0 -1.26167,-0.27147 -1.89648,-0.44922 -0.004,0.001 -0.008,0.003 -0.0117,0.004 -0.60302,0.17733 -1.21866,0.36524 -2.34375,0.36524 -1.00889,0 -2.189,-0.37421 -3.30273,-0.93555 l -0.46875,0.25781 c -0.84682,0.46304 -1.79657,0.70552 -2.76172,0.70508 h -1.8125 c -0.31145,-2e-4 -0.62237,-0.0257 -0.92969,-0.0762 -1.11885,-0.18342 -2.27369,-0.60245 -3.35156,-1.20313 -1.488715,0.74951 -3.108801,1.17188 -4.519531,1.17188 h -9.546875 c -3.1754,-5.6e-4 -5.74944,-2.5746 -5.75,-5.75 v -21.46698 c 5e-4,-3.16173 2.553173,-5.7301 5.714843,-5.75 z m -63.71289,5.02929 c -0.266667,0.0889 -0.524549,0.2761 -0.773438,0.56055 v 2.98633 c 0.106667,0.10666 0.223212,0.21364 0.347656,0.32031 0.142222,0.0889 0.266381,0.152 0.373047,0.1875 h 2.453125 c 0.08889,-0.0356 0.186302,-0.0986 0.292969,-0.1875 0.124444,-0.10667 0.231432,-0.19453 0.320312,-0.26563 v -2.98828 c -0.05333,-0.0533 -0.160312,-0.15082 -0.320312,-0.29296 -0.142223,-0.16 -0.256813,-0.26702 -0.345703,-0.32032 z m 63.746093,0.72071 -8.746093,0.0527 v 21.4668 h 9.546875 c 1.65333,0 2.763151,-0.56731 3.332031,-1.70508 0.5689,-1.13778 0.853515,-2.57048 0.853515,-4.29492 0,-1.03111 -0.204391,-1.97284 -0.613281,-2.82618 -0.40889,-0.85327 -1.029674,-1.50281 -1.865234,-1.94726 0.87111,-0.35555 1.501468,-0.98591 1.892578,-1.89258 0.39111,-0.90667 0.585939,-1.92869 0.585937,-3.0664 10e-7,-1.3689 -0.550113,-2.67549 -1.652343,-3.91993 -1.10222,-1.24444 -2.213985,-1.86718 -3.333985,-1.86718 z M 43.082031,127.5 l -0.505859,0.31836 c -0.177778,0.32 -0.267578,0.67725 -0.267578,1.06836 0,0.51556 0.160475,0.92434 0.480468,1.22656 h 3.439454 v 15.86524 h -3.091797 c -0.07111,0 -0.214401,0.0268 -0.427735,0.0801 -0.195555,0.0534 -0.32928,0.0993 -0.40039,0.13477 -0.213334,0.32 -0.31836,0.65616 -0.31836,1.01172 0,0.0889 0.0076,0.18825 0.02539,0.29492 0.01778,0.10667 0.04453,0.26518 0.08008,0.47852 0.142222,0.21333 0.373366,0.41772 0.693359,0.61328 h 8.853516 l 0.826172,-0.10547 c 0.266667,-0.30223 0.400391,-0.67666 0.400391,-1.1211 0,-0.37333 -0.08024,-0.71144 -0.240235,-1.01367 -0.266666,-0.19555 -0.532161,-0.31974 -0.798828,-0.37304 h -2.69336 V 128.64648 L 48.921875,128.0332 48.603516,127.5 Z m 13.802735,0 -0.50586,0.31836 c -0.177778,0.32 -0.267578,0.67725 -0.267578,1.06836 0,0.51556 0.160469,0.92434 0.480469,1.22656 h 3.439453 v 15.86524 H 56.9375 c -0.07111,0 -0.212448,0.0268 -0.425781,0.0801 -0.195554,0.0534 -0.329281,0.0993 -0.400391,0.13477 -0.213333,0.32 -0.320312,0.65616 -0.320312,1.01172 0,0.0889 0.0095,0.18825 0.02734,0.29492 0.0178,0.10667 0.04455,0.26518 0.08008,0.47852 0.142213,0.21333 0.373359,0.41772 0.693359,0.61328 h 8.853515 l 0.826172,-0.10547 c 0.266667,-0.30223 0.400391,-0.67666 0.400391,-1.1211 0,-0.37333 -0.08023,-0.71144 -0.240234,-1.01367 -0.266667,-0.19555 -0.534115,-0.31974 -0.800782,-0.37304 H 62.9375 V 128.64648 L 62.724609,128.0332 62.404297,127.5 Z m -42.869141,0.0254 c -0.408889,0 -0.72026,0.0974 -0.933594,0.29297 -0.195557,0.17777 -0.312106,0.36499 -0.347656,0.56055 v 16.88086 c 0.08889,0.69333 0.302847,1.34086 0.640625,1.94531 0.355555,0.58666 0.817829,1.04894 1.386719,1.38672 h 3.439453 c 0.142222,-0.0711 0.35618,-0.20288 0.640625,-0.39844 0.284444,-0.21333 0.542326,-0.41012 0.773437,-0.58789 0.177778,0.12444 0.435661,0.30209 0.773438,0.5332 0.337778,0.23112 0.649149,0.38203 0.933594,0.45313 h 2.558593 c 1.28,-0.56889 2.09757,-1.55454 2.453125,-2.95899 v -17.14648 c -0.32,-0.62222 -0.799453,-0.9336 -1.439453,-0.9336 -0.497777,0 -0.906562,0.22157 -1.226562,0.66602 v 16.42773 c 0,0.33778 -0.141345,0.63959 -0.425781,0.90625 -0.284445,0.24892 -0.632127,0.35582 -1.041016,0.32032 -0.337778,-0.28444 -0.656771,-0.57864 -0.958984,-0.88086 -0.302223,-0.30222 -0.453126,-0.57729 -0.453126,-0.82617 v -8.85352 c 10e-7,-0.23111 -0.14329,-0.41832 -0.427734,-0.56055 -0.266667,-0.16003 -0.568472,-0.24023 -0.90625,-0.24023 -0.355555,0 -0.657361,0.0726 -0.90625,0.21484 -0.231111,0.12444 -0.347656,0.30209 -0.347656,0.53321 v 9.0664 c 0,0.76444 -0.194826,1.21715 -0.585938,1.35938 -0.373333,0.1244 -0.614036,0.1875 -0.720703,0.1875 -0.444444,0 -0.826484,-0.19679 -1.146484,-0.58789 -0.32,-0.39112 -0.480469,-0.81708 -0.480469,-1.2793 v -15.83984 c -0.248889,-0.42667 -0.665286,-0.64063 -1.251953,-0.64063 z m 120.531255,0.80078 c -0.21334,0 -0.41773,0.0707 -0.61329,0.21289 -0.17777,0.12444 -0.31911,0.28491 -0.42578,0.48047 v 3.89258 h -2.3457 c -0.37333,0.35556 -0.56055,0.81022 -0.56055,1.36133 0,0.51556 0.15091,0.95108 0.45313,1.30664 h 2.40039 v 9.94531 c 0.37333,0.78222 0.84321,1.44889 1.41211,2 0.58666,0.55111 1.2629,0.88923 2.02734,1.01367 l 4.05274,0.0527 1.52148,-0.53321 c 0.35555,-0.30222 0.68411,-0.6212 0.98633,-0.95898 0.32,-0.35555 0.57788,-0.71085 0.77344,-1.06641 0.0177,-0.19555 0.0349,-0.48018 0.0527,-0.85351 0.0355,-0.39112 0.0527,-0.74641 0.0527,-1.06641 -0.32,-0.42667 -0.70965,-0.64062 -1.17187,-0.64062 -0.16,0 -0.32047,0.0268 -0.48047,0.0801 -0.14222,0.14223 -0.4001,0.50709 -0.77344,1.09375 -0.35556,0.58667 -0.69367,0.96872 -1.01367,1.14649 h -3.43945 c -0.23111,-0.0534 -0.40115,-0.0993 -0.50781,-0.13477 -0.0889,-0.0533 -0.19588,-0.11444 -0.32032,-0.18554 -0.30222,-0.26667 -0.50661,-0.57804 -0.61328,-0.9336 v -8.95898 h 6.08008 c 0.30223,-0.12445 0.51619,-0.29448 0.64063,-0.50781 0.1243,-0.23111 0.18749,-0.51574 0.1875,-0.85352 0,-0.23111 -0.0268,-0.45268 -0.0801,-0.66602 -0.16,-0.19555 -0.31091,-0.34645 -0.45313,-0.45312 -0.14222,-0.1067 -0.30269,-0.1697 -0.48047,-0.1875 h -5.89453 v -3.89258 c -0.14222,-0.23111 -0.37336,-0.44507 -0.69336,-0.64062 -0.16,-0.0355 -0.41794,-0.0527 -0.77343,-0.0527 z m -45.667974,1.57227 5.414063,0.0801 c 0.87112,0 1.581692,0.31137 2.132812,0.93359 0.56888,0.60445 0.853516,1.29786 0.853516,2.08008 0,0.97778 -0.275062,1.8584 -0.826172,2.64062 -0.55111,0.76445 -1.307578,1.14649 -2.267578,1.14649 h -5.306641 z m 13.333984,2.7207 c -0.24889,0 -0.50677,0.0439 -0.77344,0.13281 -0.24888,0.0711 -0.46284,0.1781 -0.64062,0.32032 v 11.46679 c 0.23111,1.13778 0.63989,2.0719 1.22656,2.80078 0.60444,0.72889 1.44876,1.1816 2.5332,1.35938 h 1.81446 l 5.0664,-2.77344 v 1.4668 c 0.21334,0.85333 0.70235,1.2793 1.4668,1.2793 0.17777,-1e-5 0.41652,-0.0439 0.71875,-0.13282 0.14224,-0.21333 0.23208,-0.35468 0.26758,-0.42578 0.0533,-0.0889 0.0973,-0.20544 0.13281,-0.34766 v -13.97265 l -0.37305,-0.93359 c -0.28444,-0.1422 -0.55188,-0.2129 -0.80078,-0.2129 -0.24888,0 -0.4972,0.0535 -0.74609,0.16016 -0.26667,0.21333 -0.48063,0.47122 -0.64063,0.77344 v 9.54492 l -5.35937,2.9082 c -0.69333,0 -1.29694,-0.11655 -1.8125,-0.34765 -0.51555,-0.2489 -0.86324,-0.66724 -1.04102,-1.25391 v -10.98633 c -0.12444,-0.35556 -0.35558,-0.62105 -0.69336,-0.79883 -0.0711,0 -0.1857,-0.01 -0.3457,-0.0273 z m 25.60938,0.3457 c -0.24889,0.0533 -0.48764,0.19663 -0.71875,0.42774 l -4.64063,5.62695 c -1.54667,-1.79555 -3.11114,-3.48418 -4.69336,-5.06641 -0.10667,-0.2666 -0.27474,-0.43671 -0.50586,-0.50781 -0.23111,-0.0889 -0.41833,-0.13281 -0.56055,-0.13281 -0.39105,0 -0.69297,0.13372 -0.90624,0.40039 -0.19557,0.26667 -0.29297,0.60478 -0.29297,1.01367 0,0.17778 0.008,0.30954 0.0254,0.39844 0.0178,0.0889 0.0541,0.22261 0.10742,0.40039 0.94223,0.87111 1.81328,1.75173 2.61328,2.64063 0.81777,0.88888 1.68883,1.90128 2.61328,3.03906 l -4.64062,5.62695 c -0.0534,0.21333 -0.0801,0.41772 -0.0801,0.61328 0,0.42667 0.11654,0.80871 0.34765,1.14649 0.21334,0.10665 0.43491,0.16015 0.66602,0.16015 0.24889,0 0.4896,-0.0707 0.7207,-0.21289 l 4.63867,-5.35937 4.26758,4.98633 c 0.2489,0.35555 0.62137,0.5332 1.11914,0.5332 0.35556,0 0.65932,-0.0898 0.90821,-0.26758 0.17778,-0.21333 0.2924,-0.37185 0.3457,-0.47852 0.0533,-0.1066 0.0973,-0.24039 0.13281,-0.40039 -0.0178,-0.0711 -0.0522,-0.2144 -0.10547,-0.42773 -0.0533,-0.21333 -0.10685,-0.36432 -0.16015,-0.45312 l -4.77344,-5.73243 4.98633,-6 c 0.0534,-0.16 0.0801,-0.3109 0.0801,-0.45312 0,-0.39112 -0.1509,-0.72923 -0.45313,-1.01367 -0.28444,-0.30224 -0.63212,-0.47232 -1.04101,-0.50782 z m 27.25781,0.21485 c -0.48,0 -1.19059,0.008 -2.13281,0.0254 -0.94223,0.0173 -1.64521,0.0273 -2.10743,0.0273 l -1.17187,0.50586 c -0.65778,0.49778 -1.21747,1.00593 -1.67969,1.52149 -0.44445,0.51555 -0.8093,1.10198 -1.09375,1.75976 v 7.30664 c 0.21333,0.83556 0.57819,1.58246 1.09375,2.24024 0.53333,0.65777 1.17326,1.20789 1.91992,1.65234 l 1.35938,0.37305 h 4.79883 c 1.10222,-0.33778 2.06308,-0.92421 2.88086,-1.75977 0.83555,-0.85333 1.36849,-1.81224 1.59961,-2.87891 v -5.46679 l -0.53321,-2.34766 -0.98633,-1.35937 -1.59961,-1.14649 c -0.48,-0.14222 -0.90791,-0.24921 -1.28125,-0.32031 -0.35556,-0.0889 -0.71085,-0.13281 -1.0664,-0.13281 z m 14.88476,0.16015 c -0.23111,0.0178 -0.51574,0.0617 -0.85351,0.13282 -0.32,0.0711 -0.57027,0.14179 -0.74805,0.21289 -0.62222,0.40888 -1.25258,0.80049 -1.89258,1.17383 -0.64,0.37327 -1.2436,0.71145 -1.8125,1.01367 v -1.33399 c -0.0711,-0.33778 -0.24114,-0.60523 -0.50781,-0.80078 -0.26667,-0.21333 -0.55135,-0.31836 -0.85351,-0.31836 -0.44444,0 -0.80931,0.17771 -1.09376,0.5332 -0.14209,0.35556 -0.21289,0.63062 -0.21289,0.82618 v 12.8789 c 0.0178,0.10667 0.0541,0.22321 0.10743,0.34766 0.0533,0.10667 0.16031,0.28432 0.32031,0.5332 0.28445,0.14219 0.54232,0.21289 0.77344,0.21289 0.24888,0 0.51438,-0.0707 0.79882,-0.21289 0.21334,-0.19555 0.35664,-0.32929 0.42774,-0.40039 0.0711,-0.0889 0.15133,-0.21305 0.24023,-0.37305 v -8.69335 l 3.89258,-2.50586 c 0.19555,-0.0889 0.39995,-0.18826 0.61328,-0.29493 0.23112,-0.10666 0.46226,-0.18498 0.69336,-0.23828 0.26667,0 0.55129,0.0268 0.85352,0.0801 0.32,0.0533 0.61224,0.11445 0.8789,0.18555 l 0.9336,0.66601 v 10.58789 c 0.0178,0.2489 0.12476,0.47047 0.32031,0.66602 0.19555,0.17778 0.39995,0.35543 0.61328,0.5332 0.24889,0.0356 0.44567,0.0547 0.58789,0.0547 0.12445,0 0.30971,-0.0192 0.5586,-0.0547 0.37333,-0.24888 0.61403,-0.57744 0.7207,-0.98633 v -10.93359 c -0.19555,-1.13777 -0.82591,-1.99927 -1.89258,-2.58594 -1.04889,-0.60444 -2.20458,-0.90625 -3.4668,-0.90625 z m -141.818356,0.29297 c -0.16,0.14223 -0.284166,0.32944 -0.373046,0.56055 -0.07111,0.23111 -0.107422,0.46986 -0.107422,0.71875 0,0.16 0.01914,0.34721 0.05469,0.56055 0.177777,0.17778 0.32868,0.31911 0.453125,0.42578 0.124445,0.0889 0.256216,0.16913 0.398438,0.24023 h 3.333984 v 9.83985 H 28.8125 c -0.515555,0.37333 -0.773437,0.84517 -0.773438,1.41406 10e-7,0.53333 0.257883,0.93255 0.773438,1.19922 h 9.386719 c 0.604444,-0.28444 0.908203,-0.7639 0.908203,-1.43946 0,-0.14222 -0.0096,-0.24921 -0.02734,-0.32031 -0.231111,-0.40889 -0.542482,-0.69351 -0.933594,-0.85351 h -3.226562 v -11.75977 c -0.16,-0.16002 -0.276546,-0.25747 -0.347656,-0.29297 -0.07111,-0.0533 -0.229627,-0.15074 -0.478516,-0.29297 z m 126.294926,2.29297 c 0.56888,0.10667 0.99485,0.21365 1.27929,0.32031 0.30222,0.0889 0.62316,0.23023 0.96094,0.42579 l 1.03906,1.04101 0.10742,5.97266 c -0.15993,0.49777 -0.39113,0.92569 -0.69335,1.28125 -0.28445,0.33777 -0.6417,0.5937 -1.06836,0.77148 l -4.21289,0.0547 -1.41211,-0.5332 -0.77344,-1.20118 c -0.0356,-0.76444 -0.0719,-1.72335 -0.10742,-2.8789 -0.0355,-1.17334 -0.0527,-2.25836 -0.0527,-3.25391 0.16,-0.42667 0.38158,-0.79152 0.66602,-1.09375 0.28444,-0.30222 0.61299,-0.51422 0.98633,-0.63867 z m -65.615238,3.43945 h 5.839844 c 0.83555,0 1.448733,0.30181 1.839843,0.90625 0.40889,0.60445 0.613282,1.3781 0.613282,2.32032 0,1.01333 -0.194828,1.86721 -0.585938,2.56054 -0.37333,0.69334 -0.969339,1.04102 -1.787109,1.04102 h -5.919922 z"
         transform="translate(31.610596,79.976732)"
         inkscape:connector-curvature="0"
         sodipodi:nodetypes="cccccscccccccsccccsccccccccsccccscsccccsccccccccccccccccccccccccscccccccccccccccccccccscccccccccccccsccccccscccccccccsccccccccccccccscccccccccccccccccccccccccccccscscccccccccccccccccccccccscccccccscsccccscccccsccsscccccssccccsccscccccsccccsccccccscccscccsccscccccscccccccsccccscccccsccccccscccccccscccccssccccscccccsccccccscccccccscccccscccccccccccccccccccscccccsscccccccccccccsccccccccccssccccccccccscccccccccccccccccccccccscscccccccccccscccccccccccccscccscccccccccccccsccccccccsccccccccccccccccscccsccsccccccsccccccccccccccccccccscsccsccccccscccsccscccccscccccccccscccsccscccccscccccccscccccccccccccscscccsccscsscscscscccccscccccccccccsccccccccccccccccccccccscscccccccccccccccccscccccccccccccccscscccccscscccscccccccsccccccccccccccccccccccccccccccscscccscccccccccccccsccccccccscccccccccscccccccccccccccccccccccscscscc" />
    </g>
    <g
       aria-label="Will Buxton"
       transform="matrix(0.26458333,0,0,0.26458333,-12.773584,221.69681)"
       style="font-style:normal;font-weight:normal;font-size:40px;line-height:125%;font-family:sans-serif;letter-spacing:0px;word-spacing:0px;fill:#ffffff;fill-opacity:1;stroke:none;stroke-width:1px;stroke-linecap:butt;stroke-linejoin:miter;stroke-opacity:1"
       id="flowRoot22" />
  </g>
</svg>
